<svg width="202" height="46" viewBox="0 0 202 46" fill="none" xmlns="http://www.w3.org/2000/svg">
<path d="M40.1591 11.488C39.5404 10.592 38.6017 10.144 37.3431 10.144C36.0844 10.144 35.1351 10.592 34.4951 11.488C33.8764 12.3627 33.5671 13.76 33.5671 15.68C33.5671 17.6 33.8764 19.008 34.4951 19.904C35.1351 20.7787 36.0844 21.216 37.3431 21.216C38.6017 21.216 39.5404 20.7787 40.1591 19.904C40.7991 19.008 41.1191 17.6 41.1191 15.68C41.1191 13.76 40.7991 12.3627 40.1591 11.488ZM43.2951 22.08C41.8871 23.5733 39.9031 24.32 37.3431 24.32C34.7831 24.32 32.7884 23.5733 31.3591 22.08C29.9511 20.5653 29.2471 18.432 29.2471 15.68C29.2471 12.928 29.9511 10.8053 31.3591 9.312C32.7884 7.79733 34.7831 7.04 37.3431 7.04C39.9031 7.04 41.8871 7.79733 43.2951 9.312C44.7244 10.8053 45.4391 12.928 45.4391 15.68C45.4391 18.432 44.7244 20.5653 43.2951 22.08ZM48.0336 24C47.6282 24 47.3296 23.8293 47.1376 23.488C46.9456 23.1467 46.9562 22.8053 47.1696 22.464L51.2656 15.744C51.3722 15.5947 51.3722 15.4453 51.2656 15.296L47.3296 8.896C47.1162 8.55467 47.1056 8.21333 47.2976 7.872C47.4896 7.53067 47.7882 7.36 48.1936 7.36H49.2176C49.7722 7.36 50.2842 7.50933 50.7536 7.808C51.2442 8.08533 51.6176 8.46933 51.8736 8.96L54.0496 13.152C54.0496 13.1733 54.0602 13.184 54.0816 13.184C54.1029 13.184 54.1136 13.1733 54.1136 13.152L56.2896 8.96C56.5456 8.46933 56.9082 8.08533 57.3776 7.808C57.8469 7.50933 58.3696 7.36 58.9456 7.36H59.8416C60.2469 7.36 60.5456 7.53067 60.7376 7.872C60.9296 8.21333 60.9189 8.55467 60.7056 8.896L56.7696 15.296C56.6629 15.4453 56.6629 15.5947 56.7696 15.744L60.8656 22.464C61.0789 22.8053 61.0896 23.1467 60.8976 23.488C60.7056 23.8293 60.4069 24 60.0016 24H58.9776C58.4016 24 57.8789 23.8613 57.4096 23.584C56.9402 23.2853 56.5776 22.8907 56.3216 22.4L53.9856 17.92C53.9856 17.8987 53.9749 17.888 53.9536 17.888C53.9322 17.888 53.9216 17.8987 53.9216 17.92L51.5856 22.4C51.3296 22.8907 50.9562 23.2853 50.4656 23.584C49.9962 23.8613 49.4842 24 48.9296 24H48.0336ZM68.1813 13.504V17.856C68.1813 18.7093 68.544 19.4667 69.2693 20.128C70.016 20.7893 70.88 21.12 71.8613 21.12C72.992 21.12 73.888 20.6613 74.5492 19.744C75.2102 18.8267 75.5412 17.472 75.5412 15.68C75.5412 12.0533 74.3142 10.24 71.8613 10.24C70.88 10.24 70.016 10.5707 69.2693 11.232C68.544 11.8933 68.1813 12.6507 68.1813 13.504ZM65.7813 31.04C65.2907 31.04 64.864 30.8587 64.5013 30.496C64.1387 30.1333 63.9573 29.7067 63.9573 29.216V9.184C63.9573 8.69333 64.1387 8.26667 64.5013 7.904C64.864 7.54133 65.2907 7.36 65.7813 7.36H66.1653C66.6773 7.36 67.1147 7.54133 67.4773 7.904C67.84 8.24533 68.032 8.672 68.0533 9.184V9.408C68.0533 9.42933 68.064 9.44 68.0853 9.44C68.1067 9.44 68.128 9.42933 68.1493 9.408C68.9173 8.55467 69.6853 7.94667 70.4533 7.584C71.2213 7.22133 72.1173 7.04 73.1413 7.04C75.1462 7.04 76.7462 7.79733 77.9412 9.312C79.1362 10.8053 79.7332 12.928 79.7332 15.68C79.7332 18.3467 79.1042 20.4587 77.8452 22.016C76.6082 23.552 75.0402 24.32 73.1413 24.32C71.2853 24.32 69.6747 23.648 68.3093 22.304C68.288 22.2827 68.2667 22.272 68.2453 22.272C68.224 22.272 68.2133 22.2827 68.2133 22.304V29.216C68.2133 29.7067 68.032 30.1333 67.6693 30.496C67.328 30.8587 66.912 31.04 66.4213 31.04H65.7813ZM85.5522 24C85.0612 24 84.6352 23.8187 84.2722 23.456C83.9092 23.0933 83.7282 22.6667 83.7282 22.176V1.824C83.7282 1.33333 83.9092 0.906668 84.2722 0.544001C84.6352 0.181334 85.0612 0 85.5522 0H86.3842C86.8752 0 87.3012 0.181334 87.6642 0.544001C88.0272 0.906668 88.2082 1.33333 88.2082 1.824V22.176C88.2082 22.6667 88.0272 23.0933 87.6642 23.456C87.3012 23.8187 86.8752 24 86.3842 24H85.5522ZM102.964 11.488C102.346 10.592 101.407 10.144 100.148 10.144C98.8902 10.144 97.9402 10.592 97.3002 11.488C96.6822 12.3627 96.3722 13.76 96.3722 15.68C96.3722 17.6 96.6822 19.008 97.3002 19.904C97.9402 20.7787 98.8902 21.216 100.148 21.216C101.407 21.216 102.346 20.7787 102.964 19.904C103.604 19.008 103.924 17.6 103.924 15.68C103.924 13.76 103.604 12.3627 102.964 11.488ZM106.1 22.08C104.692 23.5733 102.708 24.32 100.148 24.32C97.5882 24.32 95.5942 23.5733 94.1642 22.08C92.7562 20.5653 92.0522 18.432 92.0522 15.68C92.0522 12.928 92.7562 10.8053 94.1642 9.312C95.5942 7.79733 97.5882 7.04 100.148 7.04C102.708 7.04 104.692 7.79733 106.1 9.312C107.53 10.8053 108.244 12.928 108.244 15.68C108.244 18.432 107.53 20.5653 106.1 22.08ZM112.963 24C112.473 24 112.046 23.8187 111.683 23.456C111.321 23.0933 111.139 22.6667 111.139 22.176V9.184C111.139 8.69333 111.321 8.26667 111.683 7.904C112.046 7.54133 112.473 7.36 112.963 7.36H113.603C114.094 7.36 114.521 7.54133 114.883 7.904C115.246 8.26667 115.427 8.69333 115.427 9.184V10.528C115.427 10.5493 115.438 10.56 115.459 10.56C115.502 10.56 115.523 10.5493 115.523 10.528C116.142 9.67467 116.953 8.98133 117.955 8.448C118.958 7.89333 120.057 7.552 121.251 7.424C121.699 7.38133 122.083 7.53067 122.403 7.872C122.723 8.192 122.883 8.576 122.883 9.024C122.883 9.472 122.723 9.856 122.403 10.176C122.083 10.496 121.699 10.6773 121.251 10.72C117.475 11.0187 115.587 12.9387 115.587 16.48V22.176C115.587 22.6667 115.406 23.0933 115.043 23.456C114.681 23.8187 114.254 24 113.763 24H112.963ZM132.422 10.016C131.334 10.016 130.491 10.3253 129.894 10.944C129.318 11.5413 128.955 12.512 128.806 13.856C128.806 14.0267 128.891 14.112 129.062 14.112H135.334C135.504 14.112 135.59 14.0267 135.59 13.856C135.504 11.296 134.448 10.016 132.422 10.016ZM133.222 24.32C130.427 24.32 128.272 23.5947 126.758 22.144C125.264 20.672 124.518 18.5173 124.518 15.68C124.518 12.864 125.19 10.72 126.534 9.248C127.878 7.776 129.819 7.04 132.358 7.04C137.094 7.04 139.526 9.728 139.654 15.104C139.675 15.616 139.494 16.0427 139.11 16.384C138.726 16.7253 138.278 16.896 137.766 16.896H129.03C128.838 16.896 128.763 16.992 128.806 17.184C128.955 18.6133 129.424 19.6587 130.214 20.32C131.024 20.96 132.198 21.28 133.734 21.28C134.694 21.28 135.76 21.12 136.934 20.8C137.318 20.6933 137.67 20.7573 137.99 20.992C138.331 21.2267 138.502 21.5467 138.502 21.952C138.502 22.4427 138.352 22.88 138.054 23.264C137.776 23.6267 137.403 23.8507 136.934 23.936C135.739 24.192 134.502 24.32 133.222 24.32Z" fill="white"/>
<path fill-rule="evenodd" clip-rule="evenodd" d="M18.8888 29C18.552 29 18.2508 28.7971 18.1343 28.4917L8.04965 2.04546C7.93275 1.73906 8.02674 1.39479 8.28474 1.18386C8.54264 0.972929 8.90964 0.940365 9.20304 1.10236L19 6L28.5746 1.10236C28.8681 0.940365 29.235 0.972929 29.493 1.18386C29.751 1.39479 29.845 1.73906 29.7281 2.04546L19.6434 28.4917C19.5269 28.7971 19.2257 29 18.8888 29ZM18.8888 25.9759C18.6416 26.1124 19.136 26.1124 18.8888 25.9759V25.9759Z" fill="#D21284"/>
<path d="M9.43302 43C9.24902 43 9.08902 42.932 8.95302 42.796C8.81702 42.66 8.74902 42.5 8.74902 42.316V34.924C8.74902 34.74 8.81702 34.58 8.95302 34.444C9.08902 34.308 9.24902 34.24 9.43302 34.24H9.50502C9.68902 34.24 9.84902 34.308 9.98502 34.444C10.121 34.58 10.189 34.74 10.189 34.924V42.316C10.189 42.5 10.121 42.66 9.98502 42.796C9.84902 42.932 9.68902 43 9.50502 43H9.43302ZM12.9169 42.82C12.7969 42.94 12.6489 43 12.4729 43C12.2969 43 12.1449 42.94 12.0169 42.82C11.8969 42.7 11.8369 42.552 11.8369 42.376V37.348C11.8369 37.188 11.8929 37.052 12.0049 36.94C12.1249 36.82 12.2649 36.76 12.4249 36.76C12.5849 36.76 12.7209 36.82 12.8329 36.94C12.9529 37.052 13.0169 37.188 13.0249 37.348L13.0369 37.528C13.0369 37.536 13.0409 37.54 13.0489 37.54C13.0569 37.54 13.0649 37.536 13.0729 37.528C13.6409 36.936 14.2889 36.64 15.0169 36.64C15.7449 36.64 16.2769 36.848 16.6129 37.264C16.9489 37.672 17.1169 38.344 17.1169 39.28V42.388C17.1169 42.556 17.0569 42.7 16.9369 42.82C16.8169 42.94 16.6729 43 16.5049 43C16.3369 43 16.1889 42.94 16.0609 42.82C15.9409 42.7 15.8809 42.556 15.8809 42.388V39.46C15.8809 38.74 15.7929 38.252 15.6169 37.996C15.4409 37.732 15.1209 37.6 14.6569 37.6C14.2809 37.6 13.9249 37.768 13.5889 38.104C13.2609 38.432 13.0969 38.784 13.0969 39.16V42.376C13.0969 42.552 13.0369 42.7 12.9169 42.82ZM18.2317 37.96C18.0957 37.96 17.9797 37.912 17.8837 37.816C17.7957 37.72 17.7517 37.608 17.7517 37.48C17.7517 37.352 17.7957 37.24 17.8837 37.144C17.9797 37.048 18.0957 37 18.2317 37H18.9037C18.9757 37 19.0117 36.964 19.0117 36.892V35.344C19.0117 35.168 19.0717 35.02 19.1917 34.9C19.3117 34.78 19.4597 34.72 19.6357 34.72C19.8117 34.72 19.9597 34.78 20.0797 34.9C20.2077 35.02 20.2717 35.168 20.2717 35.344V36.892C20.2717 36.964 20.3077 37 20.3797 37H21.9517C22.0877 37 22.1997 37.048 22.2877 37.144C22.3837 37.24 22.4317 37.352 22.4317 37.48C22.4317 37.608 22.3837 37.72 22.2877 37.816C22.1997 37.912 22.0877 37.96 21.9517 37.96H20.3797C20.3077 37.96 20.2717 37.996 20.2717 38.068V40.84C20.2717 41.384 20.3357 41.74 20.4637 41.908C20.5917 42.076 20.8477 42.16 21.2317 42.16C21.4157 42.16 21.5917 42.148 21.7597 42.124C21.8877 42.108 21.9997 42.136 22.0957 42.208C22.1997 42.28 22.2517 42.376 22.2517 42.496C22.2517 42.64 22.2037 42.768 22.1077 42.88C22.0117 42.992 21.8917 43.056 21.7477 43.072C21.4117 43.104 21.1597 43.12 20.9917 43.12C20.2557 43.12 19.7397 42.964 19.4437 42.652C19.1557 42.34 19.0117 41.776 19.0117 40.96V38.068C19.0117 37.996 18.9757 37.96 18.9037 37.96H18.2317ZM25.94 37.576C25.028 37.576 24.516 38.116 24.404 39.196C24.388 39.268 24.42 39.304 24.5 39.304H27.188C27.252 39.304 27.284 39.268 27.284 39.196C27.236 38.116 26.788 37.576 25.94 37.576ZM26.24 43.12C25.24 43.12 24.468 42.848 23.924 42.304C23.388 41.76 23.12 40.952 23.12 39.88C23.12 38.808 23.36 38 23.84 37.456C24.328 36.912 25.028 36.64 25.94 36.64C27.604 36.64 28.464 37.616 28.52 39.568C28.528 39.76 28.46 39.92 28.316 40.048C28.172 40.176 28.004 40.24 27.812 40.24H24.488C24.424 40.24 24.392 40.272 24.392 40.336C24.488 41.568 25.144 42.184 26.36 42.184C26.784 42.184 27.2 42.116 27.608 41.98C27.728 41.94 27.84 41.956 27.944 42.028C28.048 42.1 28.1 42.2 28.1 42.328C28.1 42.48 28.052 42.616 27.956 42.736C27.86 42.856 27.736 42.936 27.584 42.976C27.144 43.072 26.696 43.12 26.24 43.12ZM30.5195 42.808C30.3915 42.936 30.2355 43 30.0515 43C29.8675 43 29.7115 42.936 29.5835 42.808C29.4555 42.68 29.3915 42.524 29.3915 42.34V37.384C29.3915 37.208 29.4515 37.06 29.5715 36.94C29.6915 36.82 29.8395 36.76 30.0155 36.76C30.1915 36.76 30.3395 36.82 30.4595 36.94C30.5875 37.06 30.6515 37.208 30.6515 37.384V37.948C30.6515 37.956 30.6555 37.96 30.6635 37.96C30.6795 37.96 30.6875 37.956 30.6875 37.948C30.9275 37.62 31.2475 37.352 31.6475 37.144C32.0475 36.928 32.4835 36.804 32.9555 36.772C33.0995 36.764 33.2195 36.808 33.3155 36.904C33.4195 37 33.4715 37.12 33.4715 37.264C33.4715 37.408 33.4195 37.532 33.3155 37.636C33.2195 37.732 33.0995 37.784 32.9555 37.792C32.1875 37.824 31.6195 38.024 31.2515 38.392C30.8915 38.752 30.7115 39.288 30.7115 40V42.34C30.7115 42.524 30.6475 42.68 30.5195 42.808ZM37.0347 39.856C36.3787 39.856 35.8827 39.968 35.5467 40.192C35.2187 40.408 35.0547 40.704 35.0547 41.08C35.0547 41.376 35.1427 41.62 35.3187 41.812C35.4947 42.004 35.7067 42.1 35.9547 42.1C36.4827 42.1 36.9027 41.936 37.2147 41.608C37.5347 41.272 37.6947 40.816 37.6947 40.24V39.952C37.6947 39.888 37.6587 39.856 37.5867 39.856H37.0347ZM35.6547 43.12C35.1107 43.12 34.6627 42.944 34.3107 42.592C33.9667 42.24 33.7947 41.776 33.7947 41.2C33.7947 40.496 34.0627 39.952 34.5987 39.568C35.1347 39.176 35.9467 38.98 37.0347 38.98H37.5867C37.6587 38.98 37.6947 38.944 37.6947 38.872V38.74C37.6947 38.316 37.5947 38.02 37.3947 37.852C37.1947 37.684 36.8347 37.6 36.3147 37.6C35.8507 37.6 35.2987 37.696 34.6587 37.888C34.5387 37.928 34.4227 37.912 34.3107 37.84C34.2067 37.76 34.1547 37.656 34.1547 37.528C34.1547 37.368 34.2027 37.224 34.2987 37.096C34.3947 36.968 34.5187 36.888 34.6707 36.856C35.2467 36.712 35.7947 36.64 36.3147 36.64C37.3227 36.64 38.0147 36.82 38.3907 37.18C38.7667 37.54 38.9547 38.2 38.9547 39.16V42.412C38.9547 42.572 38.8947 42.712 38.7747 42.832C38.6627 42.944 38.5267 43 38.3667 43C38.2067 43 38.0667 42.944 37.9467 42.832C37.8347 42.712 37.7747 42.572 37.7667 42.412L37.7547 42.112C37.7547 42.104 37.7507 42.1 37.7427 42.1C37.7267 42.1 37.7187 42.104 37.7187 42.112C37.2547 42.784 36.5667 43.12 35.6547 43.12ZM42.702 43.12C41.742 43.12 41.002 42.848 40.482 42.304C39.962 41.752 39.702 40.944 39.702 39.88C39.702 38.832 39.954 38.032 40.458 37.48C40.962 36.92 41.67 36.64 42.582 36.64C43.006 36.64 43.41 36.668 43.794 36.724C43.946 36.748 44.07 36.82 44.166 36.94C44.27 37.06 44.322 37.2 44.322 37.36C44.322 37.496 44.266 37.604 44.154 37.684C44.05 37.764 43.93 37.788 43.794 37.756C43.402 37.668 43.03 37.624 42.678 37.624C42.126 37.624 41.71 37.804 41.43 38.164C41.158 38.524 41.022 39.096 41.022 39.88C41.022 40.68 41.166 41.256 41.454 41.608C41.75 41.96 42.198 42.136 42.798 42.136C43.174 42.136 43.534 42.084 43.878 41.98C44.006 41.94 44.122 41.96 44.226 42.04C44.33 42.112 44.382 42.212 44.382 42.34C44.382 42.5 44.33 42.644 44.226 42.772C44.122 42.9 43.994 42.98 43.842 43.012C43.458 43.084 43.078 43.12 42.702 43.12ZM45.7317 37.96C45.5957 37.96 45.4797 37.912 45.3837 37.816C45.2957 37.72 45.2517 37.608 45.2517 37.48C45.2517 37.352 45.2957 37.24 45.3837 37.144C45.4797 37.048 45.5957 37 45.7317 37H46.4037C46.4757 37 46.5117 36.964 46.5117 36.892V35.344C46.5117 35.168 46.5717 35.02 46.6917 34.9C46.8117 34.78 46.9597 34.72 47.1357 34.72C47.3117 34.72 47.4597 34.78 47.5797 34.9C47.7077 35.02 47.7717 35.168 47.7717 35.344V36.892C47.7717 36.964 47.8077 37 47.8797 37H49.4517C49.5877 37 49.6997 37.048 49.7877 37.144C49.8837 37.24 49.9317 37.352 49.9317 37.48C49.9317 37.608 49.8837 37.72 49.7877 37.816C49.6997 37.912 49.5877 37.96 49.4517 37.96H47.8797C47.8077 37.96 47.7717 37.996 47.7717 38.068V40.84C47.7717 41.384 47.8357 41.74 47.9637 41.908C48.0917 42.076 48.3477 42.16 48.7317 42.16C48.9157 42.16 49.0917 42.148 49.2597 42.124C49.3877 42.108 49.4997 42.136 49.5957 42.208C49.6997 42.28 49.7517 42.376 49.7517 42.496C49.7517 42.64 49.7037 42.768 49.6077 42.88C49.5117 42.992 49.3917 43.056 49.2477 43.072C48.9117 43.104 48.6597 43.12 48.4917 43.12C47.7557 43.12 47.2397 42.964 46.9437 42.652C46.6557 42.34 46.5117 41.776 46.5117 40.96V38.068C46.5117 37.996 46.4757 37.96 46.4037 37.96H45.7317ZM51.5772 34.66C51.5772 34.476 51.6412 34.32 51.7692 34.192C51.9052 34.064 52.0612 34 52.2372 34C52.4132 34 52.5652 34.064 52.6932 34.192C52.8292 34.32 52.8972 34.476 52.8972 34.66C52.8972 34.844 52.8292 35 52.6932 35.128C52.5652 35.256 52.4132 35.32 52.2372 35.32C52.0612 35.32 51.9052 35.256 51.7692 35.128C51.6412 35 51.5772 34.844 51.5772 34.66ZM52.6932 42.808C52.5652 42.936 52.4132 43 52.2372 43C52.0612 43 51.9052 42.936 51.7692 42.808C51.6412 42.68 51.5772 42.524 51.5772 42.34V37.42C51.5772 37.236 51.6412 37.08 51.7692 36.952C51.9052 36.824 52.0612 36.76 52.2372 36.76C52.4132 36.76 52.5652 36.824 52.6932 36.952C52.8292 37.08 52.8972 37.236 52.8972 37.42V42.34C52.8972 42.524 52.8292 42.68 52.6932 42.808ZM55.8438 42.352L54.1758 37.408C54.1198 37.248 54.1398 37.1 54.2358 36.964C54.3398 36.828 54.4758 36.76 54.6438 36.76C54.8438 36.76 55.0238 36.82 55.1838 36.94C55.3518 37.06 55.4638 37.216 55.5198 37.408L56.9118 42.268C56.9118 42.276 56.9158 42.28 56.9238 42.28C56.9318 42.28 56.9358 42.276 56.9358 42.268L58.3398 37.396C58.3958 37.212 58.4998 37.06 58.6518 36.94C58.8118 36.82 58.9878 36.76 59.1798 36.76C59.3478 36.76 59.4758 36.828 59.5638 36.964C59.6598 37.092 59.6798 37.232 59.6238 37.384L57.9558 42.352C57.8918 42.544 57.7758 42.7 57.6078 42.82C57.4478 42.94 57.2638 43 57.0558 43H56.7438C56.5438 43 56.3598 42.94 56.1918 42.82C56.0238 42.7 55.9078 42.544 55.8438 42.352ZM62.5415 37.576C61.6295 37.576 61.1175 38.116 61.0055 39.196C60.9895 39.268 61.0215 39.304 61.1015 39.304H63.7895C63.8535 39.304 63.8855 39.268 63.8855 39.196C63.8375 38.116 63.3895 37.576 62.5415 37.576ZM62.8415 43.12C61.8415 43.12 61.0695 42.848 60.5255 42.304C59.9895 41.76 59.7215 40.952 59.7215 39.88C59.7215 38.808 59.9615 38 60.4415 37.456C60.9295 36.912 61.6295 36.64 62.5415 36.64C64.2055 36.64 65.0655 37.616 65.1215 39.568C65.1295 39.76 65.0615 39.92 64.9175 40.048C64.7735 40.176 64.6055 40.24 64.4135 40.24H61.0895C61.0255 40.24 60.9935 40.272 60.9935 40.336C61.0895 41.568 61.7455 42.184 62.9615 42.184C63.3855 42.184 63.8015 42.116 64.2095 41.98C64.3295 41.94 64.4415 41.956 64.5455 42.028C64.6495 42.1 64.7015 42.2 64.7015 42.328C64.7015 42.48 64.6535 42.616 64.5575 42.736C64.4615 42.856 64.3375 42.936 64.1855 42.976C63.7455 43.072 63.2975 43.12 62.8415 43.12ZM70.0212 42.82C69.9012 42.94 69.7532 43 69.5772 43C69.4012 43 69.2492 42.94 69.1212 42.82C69.0012 42.692 68.9412 42.54 68.9412 42.364V34.876C68.9412 34.7 69.0012 34.552 69.1212 34.432C69.2492 34.304 69.4012 34.24 69.5772 34.24C70.0012 34.24 70.3092 34.428 70.5012 34.804L72.8652 39.388C72.8652 39.396 72.8692 39.4 72.8772 39.4C72.8852 39.4 72.8892 39.396 72.8892 39.388L75.2412 34.828C75.4412 34.436 75.7612 34.24 76.2012 34.24C76.3852 34.24 76.5412 34.304 76.6692 34.432C76.7972 34.56 76.8612 34.716 76.8612 34.9V42.34C76.8612 42.524 76.7972 42.68 76.6692 42.808C76.5412 42.936 76.3852 43 76.2012 43C76.0172 43 75.8612 42.936 75.7332 42.808C75.6052 42.68 75.5412 42.524 75.5412 42.34V36.532C75.5412 36.524 75.5372 36.52 75.5292 36.52C75.5212 36.52 75.5172 36.524 75.5172 36.532L73.7412 40.06C73.5572 40.42 73.2692 40.6 72.8772 40.6C72.4852 40.6 72.1972 40.42 72.0132 40.06L70.2372 36.532C70.2372 36.524 70.2332 36.52 70.2252 36.52C70.2172 36.52 70.2132 36.524 70.2132 36.532V42.364C70.2132 42.54 70.1492 42.692 70.0212 42.82ZM81.1519 39.856C80.4959 39.856 79.9999 39.968 79.6639 40.192C79.3359 40.408 79.1719 40.704 79.1719 41.08C79.1719 41.376 79.2599 41.62 79.4359 41.812C79.6119 42.004 79.8239 42.1 80.0719 42.1C80.5999 42.1 81.0199 41.936 81.3319 41.608C81.6519 41.272 81.8119 40.816 81.8119 40.24V39.952C81.8119 39.888 81.7759 39.856 81.7039 39.856H81.1519ZM79.7719 43.12C79.2279 43.12 78.7799 42.944 78.4279 42.592C78.0839 42.24 77.9119 41.776 77.9119 41.2C77.9119 40.496 78.1799 39.952 78.7159 39.568C79.2519 39.176 80.0639 38.98 81.1519 38.98H81.7039C81.7759 38.98 81.8119 38.944 81.8119 38.872V38.74C81.8119 38.316 81.7119 38.02 81.5119 37.852C81.3119 37.684 80.9519 37.6 80.4319 37.6C79.9679 37.6 79.4159 37.696 78.7759 37.888C78.6559 37.928 78.5399 37.912 78.4279 37.84C78.3239 37.76 78.2719 37.656 78.2719 37.528C78.2719 37.368 78.3199 37.224 78.4159 37.096C78.5119 36.968 78.6359 36.888 78.7879 36.856C79.3639 36.712 79.9119 36.64 80.4319 36.64C81.4399 36.64 82.1319 36.82 82.5079 37.18C82.8839 37.54 83.0719 38.2 83.0719 39.16V42.412C83.0719 42.572 83.0119 42.712 82.8919 42.832C82.7799 42.944 82.6439 43 82.4839 43C82.3239 43 82.1839 42.944 82.0639 42.832C81.9519 42.712 81.8919 42.572 81.8839 42.412L81.8719 42.112C81.8719 42.104 81.8679 42.1 81.8599 42.1C81.8439 42.1 81.8359 42.104 81.8359 42.112C81.3719 42.784 80.6839 43.12 79.7719 43.12ZM85.4992 38.98V40.78C85.4992 41.148 85.6512 41.472 85.9552 41.752C86.2672 42.024 86.6352 42.16 87.0592 42.16C87.5392 42.16 87.9192 41.968 88.1992 41.584C88.4792 41.2 88.6192 40.632 88.6192 39.88C88.6192 38.36 88.0992 37.6 87.0592 37.6C86.6352 37.6 86.2672 37.74 85.9552 38.02C85.6512 38.292 85.4992 38.612 85.4992 38.98ZM85.3072 45.46C85.1872 45.58 85.0392 45.64 84.8632 45.64C84.6872 45.64 84.5392 45.58 84.4192 45.46C84.2992 45.34 84.2392 45.192 84.2392 45.016V37.348C84.2392 37.188 84.2952 37.052 84.4072 36.94C84.5272 36.82 84.6672 36.76 84.8272 36.76C84.9872 36.76 85.1272 36.82 85.2472 36.94C85.3672 37.052 85.4312 37.188 85.4392 37.348V37.528C85.4392 37.536 85.4432 37.54 85.4512 37.54C85.4592 37.54 85.4672 37.536 85.4752 37.528C85.7712 37.2 86.0632 36.972 86.3512 36.844C86.6392 36.708 86.9752 36.64 87.3592 36.64C88.1192 36.64 88.7272 36.924 89.1832 37.492C89.6472 38.06 89.8792 38.856 89.8792 39.88C89.8792 40.872 89.6392 41.66 89.1592 42.244C88.6872 42.828 88.0872 43.12 87.3592 43.12C86.6472 43.12 86.0392 42.864 85.5352 42.352C85.5272 42.344 85.5192 42.34 85.5112 42.34C85.5032 42.34 85.4992 42.344 85.4992 42.352V45.016C85.4992 45.192 85.4352 45.34 85.3072 45.46ZM92.787 40.36C91.971 40.16 91.395 39.908 91.059 39.604C90.731 39.292 90.567 38.904 90.567 38.44C90.567 37.88 90.767 37.44 91.167 37.12C91.575 36.8 92.175 36.64 92.967 36.64C93.479 36.64 93.995 36.696 94.515 36.808C94.659 36.84 94.775 36.92 94.863 37.048C94.959 37.168 95.007 37.304 95.007 37.456C95.007 37.584 94.955 37.684 94.851 37.756C94.747 37.828 94.635 37.844 94.515 37.804C94.011 37.668 93.535 37.6 93.087 37.6C92.247 37.6 91.827 37.84 91.827 38.32C91.827 38.56 91.907 38.756 92.067 38.908C92.227 39.06 92.507 39.184 92.907 39.28C93.827 39.496 94.447 39.756 94.767 40.06C95.087 40.356 95.247 40.796 95.247 41.38C95.247 41.924 95.035 42.352 94.611 42.664C94.195 42.968 93.587 43.12 92.787 43.12C92.267 43.12 91.747 43.052 91.227 42.916C91.083 42.876 90.967 42.796 90.879 42.676C90.791 42.548 90.747 42.408 90.747 42.256C90.747 42.136 90.795 42.04 90.891 41.968C90.995 41.896 91.103 41.88 91.215 41.92C91.711 42.08 92.195 42.16 92.667 42.16C93.547 42.16 93.987 41.9 93.987 41.38C93.987 41.132 93.899 40.932 93.723 40.78C93.547 40.62 93.235 40.48 92.787 40.36ZM101.522 39.1C100.61 38.788 99.95 38.416 99.542 37.984C99.142 37.544 98.942 37.016 98.942 36.4C98.942 35.696 99.166 35.14 99.614 34.732C100.062 34.324 100.678 34.12 101.462 34.12C102.198 34.12 102.846 34.208 103.406 34.384C103.574 34.44 103.71 34.548 103.814 34.708C103.926 34.86 103.982 35.032 103.982 35.224C103.982 35.36 103.922 35.464 103.802 35.536C103.682 35.608 103.558 35.616 103.43 35.56C102.822 35.304 102.206 35.176 101.582 35.176C101.15 35.176 100.818 35.284 100.586 35.5C100.354 35.716 100.238 36.016 100.238 36.4C100.238 36.712 100.346 36.996 100.562 37.252C100.778 37.5 101.098 37.696 101.522 37.84C102.578 38.192 103.31 38.584 103.718 39.016C104.134 39.448 104.342 39.996 104.342 40.66C104.342 41.468 104.094 42.08 103.598 42.496C103.102 42.912 102.37 43.12 101.402 43.12C100.77 43.12 100.198 43.024 99.686 42.832C99.31 42.68 99.122 42.384 99.122 41.944C99.122 41.808 99.182 41.708 99.302 41.644C99.422 41.58 99.542 41.58 99.662 41.644C100.158 41.908 100.698 42.04 101.282 42.04C102.442 42.04 103.022 41.58 103.022 40.66C103.022 40.308 102.906 40.008 102.674 39.76C102.45 39.512 102.066 39.292 101.522 39.1ZM107.795 37.576C106.883 37.576 106.371 38.116 106.259 39.196C106.243 39.268 106.275 39.304 106.355 39.304H109.043C109.107 39.304 109.139 39.268 109.139 39.196C109.091 38.116 108.643 37.576 107.795 37.576ZM108.095 43.12C107.095 43.12 106.323 42.848 105.779 42.304C105.243 41.76 104.975 40.952 104.975 39.88C104.975 38.808 105.215 38 105.695 37.456C106.183 36.912 106.883 36.64 107.795 36.64C109.459 36.64 110.319 37.616 110.375 39.568C110.383 39.76 110.315 39.92 110.171 40.048C110.027 40.176 109.859 40.24 109.667 40.24H106.343C106.279 40.24 106.247 40.272 106.247 40.336C106.343 41.568 106.999 42.184 108.215 42.184C108.639 42.184 109.055 42.116 109.463 41.98C109.583 41.94 109.695 41.956 109.799 42.028C109.903 42.1 109.955 42.2 109.955 42.328C109.955 42.48 109.907 42.616 109.811 42.736C109.715 42.856 109.591 42.936 109.439 42.976C108.999 43.072 108.551 43.12 108.095 43.12ZM112.375 42.82C112.255 42.94 112.107 43 111.931 43C111.755 43 111.607 42.94 111.487 42.82C111.367 42.7 111.307 42.552 111.307 42.376V34.624C111.307 34.448 111.367 34.3 111.487 34.18C111.607 34.06 111.755 34 111.931 34C112.107 34 112.255 34.06 112.375 34.18C112.503 34.3 112.567 34.448 112.567 34.624V39.508C112.567 39.516 112.571 39.52 112.579 39.52L112.603 39.508L114.739 37.252C115.051 36.924 115.435 36.76 115.891 36.76H116.023C116.151 36.76 116.239 36.82 116.287 36.94C116.343 37.06 116.327 37.164 116.239 37.252L113.899 39.688C113.859 39.728 113.859 39.776 113.899 39.832L116.251 42.496C116.339 42.592 116.355 42.7 116.299 42.82C116.251 42.94 116.159 43 116.023 43H115.891C115.443 43 115.067 42.828 114.763 42.484L112.603 40.012C112.595 40.004 112.587 40 112.579 40C112.571 40 112.567 40.004 112.567 40.012V42.376C112.567 42.552 112.503 42.7 112.375 42.82ZM120.899 39.88C120.899 38.36 120.347 37.6 119.243 37.6C118.139 37.6 117.587 38.36 117.587 39.88C117.587 41.4 118.139 42.16 119.243 42.16C120.347 42.16 120.899 41.4 120.899 39.88ZM121.403 42.28C120.883 42.84 120.163 43.12 119.243 43.12C118.323 43.12 117.603 42.84 117.083 42.28C116.563 41.712 116.303 40.912 116.303 39.88C116.303 38.848 116.563 38.052 117.083 37.492C117.603 36.924 118.323 36.64 119.243 36.64C120.163 36.64 120.883 36.924 121.403 37.492C121.923 38.052 122.183 38.848 122.183 39.88C122.183 40.912 121.923 41.712 121.403 42.28ZM124.533 42.808C124.405 42.936 124.253 43 124.077 43C123.901 43 123.745 42.936 123.609 42.808C123.481 42.68 123.417 42.524 123.417 42.34V34.66C123.417 34.476 123.481 34.32 123.609 34.192C123.745 34.064 123.901 34 124.077 34C124.253 34 124.405 34.064 124.533 34.192C124.669 34.32 124.737 34.476 124.737 34.66V42.34C124.737 42.524 124.669 42.68 124.533 42.808ZM129.327 39.856C128.671 39.856 128.175 39.968 127.839 40.192C127.511 40.408 127.347 40.704 127.347 41.08C127.347 41.376 127.435 41.62 127.611 41.812C127.787 42.004 127.999 42.1 128.247 42.1C128.775 42.1 129.195 41.936 129.507 41.608C129.827 41.272 129.987 40.816 129.987 40.24V39.952C129.987 39.888 129.951 39.856 129.879 39.856H129.327ZM127.947 43.12C127.403 43.12 126.955 42.944 126.603 42.592C126.259 42.24 126.087 41.776 126.087 41.2C126.087 40.496 126.355 39.952 126.891 39.568C127.427 39.176 128.239 38.98 129.327 38.98H129.879C129.951 38.98 129.987 38.944 129.987 38.872V38.74C129.987 38.316 129.887 38.02 129.687 37.852C129.487 37.684 129.127 37.6 128.607 37.6C128.143 37.6 127.591 37.696 126.951 37.888C126.831 37.928 126.715 37.912 126.603 37.84C126.499 37.76 126.447 37.656 126.447 37.528C126.447 37.368 126.495 37.224 126.591 37.096C126.687 36.968 126.811 36.888 126.963 36.856C127.539 36.712 128.087 36.64 128.607 36.64C129.615 36.64 130.307 36.82 130.683 37.18C131.059 37.54 131.247 38.2 131.247 39.16V42.412C131.247 42.572 131.187 42.712 131.067 42.832C130.955 42.944 130.819 43 130.659 43C130.499 43 130.359 42.944 130.239 42.832C130.127 42.712 130.067 42.572 130.059 42.412L130.047 42.112C130.047 42.104 130.043 42.1 130.035 42.1C130.019 42.1 130.011 42.104 130.011 42.112C129.547 42.784 128.859 43.12 127.947 43.12ZM133.543 42.82C133.423 42.94 133.275 43 133.099 43C132.923 43 132.775 42.94 132.655 42.82C132.535 42.7 132.475 42.552 132.475 42.376V34.624C132.475 34.448 132.535 34.3 132.655 34.18C132.775 34.06 132.923 34 133.099 34C133.275 34 133.423 34.06 133.543 34.18C133.671 34.3 133.735 34.448 133.735 34.624V37.528C133.735 37.536 133.739 37.54 133.747 37.54C133.755 37.54 133.763 37.536 133.771 37.528C134.331 36.936 134.959 36.64 135.655 36.64C136.383 36.64 136.915 36.844 137.251 37.252C137.587 37.652 137.755 38.328 137.755 39.28V42.388C137.755 42.556 137.695 42.7 137.575 42.82C137.455 42.94 137.311 43 137.143 43C136.975 43 136.831 42.94 136.711 42.82C136.591 42.7 136.531 42.556 136.531 42.388V39.52C136.531 38.776 136.443 38.28 136.267 38.032C136.091 37.784 135.767 37.66 135.295 37.66C134.927 37.66 134.575 37.836 134.239 38.188C133.903 38.532 133.735 38.896 133.735 39.28V42.376C133.735 42.552 133.671 42.7 133.543 42.82ZM143.887 42.352L141.319 34.888C141.263 34.728 141.283 34.58 141.379 34.444C141.483 34.308 141.619 34.24 141.787 34.24H141.835C142.043 34.24 142.227 34.3 142.387 34.42C142.555 34.54 142.667 34.696 142.723 34.888L144.835 41.668C144.835 41.676 144.839 41.68 144.847 41.68C144.855 41.68 144.859 41.676 144.859 41.668L146.971 34.888C147.035 34.696 147.147 34.54 147.307 34.42C147.475 34.3 147.659 34.24 147.859 34.24C148.027 34.24 148.159 34.308 148.255 34.444C148.359 34.58 148.383 34.728 148.327 34.888L145.759 42.352C145.695 42.544 145.579 42.7 145.411 42.82C145.251 42.94 145.067 43 144.859 43H144.787C144.587 43 144.403 42.94 144.235 42.82C144.067 42.7 143.951 42.544 143.887 42.352ZM152.282 39.88C152.282 38.36 151.73 37.6 150.626 37.6C149.522 37.6 148.97 38.36 148.97 39.88C148.97 41.4 149.522 42.16 150.626 42.16C151.73 42.16 152.282 41.4 152.282 39.88ZM152.786 42.28C152.266 42.84 151.546 43.12 150.626 43.12C149.706 43.12 148.986 42.84 148.466 42.28C147.946 41.712 147.686 40.912 147.686 39.88C147.686 38.848 147.946 38.052 148.466 37.492C148.986 36.924 149.706 36.64 150.626 36.64C151.546 36.64 152.266 36.924 152.786 37.492C153.306 38.052 153.566 38.848 153.566 39.88C153.566 40.912 153.306 41.712 152.786 42.28ZM155.508 42.82C155.388 42.94 155.24 43 155.064 43C154.888 43 154.74 42.94 154.62 42.82C154.5 42.7 154.44 42.552 154.44 42.376V34.624C154.44 34.448 154.5 34.3 154.62 34.18C154.74 34.06 154.888 34 155.064 34C155.24 34 155.388 34.06 155.508 34.18C155.636 34.3 155.7 34.448 155.7 34.624V39.508C155.7 39.516 155.704 39.52 155.712 39.52L155.736 39.508L157.872 37.252C158.184 36.924 158.568 36.76 159.024 36.76H159.156C159.284 36.76 159.372 36.82 159.42 36.94C159.476 37.06 159.46 37.164 159.372 37.252L157.032 39.688C156.992 39.728 156.992 39.776 157.032 39.832L159.384 42.496C159.472 42.592 159.488 42.7 159.432 42.82C159.384 42.94 159.292 43 159.156 43H159.024C158.576 43 158.2 42.828 157.896 42.484L155.736 40.012C155.728 40.004 155.72 40 155.712 40C155.704 40 155.7 40.004 155.7 40.012V42.376C155.7 42.552 155.636 42.7 155.508 42.82ZM162.972 39.856C162.316 39.856 161.82 39.968 161.484 40.192C161.156 40.408 160.992 40.704 160.992 41.08C160.992 41.376 161.08 41.62 161.256 41.812C161.432 42.004 161.644 42.1 161.892 42.1C162.42 42.1 162.84 41.936 163.152 41.608C163.472 41.272 163.632 40.816 163.632 40.24V39.952C163.632 39.888 163.596 39.856 163.524 39.856H162.972ZM161.592 43.12C161.048 43.12 160.6 42.944 160.248 42.592C159.904 42.24 159.732 41.776 159.732 41.2C159.732 40.496 160 39.952 160.536 39.568C161.072 39.176 161.884 38.98 162.972 38.98H163.524C163.596 38.98 163.632 38.944 163.632 38.872V38.74C163.632 38.316 163.532 38.02 163.332 37.852C163.132 37.684 162.772 37.6 162.252 37.6C161.788 37.6 161.236 37.696 160.596 37.888C160.476 37.928 160.36 37.912 160.248 37.84C160.144 37.76 160.092 37.656 160.092 37.528C160.092 37.368 160.14 37.224 160.236 37.096C160.332 36.968 160.456 36.888 160.608 36.856C161.184 36.712 161.732 36.64 162.252 36.64C163.26 36.64 163.952 36.82 164.328 37.18C164.704 37.54 164.892 38.2 164.892 39.16V42.412C164.892 42.572 164.832 42.712 164.712 42.832C164.6 42.944 164.464 43 164.304 43C164.144 43 164.004 42.944 163.884 42.832C163.772 42.712 163.712 42.572 163.704 42.412L163.692 42.112C163.692 42.104 163.688 42.1 163.68 42.1C163.664 42.1 163.656 42.104 163.656 42.112C163.192 42.784 162.504 43.12 161.592 43.12ZM167.982 40.36C167.166 40.16 166.59 39.908 166.254 39.604C165.926 39.292 165.762 38.904 165.762 38.44C165.762 37.88 165.962 37.44 166.362 37.12C166.77 36.8 167.37 36.64 168.162 36.64C168.674 36.64 169.19 36.696 169.71 36.808C169.854 36.84 169.97 36.92 170.058 37.048C170.154 37.168 170.202 37.304 170.202 37.456C170.202 37.584 170.15 37.684 170.046 37.756C169.942 37.828 169.83 37.844 169.71 37.804C169.206 37.668 168.73 37.6 168.282 37.6C167.442 37.6 167.022 37.84 167.022 38.32C167.022 38.56 167.102 38.756 167.262 38.908C167.422 39.06 167.702 39.184 168.102 39.28C169.022 39.496 169.642 39.756 169.962 40.06C170.282 40.356 170.442 40.796 170.442 41.38C170.442 41.924 170.23 42.352 169.806 42.664C169.39 42.968 168.782 43.12 167.982 43.12C167.462 43.12 166.942 43.052 166.422 42.916C166.278 42.876 166.162 42.796 166.074 42.676C165.986 42.548 165.942 42.408 165.942 42.256C165.942 42.136 165.99 42.04 166.086 41.968C166.19 41.896 166.298 41.88 166.41 41.92C166.906 42.08 167.39 42.16 167.862 42.16C168.742 42.16 169.182 41.9 169.182 41.38C169.182 41.132 169.094 40.932 168.918 40.78C168.742 40.62 168.43 40.48 167.982 40.36ZM171.909 34.66C171.909 34.476 171.973 34.32 172.101 34.192C172.237 34.064 172.393 34 172.569 34C172.745 34 172.897 34.064 173.025 34.192C173.161 34.32 173.229 34.476 173.229 34.66C173.229 34.844 173.161 35 173.025 35.128C172.897 35.256 172.745 35.32 172.569 35.32C172.393 35.32 172.237 35.256 172.101 35.128C171.973 35 171.909 34.844 171.909 34.66ZM173.025 42.808C172.897 42.936 172.745 43 172.569 43C172.393 43 172.237 42.936 172.101 42.808C171.973 42.68 171.909 42.524 171.909 42.34V37.42C171.909 37.236 171.973 37.08 172.101 36.952C172.237 36.824 172.393 36.76 172.569 36.76C172.745 36.76 172.897 36.824 173.025 36.952C173.161 37.08 173.229 37.236 173.229 37.42V42.34C173.229 42.524 173.161 42.68 173.025 42.808ZM178.812 43C178.628 43 178.468 42.932 178.332 42.796C178.196 42.66 178.128 42.5 178.128 42.316V34.924C178.128 34.74 178.196 34.58 178.332 34.444C178.468 34.308 178.628 34.24 178.812 34.24H178.884C179.068 34.24 179.228 34.308 179.364 34.444C179.5 34.58 179.568 34.74 179.568 34.924V42.316C179.568 42.5 179.5 42.66 179.364 42.796C179.228 42.932 179.068 43 178.884 43H178.812ZM182.656 35.368V38.524C182.656 38.588 182.692 38.628 182.764 38.644C183.172 38.7 183.536 38.728 183.856 38.728C184.56 38.728 185.1 38.576 185.476 38.272C185.852 37.96 186.04 37.516 186.04 36.94C186.04 36.364 185.856 35.928 185.488 35.632C185.12 35.328 184.576 35.176 183.856 35.176C183.472 35.176 183.108 35.2 182.764 35.248C182.692 35.264 182.656 35.304 182.656 35.368ZM182.464 42.808C182.336 42.936 182.18 43 181.996 43C181.812 43 181.656 42.936 181.528 42.808C181.4 42.68 181.336 42.524 181.336 42.34V34.984C181.336 34.792 181.4 34.62 181.528 34.468C181.656 34.316 181.816 34.232 182.008 34.216C182.688 34.152 183.344 34.12 183.976 34.12C185.08 34.12 185.916 34.356 186.484 34.828C187.052 35.292 187.336 35.956 187.336 36.82C187.336 38.78 186.216 39.76 183.976 39.76C183.504 39.76 183.096 39.744 182.752 39.712C182.688 39.712 182.656 39.744 182.656 39.808V42.34C182.656 42.524 182.592 42.68 182.464 42.808ZM189.527 38.956V41.872C189.527 41.936 189.559 41.976 189.623 41.992C189.935 42.04 190.263 42.064 190.607 42.064C191.359 42.064 191.911 41.924 192.263 41.644C192.615 41.364 192.791 40.936 192.791 40.36C192.791 39.84 192.579 39.46 192.155 39.22C191.731 38.972 191.015 38.848 190.007 38.848H189.635C189.563 38.848 189.527 38.884 189.527 38.956ZM189.527 35.368V37.708C189.527 37.78 189.563 37.816 189.635 37.816H190.007C190.887 37.816 191.519 37.704 191.903 37.48C192.295 37.256 192.491 36.916 192.491 36.46C192.491 36.02 192.335 35.696 192.023 35.488C191.711 35.28 191.199 35.176 190.487 35.176C190.183 35.176 189.895 35.2 189.623 35.248C189.559 35.264 189.527 35.304 189.527 35.368ZM188.891 43.036C188.691 43.012 188.527 42.928 188.399 42.784C188.271 42.632 188.207 42.456 188.207 42.256V34.984C188.207 34.784 188.271 34.612 188.399 34.468C188.527 34.316 188.691 34.228 188.891 34.204C189.371 34.148 189.903 34.12 190.487 34.12C192.647 34.12 193.727 34.84 193.727 36.28C193.727 36.76 193.563 37.184 193.235 37.552C192.907 37.912 192.475 38.144 191.939 38.248C191.931 38.248 191.927 38.252 191.927 38.26C191.927 38.268 191.931 38.272 191.939 38.272C192.611 38.376 193.135 38.624 193.511 39.016C193.895 39.408 194.087 39.896 194.087 40.48C194.087 42.24 192.927 43.12 190.607 43.12C189.975 43.12 189.403 43.092 188.891 43.036Z" fill="white"/>
</svg>
