<svg width="182" height="42" viewBox="0 0 182 42" fill="none" xmlns="http://www.w3.org/2000/svg">
<g clip-path="url(#clip0_42_2136)">
<path d="M59.6085 10.3506C59.051 9.54329 58.2053 9.13965 57.0713 9.13965C55.9372 9.13965 55.0819 9.54329 54.5053 10.3506C53.9478 11.1387 53.6691 12.3976 53.6691 14.1275C53.6691 15.8574 53.9478 17.126 54.5053 17.9333C55.0819 18.7214 55.9372 19.1154 57.0713 19.1154C58.2053 19.1154 59.051 18.7214 59.6085 17.9333C60.1851 17.126 60.4734 15.8574 60.4734 14.1275C60.4734 12.3976 60.1851 11.1387 59.6085 10.3506ZM62.434 19.8939C61.1654 21.2393 59.3778 21.9121 57.0713 21.9121C54.7647 21.9121 52.9675 21.2393 51.6797 19.8939C50.4112 18.5291 49.7769 16.6071 49.7769 14.1275C49.7769 11.648 50.4112 9.73547 51.6797 8.39002C52.9675 7.02532 54.7647 6.34297 57.0713 6.34297C59.3778 6.34297 61.1654 7.02532 62.434 8.39002C63.7218 9.73547 64.3657 11.648 64.3657 14.1275C64.3657 16.6071 63.7218 18.5291 62.434 19.8939ZM66.7033 21.6238C66.338 21.6238 66.069 21.47 65.896 21.1625C65.723 20.8549 65.7326 20.5474 65.9249 20.2398L69.6153 14.1852C69.7114 14.0507 69.7114 13.9161 69.6153 13.7815L66.069 8.01521C65.8767 7.70767 65.8672 7.40013 66.0402 7.0926C66.2132 6.78506 66.4822 6.63129 66.8475 6.63129H67.7701C68.2698 6.63129 68.7311 6.76583 69.154 7.03493C69.596 7.2848 69.9325 7.63078 70.1631 8.07287L72.1237 11.8498C72.1237 11.869 72.1332 11.8787 72.1525 11.8787C72.1717 11.8787 72.1813 11.869 72.1813 11.8498L74.1419 8.07287C74.3725 7.63078 74.6992 7.2848 75.1222 7.03493C75.545 6.76583 76.0159 6.63129 76.5349 6.63129H77.3422C77.7074 6.63129 77.9765 6.78506 78.1495 7.0926C78.3225 7.40013 78.3128 7.70767 78.1207 8.01521L74.5744 13.7815C74.4782 13.9161 74.4782 14.0507 74.5744 14.1852L78.2648 20.2398C78.457 20.5474 78.4666 20.8549 78.2936 21.1625C78.1207 21.47 77.8515 21.6238 77.4864 21.6238H76.5637C76.0448 21.6238 75.5738 21.4988 75.151 21.249C74.7281 20.9798 74.4014 20.6243 74.1707 20.1822L72.066 16.1457C72.066 16.1266 72.0564 16.1169 72.0372 16.1169C72.0179 16.1169 72.0083 16.1266 72.0083 16.1457L69.9036 20.1822C69.673 20.6243 69.3365 20.9798 68.8945 21.249C68.4716 21.4988 68.0103 21.6238 67.5106 21.6238H66.7033ZM84.8562 12.167V16.0881C84.8562 16.8569 85.183 17.5393 85.8365 18.1351C86.5092 18.731 87.2877 19.0289 88.1718 19.0289C89.1906 19.0289 89.9979 18.6156 90.5936 17.7892C91.1892 16.9627 91.4874 15.7421 91.4874 14.1275C91.4874 10.8599 90.3819 9.22614 88.1718 9.22614C87.2877 9.22614 86.5092 9.5241 85.8365 10.1199C85.183 10.7157 84.8562 11.3982 84.8562 12.167ZM82.6938 27.9667C82.2518 27.9667 81.8673 27.8034 81.5405 27.4766C81.2138 27.1498 81.0504 26.7654 81.0504 26.3233V8.2747C81.0504 7.83261 81.2138 7.44819 81.5405 7.12143C81.8673 6.79467 82.2518 6.63129 82.6938 6.63129H83.0398C83.5011 6.63129 83.8952 6.79467 84.2219 7.12143C84.5487 7.42896 84.7217 7.81339 84.7409 8.2747V8.47652C84.7409 8.49574 84.7505 8.50535 84.7697 8.50535C84.789 8.50535 84.8082 8.49574 84.8274 8.47652C85.5193 7.70767 86.2113 7.15987 86.9032 6.83311C87.5952 6.50635 88.4025 6.34297 89.3251 6.34297C91.1315 6.34297 92.5731 7.02532 93.6498 8.39002C94.7264 9.73547 95.2643 11.648 95.2643 14.1275C95.2643 16.5302 94.6976 18.4331 93.5633 19.8362C92.4487 21.2201 91.036 21.9121 89.3251 21.9121C87.6529 21.9121 86.2017 21.3066 84.9715 20.0957C84.9523 20.0765 84.9331 20.0669 84.9139 20.0669C84.8947 20.0669 84.885 20.0765 84.885 20.0957V26.3233C84.885 26.7654 84.7217 27.1498 84.3949 27.4766C84.0874 27.8034 83.7126 27.9667 83.2704 27.9667H82.6938ZM100.507 21.6238C100.065 21.6238 99.681 21.4604 99.3539 21.1336C99.0269 20.8068 98.8638 20.4225 98.8638 19.9804V1.64341C98.8638 1.20132 99.0269 0.816899 99.3539 0.490139C99.681 0.16338 100.065 0 100.507 0H101.257C101.699 0 102.083 0.16338 102.41 0.490139C102.737 0.816899 102.9 1.20132 102.9 1.64341V19.9804C102.9 20.4225 102.737 20.8068 102.41 21.1336C102.083 21.4604 101.699 21.6238 101.257 21.6238H100.507ZM116.195 10.3506C115.638 9.54329 114.792 9.13965 113.658 9.13965C112.525 9.13965 111.669 9.54329 111.092 10.3506C110.535 11.1387 110.256 12.3976 110.256 14.1275C110.256 15.8574 110.535 17.126 111.092 17.9333C111.669 18.7214 112.525 19.1154 113.658 19.1154C114.792 19.1154 115.638 18.7214 116.195 17.9333C116.772 17.126 117.06 15.8574 117.06 14.1275C117.06 12.3976 116.772 11.1387 116.195 10.3506ZM119.021 19.8939C117.752 21.2393 115.965 21.9121 113.658 21.9121C111.352 21.9121 109.555 21.2393 108.267 19.8939C106.998 18.5291 106.364 16.6071 106.364 14.1275C106.364 11.648 106.998 9.73547 108.267 8.39002C109.555 7.02532 111.352 6.34297 113.658 6.34297C115.965 6.34297 117.752 7.02532 119.021 8.39002C120.309 9.73547 120.952 11.648 120.952 14.1275C120.952 16.6071 120.309 18.5291 119.021 19.8939ZM125.204 21.6238C124.763 21.6238 124.378 21.4604 124.051 21.1336C123.725 20.8068 123.561 20.4225 123.561 19.9804V8.2747C123.561 7.83261 123.725 7.44819 124.051 7.12143C124.378 6.79467 124.763 6.63129 125.204 6.63129H125.781C126.223 6.63129 126.608 6.79467 126.934 7.12143C127.261 7.44819 127.424 7.83261 127.424 8.2747V9.48563C127.424 9.50482 127.434 9.51446 127.453 9.51446C127.492 9.51446 127.511 9.50482 127.511 9.48563C128.068 8.71678 128.799 8.09209 129.702 7.61157C130.606 7.11181 131.596 6.80428 132.672 6.68895C133.075 6.65051 133.421 6.78506 133.71 7.0926C133.998 7.38091 134.142 7.72689 134.142 8.13054C134.142 8.53418 133.998 8.88016 133.71 9.16848C133.421 9.45679 133.075 9.62014 132.672 9.65862C129.27 9.92774 127.568 11.6576 127.568 14.8483V19.9804C127.568 20.4225 127.405 20.8068 127.078 21.1336C126.752 21.4604 126.367 21.6238 125.925 21.6238H125.204ZM142.737 9.02432C141.756 9.02432 140.997 9.303 140.459 9.86044C139.94 10.3986 139.613 11.2732 139.479 12.4841C139.479 12.6379 139.555 12.7148 139.709 12.7148H145.36C145.513 12.7148 145.591 12.6379 145.591 12.4841C145.513 10.1776 144.562 9.02432 142.737 9.02432ZM143.457 21.9121C140.939 21.9121 138.997 21.2586 137.633 19.9515C136.287 18.6253 135.615 16.6839 135.615 14.1275C135.615 11.5903 136.221 9.65862 137.432 8.33236C138.642 7.0061 140.391 6.34297 142.679 6.34297C146.946 6.34297 149.137 8.76483 149.253 13.6086C149.271 14.0699 149.108 14.4543 148.762 14.7618C148.416 15.0693 148.013 15.2231 147.551 15.2231H139.68C139.507 15.2231 139.44 15.3096 139.479 15.4826C139.613 16.7704 140.035 17.7123 140.747 18.3081C141.477 18.8848 142.535 19.1731 143.919 19.1731C144.784 19.1731 145.744 19.0289 146.802 18.7406C147.148 18.6445 147.465 18.7021 147.753 18.9136C148.061 19.125 148.215 19.4134 148.215 19.7785C148.215 20.2207 148.079 20.6147 147.811 20.9606C147.561 21.2874 147.224 21.4892 146.802 21.5661C145.725 21.7968 144.611 21.9121 143.457 21.9121Z" fill="white"/>
<path fill-rule="evenodd" clip-rule="evenodd" d="M40.4443 26.1287C40.1408 26.1287 39.8695 25.9459 39.7645 25.6708L30.6783 1.84295C30.5729 1.56689 30.6576 1.2567 30.8901 1.06666C31.1225 0.87661 31.4531 0.847271 31.7175 0.993228L40.5445 5.40595L49.1711 0.993228C49.4355 0.847271 49.7661 0.87661 49.9986 1.06666C50.231 1.2567 50.3157 1.56689 50.2104 1.84295L41.1242 25.6708C41.0192 25.9459 40.7478 26.1287 40.4443 26.1287ZM40.4443 23.404C40.2216 23.527 40.667 23.527 40.4443 23.404V23.404Z" fill="#D21284"/>
<path d="M8.49885 38.7426C8.33306 38.7426 8.1889 38.6813 8.06637 38.5588C7.94384 38.4362 7.88257 38.2921 7.88257 38.1263V31.4662C7.88257 31.3004 7.94384 31.1562 8.06637 31.0337C8.1889 30.9112 8.33306 30.8499 8.49885 30.8499H8.56372C8.7295 30.8499 8.87366 30.9112 8.99619 31.0337C9.11869 31.1562 9.17996 31.3004 9.17996 31.4662V38.1263C9.17996 38.2921 9.11869 38.4362 8.99619 38.5588C8.87366 38.6813 8.7295 38.7426 8.56372 38.7426H8.49885ZM11.6378 38.5804C11.5297 38.6885 11.3963 38.7426 11.2377 38.7426C11.0792 38.7426 10.9422 38.6885 10.8269 38.5804C10.7188 38.4723 10.6647 38.3389 10.6647 38.1804V33.6502C10.6647 33.506 10.7152 33.3835 10.8161 33.2826C10.9242 33.1745 11.0503 33.1204 11.1945 33.1204C11.3386 33.1204 11.4612 33.1745 11.5621 33.2826C11.6702 33.3835 11.7279 33.506 11.7351 33.6502L11.7459 33.8124C11.7459 33.8196 11.7495 33.8232 11.7567 33.8232C11.7639 33.8232 11.7711 33.8196 11.7783 33.8124C12.2901 33.279 12.8739 33.0123 13.5298 33.0123C14.1858 33.0123 14.6651 33.1997 14.9678 33.5745C15.2706 33.9421 15.4219 34.5476 15.4219 35.3909V38.1912C15.4219 38.3425 15.3679 38.4723 15.2597 38.5804C15.1516 38.6885 15.0219 38.7426 14.8705 38.7426C14.7192 38.7426 14.5858 38.6885 14.4705 38.5804C14.3624 38.4723 14.3083 38.3425 14.3083 38.1912V35.5531C14.3083 34.9044 14.229 34.4647 14.0704 34.234C13.9119 33.9962 13.6236 33.8772 13.2055 33.8772C12.8667 33.8772 12.546 34.0286 12.2432 34.3313C11.9477 34.6269 11.7999 34.944 11.7999 35.2828V38.1804C11.7999 38.3389 11.7459 38.4723 11.6378 38.5804ZM16.4264 34.2016C16.3038 34.2016 16.1993 34.1583 16.1128 34.0718C16.0335 33.9854 15.9939 33.8844 15.9939 33.7691C15.9939 33.6538 16.0335 33.5529 16.1128 33.4664C16.1993 33.3799 16.3038 33.3366 16.4264 33.3366H17.0318C17.0967 33.3366 17.1291 33.3042 17.1291 33.2393V31.8446C17.1291 31.686 17.1832 31.5527 17.2913 31.4446C17.3994 31.3364 17.5328 31.2824 17.6913 31.2824C17.8499 31.2824 17.9833 31.3364 18.0914 31.4446C18.2067 31.5527 18.2644 31.686 18.2644 31.8446V33.2393C18.2644 33.3042 18.2968 33.3366 18.3617 33.3366H19.778C19.9006 33.3366 20.0015 33.3799 20.0808 33.4664C20.1673 33.5529 20.2105 33.6538 20.2105 33.7691C20.2105 33.8844 20.1673 33.9854 20.0808 34.0718C20.0015 34.1583 19.9006 34.2016 19.778 34.2016H18.3617C18.2968 34.2016 18.2644 34.234 18.2644 34.2989V36.7964C18.2644 37.2866 18.322 37.6073 18.4374 37.7587C18.5527 37.9101 18.7833 37.9857 19.1293 37.9857C19.2951 37.9857 19.4537 37.9749 19.605 37.9533C19.7204 37.9389 19.8213 37.9641 19.9078 38.029C20.0015 38.0939 20.0483 38.1804 20.0483 38.2885C20.0483 38.4182 20.0051 38.5335 19.9186 38.6345C19.8321 38.7354 19.724 38.793 19.5942 38.8074C19.2915 38.8363 19.0645 38.8507 18.9131 38.8507C18.25 38.8507 17.785 38.7101 17.5184 38.429C17.2589 38.1479 17.1291 37.6398 17.1291 36.9046V34.2989C17.1291 34.234 17.0967 34.2016 17.0318 34.2016H16.4264ZM23.3715 33.8556C22.5498 33.8556 22.0884 34.3421 21.9875 35.3152C21.9731 35.3801 22.0019 35.4125 22.074 35.4125H24.4959C24.5536 35.4125 24.5824 35.3801 24.5824 35.3152C24.5391 34.3421 24.1355 33.8556 23.3715 33.8556ZM23.6418 38.8507C22.7408 38.8507 22.0452 38.6056 21.5551 38.1155C21.0721 37.6254 20.8307 36.8974 20.8307 35.9315C20.8307 34.9656 21.0469 34.2376 21.4794 33.7475C21.9191 33.2574 22.5498 33.0123 23.3715 33.0123C24.8707 33.0123 25.6456 33.8916 25.696 35.6504C25.7032 35.8234 25.6419 35.9675 25.5122 36.0829C25.3825 36.1982 25.2311 36.2558 25.0581 36.2558H22.0632C22.0056 36.2558 21.9767 36.2847 21.9767 36.3423C22.0632 37.4524 22.6543 38.0074 23.7499 38.0074C24.1319 38.0074 24.5067 37.9461 24.8743 37.8236C24.9824 37.7875 25.0833 37.8019 25.177 37.8668C25.2707 37.9317 25.3176 38.0218 25.3176 38.1371C25.3176 38.2741 25.2743 38.3966 25.1878 38.5047C25.1014 38.6128 24.9896 38.6849 24.8527 38.721C24.4562 38.8075 24.0526 38.8507 23.6418 38.8507ZM27.4975 38.5696C27.3822 38.6849 27.2417 38.7426 27.0759 38.7426C26.9101 38.7426 26.7695 38.6849 26.6542 38.5696C26.5389 38.4543 26.4812 38.3137 26.4812 38.1479V33.6826C26.4812 33.524 26.5353 33.3907 26.6434 33.2826C26.7515 33.1745 26.8849 33.1204 27.0434 33.1204C27.202 33.1204 27.3354 33.1745 27.4435 33.2826C27.5588 33.3907 27.6165 33.524 27.6165 33.6826V34.1908C27.6165 34.198 27.6201 34.2016 27.6273 34.2016C27.6417 34.2016 27.6489 34.198 27.6489 34.1908C27.8651 33.8953 28.1535 33.6538 28.5139 33.4664C28.8743 33.2718 29.2671 33.16 29.6923 33.1312C29.8221 33.124 29.9302 33.1636 30.0167 33.2501C30.1104 33.3366 30.1573 33.4448 30.1573 33.5745C30.1573 33.7042 30.1104 33.816 30.0167 33.9097C29.9302 33.9962 29.8221 34.043 29.6923 34.0502C29.0004 34.0791 28.4886 34.2592 28.1571 34.5908C27.8327 34.9152 27.6705 35.3981 27.6705 36.0396V38.1479C27.6705 38.3137 27.6129 38.4543 27.4975 38.5696ZM33.3677 35.9099C32.7766 35.9099 32.3297 36.0108 32.027 36.2126C31.7315 36.4072 31.5837 36.6739 31.5837 37.0127C31.5837 37.2794 31.663 37.4992 31.8216 37.6722C31.9801 37.8452 32.1712 37.9317 32.3946 37.9317C32.8703 37.9317 33.2487 37.7839 33.5298 37.4884C33.8182 37.1857 33.9623 36.7748 33.9623 36.2558V35.9964C33.9623 35.9387 33.9299 35.9099 33.865 35.9099H33.3677ZM32.1243 38.8507C31.6342 38.8507 31.2305 38.6921 30.9134 38.375C30.6034 38.0578 30.4485 37.6398 30.4485 37.1208C30.4485 36.4865 30.6899 35.9964 31.1729 35.6504C31.6558 35.2972 32.3874 35.1206 33.3677 35.1206H33.865C33.9299 35.1206 33.9623 35.0882 33.9623 35.0233V34.9044C33.9623 34.5223 33.8722 34.2556 33.692 34.1043C33.5118 33.9529 33.1875 33.8772 32.719 33.8772C32.3009 33.8772 31.8036 33.9637 31.2269 34.1367C31.1188 34.1728 31.0143 34.1583 30.9134 34.0935C30.8197 34.0214 30.7728 33.9277 30.7728 33.8124C30.7728 33.6682 30.8161 33.5385 30.9026 33.4231C30.9891 33.3078 31.1008 33.2357 31.2377 33.2069C31.7567 33.0772 32.2504 33.0123 32.719 33.0123C33.6272 33.0123 34.2506 33.1745 34.5894 33.4988C34.9282 33.8232 35.0976 34.4178 35.0976 35.2828V38.2128C35.0976 38.357 35.0435 38.4831 34.9354 38.5912C34.8345 38.6921 34.7119 38.7426 34.5678 38.7426C34.4236 38.7426 34.2975 38.6921 34.1894 38.5912C34.0885 38.4831 34.0344 38.357 34.0272 38.2128L34.0164 37.9425C34.0164 37.9353 34.0128 37.9317 34.0056 37.9317C33.9912 37.9317 33.9839 37.9353 33.9839 37.9425C33.5659 38.548 32.946 38.8507 32.1243 38.8507ZM38.4739 38.8507C37.6089 38.8507 36.9422 38.6056 36.4737 38.1155C36.0051 37.6181 35.7709 36.8901 35.7709 35.9315C35.7709 34.9873 35.9979 34.2665 36.452 33.7691C36.9061 33.2646 37.544 33.0123 38.3657 33.0123C38.7477 33.0123 39.1118 33.0375 39.4577 33.088C39.5947 33.1096 39.7064 33.1745 39.7929 33.2826C39.8866 33.3907 39.9335 33.5168 39.9335 33.661C39.9335 33.7835 39.883 33.8808 39.7821 33.9529C39.6884 34.025 39.5803 34.0466 39.4577 34.0178C39.1045 33.9385 38.7694 33.8989 38.4522 33.8989C37.9549 33.8989 37.5801 34.061 37.3278 34.3854C37.0827 34.7097 36.9602 35.2251 36.9602 35.9315C36.9602 36.6523 37.0899 37.1713 37.3494 37.4884C37.6161 37.8055 38.0197 37.9641 38.5603 37.9641C38.8991 37.9641 39.2235 37.9173 39.5334 37.8236C39.6487 37.7875 39.7533 37.8055 39.847 37.8776C39.9407 37.9425 39.9875 38.0326 39.9875 38.1479C39.9875 38.2921 39.9407 38.4218 39.847 38.5372C39.7533 38.6525 39.6379 38.7246 39.501 38.7534C39.155 38.8183 38.8126 38.8507 38.4739 38.8507ZM41.2036 34.2016C41.081 34.2016 40.9765 34.1583 40.89 34.0718C40.8107 33.9854 40.7711 33.8844 40.7711 33.7691C40.7711 33.6538 40.8107 33.5529 40.89 33.4664C40.9765 33.3799 41.081 33.3366 41.2036 33.3366H41.809C41.8739 33.3366 41.9064 33.3042 41.9064 33.2393V31.8446C41.9064 31.686 41.9604 31.5527 42.0685 31.4446C42.1767 31.3364 42.31 31.2824 42.4686 31.2824C42.6271 31.2824 42.7605 31.3364 42.8686 31.4446C42.9839 31.5527 43.0416 31.686 43.0416 31.8446V33.2393C43.0416 33.3042 43.074 33.3366 43.1389 33.3366H44.5553C44.6778 33.3366 44.7787 33.3799 44.858 33.4664C44.9445 33.5529 44.9877 33.6538 44.9877 33.7691C44.9877 33.8844 44.9445 33.9854 44.858 34.0718C44.7787 34.1583 44.6778 34.2016 44.5553 34.2016H43.1389C43.074 34.2016 43.0416 34.234 43.0416 34.2989V36.7964C43.0416 37.2866 43.0993 37.6073 43.2146 37.7587C43.3299 37.9101 43.5606 37.9857 43.9065 37.9857C44.0723 37.9857 44.2309 37.9749 44.3823 37.9533C44.4976 37.9389 44.5985 37.9641 44.685 38.029C44.7787 38.0939 44.8256 38.1804 44.8256 38.2885C44.8256 38.4182 44.7823 38.5335 44.6958 38.6345C44.6093 38.7354 44.5012 38.793 44.3715 38.8074C44.0687 38.8363 43.8417 38.8507 43.6903 38.8507C43.0272 38.8507 42.5623 38.7101 42.2956 38.429C42.0361 38.1479 41.9064 37.6398 41.9064 36.9046V34.2989C41.9064 34.234 41.8739 34.2016 41.809 34.2016H41.2036ZM46.4703 31.2283C46.4703 31.0625 46.528 30.922 46.6433 30.8067C46.7658 30.6913 46.9064 30.6337 47.065 30.6337C47.2235 30.6337 47.3605 30.6913 47.4758 30.8067C47.5984 30.922 47.6596 31.0625 47.6596 31.2283C47.6596 31.3941 47.5984 31.5347 47.4758 31.65C47.3605 31.7653 47.2235 31.823 47.065 31.823C46.9064 31.823 46.7658 31.7653 46.6433 31.65C46.528 31.5347 46.4703 31.3941 46.4703 31.2283ZM47.4758 38.5696C47.3605 38.6849 47.2235 38.7426 47.065 38.7426C46.9064 38.7426 46.7658 38.6849 46.6433 38.5696C46.528 38.4543 46.4703 38.3137 46.4703 38.1479V33.7151C46.4703 33.5493 46.528 33.4087 46.6433 33.2934C46.7658 33.1781 46.9064 33.1204 47.065 33.1204C47.2235 33.1204 47.3605 33.1781 47.4758 33.2934C47.5984 33.4087 47.6596 33.5493 47.6596 33.7151V38.1479C47.6596 38.3137 47.5984 38.4543 47.4758 38.5696ZM50.3145 38.1587L48.8116 33.7042C48.7612 33.5601 48.7792 33.4267 48.8657 33.3042C48.9594 33.1817 49.0819 33.1204 49.2333 33.1204C49.4135 33.1204 49.5757 33.1745 49.7198 33.2826C49.8712 33.3907 49.9721 33.5313 50.0226 33.7042L51.2767 38.0831C51.2767 38.0903 51.2803 38.0939 51.2876 38.0939C51.2948 38.0939 51.2984 38.0903 51.2984 38.0831L52.5634 33.6934C52.6138 33.5276 52.7075 33.3907 52.8445 33.2826C52.9886 33.1745 53.1472 33.1204 53.3202 33.1204C53.4715 33.1204 53.5869 33.1817 53.6662 33.3042C53.7527 33.4195 53.7707 33.5457 53.7202 33.6826L52.2174 38.1587C52.1597 38.3317 52.0552 38.4723 51.9038 38.5804C51.7597 38.6885 51.5939 38.7426 51.4065 38.7426H51.1254C50.9452 38.7426 50.7794 38.6885 50.628 38.5804C50.4767 38.4723 50.3721 38.3317 50.3145 38.1587ZM56.349 33.8556C55.5273 33.8556 55.066 34.3421 54.9651 35.3152C54.9507 35.3801 54.9795 35.4125 55.0516 35.4125H57.4735C57.5311 35.4125 57.56 35.3801 57.56 35.3152C57.5167 34.3421 57.1131 33.8556 56.349 33.8556ZM56.6193 38.8507C55.7183 38.8507 55.0228 38.6056 54.5326 38.1155C54.0497 37.6254 53.8083 36.8974 53.8083 35.9315C53.8083 34.9656 54.0245 34.2376 54.457 33.7475C54.8966 33.2574 55.5273 33.0123 56.349 33.0123C57.8483 33.0123 58.6231 33.8916 58.6736 35.6504C58.6808 35.8234 58.6195 35.9675 58.4898 36.0829C58.3601 36.1982 58.2087 36.2558 58.0357 36.2558H55.0408C54.9831 36.2558 54.9543 36.2847 54.9543 36.3423C55.0408 37.4524 55.6319 38.0074 56.7275 38.0074C57.1095 38.0074 57.4843 37.9461 57.8519 37.8236C57.96 37.7875 58.0609 37.8019 58.1546 37.8668C58.2483 37.9317 58.2952 38.0218 58.2952 38.1371C58.2952 38.2741 58.2519 38.3966 58.1654 38.5047C58.0789 38.6128 57.9672 38.6849 57.8303 38.721C57.4338 38.8075 57.0302 38.8507 56.6193 38.8507ZM63.0882 38.5804C62.9801 38.6885 62.8467 38.7426 62.6881 38.7426C62.5296 38.7426 62.3926 38.6885 62.2773 38.5804C62.1692 38.4651 62.1151 38.3281 62.1151 38.1695V31.4229C62.1151 31.2644 62.1692 31.131 62.2773 31.0229C62.3926 30.9076 62.5296 30.8499 62.6881 30.8499C63.0702 30.8499 63.3477 31.0193 63.5207 31.3581L65.6506 35.4882C65.6506 35.4954 65.6542 35.499 65.6614 35.499C65.6686 35.499 65.6722 35.4954 65.6722 35.4882L67.7913 31.3797C67.9715 31.0265 68.2599 30.8499 68.6563 30.8499C68.8221 30.8499 68.9626 30.9076 69.078 31.0229C69.1933 31.1382 69.251 31.2788 69.251 31.4446V38.1479C69.251 38.3137 69.1933 38.4543 69.078 38.5696C68.9626 38.6849 68.8221 38.7426 68.6563 38.7426C68.4905 38.7426 68.35 38.6849 68.2346 38.5696C68.1193 38.4543 68.0616 38.3137 68.0616 38.1479V32.915C68.0616 32.9078 68.058 32.9042 68.0508 32.9042C68.0436 32.9042 68.04 32.9078 68.04 32.915L66.4399 36.0937C66.2741 36.418 66.0146 36.5802 65.6614 36.5802C65.3082 36.5802 65.0487 36.418 64.883 36.0937L63.2828 32.915C63.2828 32.9078 63.2792 32.9042 63.272 32.9042C63.2648 32.9042 63.2612 32.9078 63.2612 32.915V38.1695C63.2612 38.3281 63.2035 38.4651 63.0882 38.5804ZM73.1168 35.9099C72.5258 35.9099 72.0789 36.0108 71.7762 36.2126C71.4806 36.4072 71.3329 36.6739 71.3329 37.0127C71.3329 37.2794 71.4122 37.4992 71.5707 37.6722C71.7293 37.8452 71.9203 37.9317 72.1438 37.9317C72.6195 37.9317 72.9979 37.7839 73.279 37.4884C73.5673 37.1857 73.7115 36.7748 73.7115 36.2558V35.9964C73.7115 35.9387 73.679 35.9099 73.6142 35.9099H73.1168ZM71.8735 38.8507C71.3833 38.8507 70.9797 38.6921 70.6625 38.375C70.3526 38.0578 70.1976 37.6398 70.1976 37.1208C70.1976 36.4865 70.4391 35.9964 70.922 35.6504C71.4049 35.2972 72.1366 35.1206 73.1168 35.1206H73.6142C73.679 35.1206 73.7115 35.0882 73.7115 35.0233V34.9044C73.7115 34.5223 73.6214 34.2556 73.4412 34.1043C73.261 33.9529 72.9366 33.8772 72.4681 33.8772C72.0501 33.8772 71.5527 33.9637 70.9761 34.1367C70.868 34.1728 70.7634 34.1583 70.6625 34.0935C70.5688 34.0214 70.522 33.9277 70.522 33.8124C70.522 33.6682 70.5652 33.5385 70.6517 33.4231C70.7382 33.3078 70.8499 33.2357 70.9869 33.2069C71.5059 33.0772 71.9996 33.0123 72.4681 33.0123C73.3763 33.0123 73.9998 33.1745 74.3386 33.4988C74.6773 33.8232 74.8467 34.4178 74.8467 35.2828V38.2128C74.8467 38.357 74.7927 38.4831 74.6846 38.5912C74.5836 38.6921 74.4611 38.7426 74.317 38.7426C74.1728 38.7426 74.0467 38.6921 73.9385 38.5912C73.8376 38.4831 73.7836 38.357 73.7764 38.2128L73.7655 37.9425C73.7655 37.9353 73.7619 37.9317 73.7547 37.9317C73.7403 37.9317 73.7331 37.9353 73.7331 37.9425C73.315 38.548 72.6952 38.8507 71.8735 38.8507ZM77.0337 35.1206V36.7424C77.0337 37.0739 77.1707 37.3659 77.4446 37.6181C77.7257 37.8632 78.0572 37.9857 78.4392 37.9857C78.8717 37.9857 79.2141 37.8128 79.4664 37.4668C79.7187 37.1208 79.8448 36.609 79.8448 35.9315C79.8448 34.562 79.3763 33.8772 78.4392 33.8772C78.0572 33.8772 77.7257 34.0034 77.4446 34.2556C77.1707 34.5007 77.0337 34.789 77.0337 35.1206ZM76.8607 40.959C76.7526 41.0671 76.6192 41.1212 76.4607 41.1212C76.3021 41.1212 76.1688 41.0671 76.0606 40.959C75.9525 40.8509 75.8985 40.7175 75.8985 40.559V33.6502C75.8985 33.506 75.9489 33.3835 76.0498 33.2826C76.1579 33.1745 76.2841 33.1204 76.4282 33.1204C76.5724 33.1204 76.6985 33.1745 76.8067 33.2826C76.9148 33.3835 76.9724 33.506 76.9796 33.6502V33.8124C76.9796 33.8196 76.9832 33.8232 76.9905 33.8232C76.9977 33.8232 77.0049 33.8196 77.0121 33.8124C77.2788 33.5168 77.5419 33.3114 77.8013 33.1961C78.0608 33.0735 78.3636 33.0123 78.7095 33.0123C79.3943 33.0123 79.9421 33.2682 80.353 33.7799C80.771 34.2917 80.98 35.0089 80.98 35.9315C80.98 36.8253 80.7638 37.5353 80.3313 38.0614C79.9061 38.5876 79.3655 38.8507 78.7095 38.8507C78.068 38.8507 77.5202 38.62 77.0661 38.1587C77.0589 38.1515 77.0517 38.1479 77.0445 38.1479C77.0373 38.1479 77.0337 38.1515 77.0337 38.1587V40.559C77.0337 40.7175 76.976 40.8509 76.8607 40.959ZM83.5999 36.364C82.8647 36.1838 82.3458 35.9567 82.043 35.6828C81.7475 35.4017 81.5997 35.0521 81.5997 34.6341C81.5997 34.1295 81.7799 33.7331 82.1403 33.4448C82.5079 33.1564 83.0485 33.0123 83.7621 33.0123C84.2234 33.0123 84.6883 33.0627 85.1569 33.1636C85.2866 33.1925 85.3911 33.2646 85.4704 33.3799C85.5569 33.488 85.6001 33.6105 85.6001 33.7475C85.6001 33.8628 85.5533 33.9529 85.4596 34.0178C85.3659 34.0827 85.265 34.0971 85.1569 34.061C84.7028 33.9385 84.2739 33.8772 83.8702 33.8772C83.1134 33.8772 82.735 34.0935 82.735 34.5259C82.735 34.7422 82.8071 34.9188 82.9512 35.0557C83.0954 35.1927 83.3477 35.3044 83.7081 35.3909C84.537 35.5855 85.0956 35.8198 85.3839 36.0937C85.6722 36.3604 85.8164 36.7568 85.8164 37.283C85.8164 37.7731 85.6254 38.1587 85.2433 38.4398C84.8685 38.7137 84.3207 38.8507 83.5999 38.8507C83.1314 38.8507 82.6629 38.7894 82.1944 38.6669C82.0647 38.6309 81.9601 38.5588 81.8809 38.4507C81.8016 38.3353 81.7619 38.2092 81.7619 38.0722C81.7619 37.9641 81.8052 37.8776 81.8917 37.8128C81.9854 37.7479 82.0827 37.7335 82.1836 37.7695C82.6305 37.9137 83.0666 37.9857 83.4918 37.9857C84.2847 37.9857 84.6811 37.7515 84.6811 37.283C84.6811 37.0595 84.6018 36.8793 84.4433 36.7424C84.2847 36.5982 84.0036 36.4721 83.5999 36.364ZM91.4703 35.2287C90.6486 34.9476 90.0537 34.6124 89.6861 34.2232C89.3257 33.8268 89.1455 33.3511 89.1455 32.796C89.1455 32.1617 89.3474 31.6608 89.751 31.2932C90.1548 30.9256 90.7098 30.7418 91.4162 30.7418C92.0793 30.7418 92.6632 30.8211 93.1677 30.9796C93.3191 31.0301 93.4416 31.1274 93.5353 31.2716C93.6363 31.4085 93.6867 31.5635 93.6867 31.7365C93.6867 31.859 93.6326 31.9527 93.5245 32.0176C93.4164 32.0825 93.3047 32.0897 93.1894 32.0392C92.6416 31.8086 92.0865 31.6932 91.5243 31.6932C91.1351 31.6932 90.836 31.7905 90.6269 31.9852C90.4179 32.1798 90.3134 32.4501 90.3134 32.796C90.3134 33.0772 90.4107 33.333 90.6053 33.5637C90.7999 33.7871 91.0882 33.9637 91.4703 34.0935C92.4217 34.4106 93.0812 34.7638 93.4488 35.153C93.8237 35.5423 94.0111 36.036 94.0111 36.6343C94.0111 37.3623 93.7876 37.9137 93.3407 38.2885C92.8938 38.6633 92.2343 38.8507 91.3622 38.8507C90.7927 38.8507 90.2774 38.7642 89.8159 38.5912C89.4771 38.4543 89.3077 38.1876 89.3077 37.7911C89.3077 37.6686 89.3618 37.5785 89.4699 37.5208C89.578 37.4632 89.6861 37.4632 89.7942 37.5208C90.2413 37.7587 90.7279 37.8776 91.254 37.8776C92.2992 37.8776 92.8218 37.4632 92.8218 36.6343C92.8218 36.3171 92.7172 36.0468 92.5082 35.8234C92.3064 35.5999 91.9604 35.4017 91.4703 35.2287ZM97.1222 33.8556C96.3005 33.8556 95.8392 34.3421 95.7383 35.3152C95.7238 35.3801 95.7527 35.4125 95.8248 35.4125H98.2466C98.3043 35.4125 98.3331 35.3801 98.3331 35.3152C98.2899 34.3421 97.8862 33.8556 97.1222 33.8556ZM97.3925 38.8507C96.4915 38.8507 95.7959 38.6056 95.3058 38.1155C94.8229 37.6254 94.5814 36.8974 94.5814 35.9315C94.5814 34.9656 94.7976 34.2376 95.2301 33.7475C95.6698 33.2574 96.3005 33.0123 97.1222 33.0123C98.6214 33.0123 99.3963 33.8916 99.4467 35.6504C99.4539 35.8234 99.3927 35.9675 99.2629 36.0829C99.1332 36.1982 98.9818 36.2558 98.8088 36.2558H95.8139C95.7563 36.2558 95.7274 36.2847 95.7274 36.3423C95.8139 37.4524 96.405 38.0074 97.5006 38.0074C97.8826 38.0074 98.2574 37.9461 98.625 37.8236C98.7331 37.7875 98.8341 37.8019 98.9278 37.8668C99.0215 37.9317 99.0683 38.0218 99.0683 38.1371C99.0683 38.2741 99.0251 38.3966 98.9386 38.5047C98.8521 38.6128 98.7404 38.6849 98.6034 38.721C98.207 38.8075 97.8033 38.8507 97.3925 38.8507ZM101.249 38.5804C101.141 38.6885 101.007 38.7426 100.849 38.7426C100.69 38.7426 100.557 38.6885 100.449 38.5804C100.341 38.4723 100.286 38.3389 100.286 38.1804V31.1959C100.286 31.0373 100.341 30.904 100.449 30.7958C100.557 30.6877 100.69 30.6337 100.849 30.6337C101.007 30.6337 101.141 30.6877 101.249 30.7958C101.364 30.904 101.422 31.0373 101.422 31.1959V35.5963C101.422 35.6035 101.425 35.6071 101.433 35.6071L101.454 35.5963L103.379 33.5637C103.66 33.2682 104.006 33.1204 104.417 33.1204H104.536C104.651 33.1204 104.73 33.1745 104.773 33.2826C104.824 33.3907 104.809 33.4844 104.73 33.5637L102.622 35.7585C102.586 35.7945 102.586 35.8378 102.622 35.8882L104.741 38.2885C104.82 38.375 104.835 38.4723 104.784 38.5804C104.741 38.6885 104.658 38.7426 104.536 38.7426H104.417C104.013 38.7426 103.674 38.5876 103.4 38.2777L101.454 36.0504C101.447 36.0432 101.44 36.0396 101.433 36.0396C101.425 36.0396 101.422 36.0432 101.422 36.0504V38.1804C101.422 38.3389 101.364 38.4723 101.249 38.5804ZM108.929 35.9315C108.929 34.562 108.431 33.8772 107.437 33.8772C106.442 33.8772 105.945 34.562 105.945 35.9315C105.945 37.301 106.442 37.9857 107.437 37.9857C108.431 37.9857 108.929 37.301 108.929 35.9315ZM109.383 38.0939C108.914 38.5984 108.266 38.8507 107.437 38.8507C106.608 38.8507 105.959 38.5984 105.491 38.0939C105.022 37.5821 104.788 36.8613 104.788 35.9315C104.788 35.0017 105.022 34.2845 105.491 33.7799C105.959 33.2682 106.608 33.0123 107.437 33.0123C108.266 33.0123 108.914 33.2682 109.383 33.7799C109.851 34.2845 110.086 35.0017 110.086 35.9315C110.086 36.8613 109.851 37.5821 109.383 38.0939ZM112.203 38.5696C112.088 38.6849 111.951 38.7426 111.792 38.7426C111.634 38.7426 111.493 38.6849 111.37 38.5696C111.255 38.4543 111.197 38.3137 111.197 38.1479V31.2283C111.197 31.0625 111.255 30.922 111.37 30.8067C111.493 30.6913 111.634 30.6337 111.792 30.6337C111.951 30.6337 112.088 30.6913 112.203 30.8067C112.325 30.922 112.387 31.0625 112.387 31.2283V38.1479C112.387 38.3137 112.325 38.4543 112.203 38.5696ZM116.522 35.9099C115.931 35.9099 115.484 36.0108 115.182 36.2126C114.886 36.4072 114.738 36.6739 114.738 37.0127C114.738 37.2794 114.818 37.4992 114.976 37.6722C115.135 37.8452 115.326 37.9317 115.549 37.9317C116.025 37.9317 116.403 37.7839 116.684 37.4884C116.973 37.1857 117.117 36.7748 117.117 36.2558V35.9964C117.117 35.9387 117.085 35.9099 117.02 35.9099H116.522ZM115.279 38.8507C114.789 38.8507 114.385 38.6921 114.068 38.375C113.758 38.0578 113.603 37.6398 113.603 37.1208C113.603 36.4865 113.845 35.9964 114.327 35.6504C114.81 35.2972 115.542 35.1206 116.522 35.1206H117.02C117.085 35.1206 117.117 35.0882 117.117 35.0233V34.9044C117.117 34.5223 117.027 34.2556 116.847 34.1043C116.666 33.9529 116.342 33.8772 115.874 33.8772C115.456 33.8772 114.958 33.9637 114.382 34.1367C114.273 34.1728 114.169 34.1583 114.068 34.0935C113.974 34.0214 113.927 33.9277 113.927 33.8124C113.927 33.6682 113.971 33.5385 114.057 33.4231C114.144 33.3078 114.255 33.2357 114.392 33.2069C114.911 33.0772 115.405 33.0123 115.874 33.0123C116.782 33.0123 117.405 33.1745 117.744 33.4988C118.083 33.8232 118.252 34.4178 118.252 35.2828V38.2128C118.252 38.357 118.198 38.4831 118.09 38.5912C117.989 38.6921 117.867 38.7426 117.722 38.7426C117.578 38.7426 117.452 38.6921 117.344 38.5912C117.243 38.4831 117.189 38.357 117.182 38.2128L117.171 37.9425C117.171 37.9353 117.167 37.9317 117.16 37.9317C117.146 37.9317 117.139 37.9353 117.139 37.9425C116.721 38.548 116.101 38.8507 115.279 38.8507ZM120.321 38.5804C120.213 38.6885 120.079 38.7426 119.921 38.7426C119.762 38.7426 119.629 38.6885 119.521 38.5804C119.413 38.4723 119.359 38.3389 119.359 38.1804V31.1959C119.359 31.0373 119.413 30.904 119.521 30.7958C119.629 30.6877 119.762 30.6337 119.921 30.6337C120.079 30.6337 120.213 30.6877 120.321 30.7958C120.436 30.904 120.494 31.0373 120.494 31.1959V33.8124C120.494 33.8196 120.497 33.8232 120.505 33.8232C120.512 33.8232 120.519 33.8196 120.526 33.8124C121.031 33.279 121.597 33.0123 122.224 33.0123C122.88 33.0123 123.359 33.1961 123.662 33.5637C123.964 33.9241 124.116 34.5332 124.116 35.3909V38.1912C124.116 38.3425 124.062 38.4723 123.954 38.5804C123.846 38.6885 123.716 38.7426 123.564 38.7426C123.413 38.7426 123.283 38.6885 123.175 38.5804C123.067 38.4723 123.013 38.3425 123.013 38.1912V35.6071C123.013 34.9368 122.934 34.4899 122.775 34.2665C122.617 34.043 122.325 33.9313 121.899 33.9313C121.568 33.9313 121.251 34.0899 120.948 34.407C120.645 34.717 120.494 35.0449 120.494 35.3909V38.1804C120.494 38.3389 120.436 38.4723 120.321 38.5804ZM129.641 38.1587L127.327 31.4337C127.277 31.2896 127.295 31.1562 127.381 31.0337C127.475 30.9112 127.597 30.8499 127.749 30.8499H127.792C127.979 30.8499 128.145 30.904 128.289 31.0121C128.441 31.1202 128.542 31.2608 128.592 31.4337L130.495 37.5425C130.495 37.5497 130.498 37.5533 130.506 37.5533C130.513 37.5533 130.516 37.5497 130.516 37.5425L132.419 31.4337C132.477 31.2608 132.578 31.1202 132.722 31.0121C132.873 30.904 133.039 30.8499 133.219 30.8499C133.371 30.8499 133.49 30.9112 133.576 31.0337C133.67 31.1562 133.692 31.2896 133.641 31.4337L131.327 38.1587C131.27 38.3317 131.165 38.4723 131.014 38.5804C130.87 38.6885 130.704 38.7426 130.516 38.7426H130.452C130.271 38.7426 130.106 38.6885 129.954 38.5804C129.803 38.4723 129.698 38.3317 129.641 38.1587ZM137.205 35.9315C137.205 34.562 136.707 33.8772 135.712 33.8772C134.718 33.8772 134.22 34.562 134.22 35.9315C134.22 37.301 134.718 37.9857 135.712 37.9857C136.707 37.9857 137.205 37.301 137.205 35.9315ZM137.659 38.0939C137.19 38.5984 136.541 38.8507 135.712 38.8507C134.884 38.8507 134.235 38.5984 133.766 38.0939C133.298 37.5821 133.064 36.8613 133.064 35.9315C133.064 35.0017 133.298 34.2845 133.766 33.7799C134.235 33.2682 134.884 33.0123 135.712 33.0123C136.541 33.0123 137.19 33.2682 137.659 33.7799C138.127 34.2845 138.361 35.0017 138.361 35.9315C138.361 36.8613 138.127 37.5821 137.659 38.0939ZM140.111 38.5804C140.003 38.6885 139.87 38.7426 139.711 38.7426C139.553 38.7426 139.419 38.6885 139.311 38.5804C139.203 38.4723 139.149 38.3389 139.149 38.1804V31.1959C139.149 31.0373 139.203 30.904 139.311 30.7958C139.419 30.6877 139.553 30.6337 139.711 30.6337C139.87 30.6337 140.003 30.6877 140.111 30.7958C140.226 30.904 140.284 31.0373 140.284 31.1959V35.5963C140.284 35.6035 140.288 35.6071 140.295 35.6071L140.317 35.5963L142.241 33.5637C142.522 33.2682 142.868 33.1204 143.279 33.1204H143.398C143.513 33.1204 143.593 33.1745 143.636 33.2826C143.686 33.3907 143.672 33.4844 143.593 33.5637L141.484 35.7585C141.448 35.7945 141.448 35.8378 141.484 35.8882L143.603 38.2885C143.683 38.375 143.697 38.4723 143.647 38.5804C143.603 38.6885 143.52 38.7426 143.398 38.7426H143.279C142.875 38.7426 142.537 38.5876 142.263 38.2777L140.317 36.0504C140.309 36.0432 140.302 36.0396 140.295 36.0396C140.288 36.0396 140.284 36.0432 140.284 36.0504V38.1804C140.284 38.3389 140.226 38.4723 140.111 38.5804ZM146.836 35.9099C146.245 35.9099 145.798 36.0108 145.495 36.2126C145.2 36.4072 145.052 36.6739 145.052 37.0127C145.052 37.2794 145.131 37.4992 145.29 37.6722C145.449 37.8452 145.64 37.9317 145.863 37.9317C146.339 37.9317 146.717 37.7839 146.998 37.4884C147.287 37.1857 147.431 36.7748 147.431 36.2558V35.9964C147.431 35.9387 147.398 35.9099 147.333 35.9099H146.836ZM145.593 38.8507C145.103 38.8507 144.699 38.6921 144.382 38.375C144.072 38.0578 143.917 37.6398 143.917 37.1208C143.917 36.4865 144.158 35.9964 144.641 35.6504C145.124 35.2972 145.856 35.1206 146.836 35.1206H147.333C147.398 35.1206 147.431 35.0882 147.431 35.0233V34.9044C147.431 34.5223 147.341 34.2556 147.16 34.1043C146.98 33.9529 146.656 33.8772 146.187 33.8772C145.769 33.8772 145.272 33.9637 144.695 34.1367C144.587 34.1728 144.483 34.1583 144.382 34.0935C144.288 34.0214 144.241 33.9277 144.241 33.8124C144.241 33.6682 144.285 33.5385 144.371 33.4231C144.457 33.3078 144.569 33.2357 144.706 33.2069C145.225 33.0772 145.719 33.0123 146.187 33.0123C147.096 33.0123 147.719 33.1745 148.058 33.4988C148.397 33.8232 148.566 34.4178 148.566 35.2828V38.2128C148.566 38.357 148.512 38.4831 148.404 38.5912C148.303 38.6921 148.18 38.7426 148.036 38.7426C147.892 38.7426 147.766 38.6921 147.658 38.5912C147.557 38.4831 147.503 38.357 147.496 38.2128L147.485 37.9425C147.485 37.9353 147.481 37.9317 147.474 37.9317C147.46 37.9317 147.452 37.9353 147.452 37.9425C147.034 38.548 146.414 38.8507 145.593 38.8507ZM151.35 36.364C150.615 36.1838 150.096 35.9567 149.793 35.6828C149.498 35.4017 149.35 35.0521 149.35 34.6341C149.35 34.1295 149.53 33.7331 149.89 33.4448C150.258 33.1564 150.799 33.0123 151.512 33.0123C151.974 33.0123 152.438 33.0627 152.907 33.1636C153.037 33.1925 153.141 33.2646 153.221 33.3799C153.307 33.488 153.35 33.6105 153.35 33.7475C153.35 33.8628 153.303 33.9529 153.21 34.0178C153.116 34.0827 153.015 34.0971 152.907 34.061C152.453 33.9385 152.024 33.8772 151.62 33.8772C150.864 33.8772 150.485 34.0935 150.485 34.5259C150.485 34.7422 150.557 34.9188 150.701 35.0557C150.846 35.1927 151.098 35.3044 151.458 35.3909C152.287 35.5855 152.846 35.8198 153.134 36.0937C153.422 36.3604 153.567 36.7568 153.567 37.283C153.567 37.7731 153.376 38.1587 152.993 38.4398C152.619 38.7137 152.071 38.8507 151.35 38.8507C150.882 38.8507 150.413 38.7894 149.945 38.6669C149.815 38.6309 149.71 38.5588 149.631 38.4507C149.552 38.3353 149.512 38.2092 149.512 38.0722C149.512 37.9641 149.555 37.8776 149.642 37.8128C149.736 37.7479 149.833 37.7335 149.934 37.7695C150.381 37.9137 150.817 37.9857 151.242 37.9857C152.035 37.9857 152.431 37.7515 152.431 37.283C152.431 37.0595 152.352 36.8793 152.193 36.7424C152.035 36.5982 151.754 36.4721 151.35 36.364ZM154.888 31.2283C154.888 31.0625 154.946 30.922 155.061 30.8067C155.184 30.6913 155.324 30.6337 155.483 30.6337C155.641 30.6337 155.778 30.6913 155.894 30.8067C156.016 30.922 156.078 31.0625 156.078 31.2283C156.078 31.3941 156.016 31.5347 155.894 31.65C155.778 31.7653 155.641 31.823 155.483 31.823C155.324 31.823 155.184 31.7653 155.061 31.65C154.946 31.5347 154.888 31.3941 154.888 31.2283ZM155.894 38.5696C155.778 38.6849 155.641 38.7426 155.483 38.7426C155.324 38.7426 155.184 38.6849 155.061 38.5696C154.946 38.4543 154.888 38.3137 154.888 38.1479V33.7151C154.888 33.5493 154.946 33.4087 155.061 33.2934C155.184 33.1781 155.324 33.1204 155.483 33.1204C155.641 33.1204 155.778 33.1781 155.894 33.2934C156.016 33.4087 156.078 33.5493 156.078 33.7151V38.1479C156.078 38.3137 156.016 38.4543 155.894 38.5696ZM161.108 38.7426C160.942 38.7426 160.798 38.6813 160.675 38.5588C160.553 38.4362 160.492 38.2921 160.492 38.1263V31.4662C160.492 31.3004 160.553 31.1562 160.675 31.0337C160.798 30.9112 160.942 30.8499 161.108 30.8499H161.173C161.338 30.8499 161.483 30.9112 161.605 31.0337C161.728 31.1562 161.789 31.3004 161.789 31.4662V38.1263C161.789 38.2921 161.728 38.4362 161.605 38.5588C161.483 38.6813 161.338 38.7426 161.173 38.7426H161.108ZM164.571 31.8662V34.7097C164.571 34.7674 164.604 34.8035 164.669 34.8179C165.036 34.8683 165.364 34.8935 165.652 34.8935C166.287 34.8935 166.773 34.7566 167.112 34.4827C167.451 34.2016 167.62 33.8015 167.62 33.2826C167.62 32.7636 167.454 32.3708 167.123 32.1041C166.791 31.8302 166.301 31.6932 165.652 31.6932C165.306 31.6932 164.978 31.7149 164.669 31.7581C164.604 31.7725 164.571 31.8086 164.571 31.8662ZM164.398 38.5696C164.283 38.6849 164.142 38.7426 163.977 38.7426C163.811 38.7426 163.67 38.6849 163.555 38.5696C163.44 38.4543 163.382 38.3137 163.382 38.1479V31.5202C163.382 31.3473 163.44 31.1923 163.555 31.0553C163.67 30.9184 163.814 30.8427 163.987 30.8283C164.6 30.7706 165.191 30.7418 165.761 30.7418C166.755 30.7418 167.508 30.9544 168.02 31.3797C168.532 31.7977 168.788 32.396 168.788 33.1745C168.788 34.9404 167.779 35.8234 165.761 35.8234C165.335 35.8234 164.968 35.809 164.658 35.7801C164.6 35.7801 164.571 35.809 164.571 35.8666V38.1479C164.571 38.3137 164.514 38.4543 164.398 38.5696ZM170.762 35.099V37.7263C170.762 37.7839 170.791 37.82 170.848 37.8344C171.13 37.8776 171.425 37.8993 171.735 37.8993C172.413 37.8993 172.91 37.7731 173.227 37.5208C173.544 37.2686 173.703 36.8829 173.703 36.364C173.703 35.8954 173.512 35.5531 173.13 35.3368C172.748 35.1134 172.103 35.0017 171.194 35.0017H170.859C170.794 35.0017 170.762 35.0341 170.762 35.099ZM170.762 31.8662V33.9745C170.762 34.0394 170.794 34.0718 170.859 34.0718H171.194C171.987 34.0718 172.557 33.9709 172.903 33.7691C173.256 33.5673 173.432 33.261 173.432 32.8501C173.432 32.4537 173.292 32.1617 173.011 31.9743C172.73 31.7869 172.268 31.6932 171.627 31.6932C171.353 31.6932 171.093 31.7149 170.848 31.7581C170.791 31.7725 170.762 31.8086 170.762 31.8662ZM170.189 38.775C170.009 38.7534 169.861 38.6777 169.746 38.548C169.63 38.411 169.573 38.2524 169.573 38.0722V31.5202C169.573 31.34 169.63 31.1851 169.746 31.0553C169.861 30.9184 170.009 30.8391 170.189 30.8175C170.621 30.767 171.101 30.7418 171.627 30.7418C173.573 30.7418 174.546 31.3905 174.546 32.6879C174.546 33.1204 174.398 33.5024 174.103 33.834C173.807 34.1583 173.418 34.3674 172.935 34.4611C172.928 34.4611 172.924 34.4647 172.924 34.4719C172.924 34.4791 172.928 34.4827 172.935 34.4827C173.541 34.5764 174.013 34.7998 174.351 35.153C174.697 35.5062 174.87 35.9459 174.87 36.4721C174.87 38.0578 173.825 38.8507 171.735 38.8507C171.166 38.8507 170.65 38.8255 170.189 38.775Z" fill="white"/>
</g>
<defs>
<clipPath id="clip0_42_2136">
<rect width="182" height="41.4455" fill="white"/>
</clipPath>
</defs>
</svg>
