<svg width="485" height="2304" viewBox="0 0 485 2304" fill="none" xmlns="http://www.w3.org/2000/svg">
<mask id="mask0_63_516" style="mask-type:luminance" maskUnits="userSpaceOnUse" x="0" y="0" width="1296" height="2304">
<path d="M1296 0H0V2304H1296V0Z" fill="black" fill-opacity="0.81"/>
</mask>
<g mask="url(#mask0_63_516)">
<mask id="mask1_63_516" style="mask-type:luminance" maskUnits="userSpaceOnUse" x="173" y="892" width="951" height="952">
<path d="M1124 892H173.333V1844H1124V892Z" fill="white"/>
</mask>
<g mask="url(#mask1_63_516)">
<mask id="mask2_63_516" style="mask-type:luminance" maskUnits="userSpaceOnUse" x="-130" y="-231" width="1556" height="2766">
<path d="M1425.6 -230.4H-129.6V2534.4H1425.6V-230.4Z" fill="black" fill-opacity="0.4"/>
</mask>
<g mask="url(#mask2_63_516)">
<mask id="mask3_63_516" style="mask-type:luminance" maskUnits="userSpaceOnUse" x="376" y="1092" width="548" height="552">
<path d="M924 1092H376V1644H924V1092Z" fill="white"/>
</mask>
<g mask="url(#mask3_63_516)">
<path d="M538.823 1118.13C556.099 1110.55 574.078 1104.83 592.427 1100.96C611.339 1097.02 630.078 1094.99 648.344 1094.99C723.844 1094.99 792.214 1125.6 841.703 1175.09C891.193 1224.58 921.802 1292.95 921.802 1368.45H771.302C771.302 1334.49 757.552 1303.74 735.286 1281.51C713.052 1259.27 682.302 1245.49 648.344 1245.49C639.24 1245.49 630.755 1246.31 623.005 1247.94C614.719 1249.69 606.604 1252.28 598.797 1255.69L538.823 1118.13ZM733.932 1628.16C720.943 1632.44 706.734 1635.82 691.547 1638.28C676.297 1640.73 661.844 1641.97 648.344 1641.97C582.677 1641.97 521.464 1618.32 473.552 1578.39C425.75 1538.56 391.479 1482.56 379.615 1417.77L527.182 1390.74C532.568 1420.05 547.953 1445.31 569.375 1463.17C590.708 1480.96 618.328 1491.47 648.344 1491.47C655.922 1491.47 662.516 1491.02 668.016 1490.15C673.568 1489.24 679.88 1487.64 686.896 1485.33L733.932 1628.16Z" fill="#4C1E7D"/>
</g>
</g>
<path d="M818.651 1368.48C818.651 1274.43 742.391 1198.17 648.344 1198.17C554.266 1198.17 478.031 1274.43 478.031 1368.48C478.031 1462.55 554.297 1538.79 648.344 1538.79C742.417 1538.79 818.651 1462.53 818.651 1368.48ZM648.344 1149.67C769.193 1149.67 867.156 1247.63 867.156 1368.48C867.156 1489.33 769.193 1587.29 648.344 1587.29C527.495 1587.29 429.526 1489.33 429.526 1368.48C429.557 1247.63 527.521 1149.67 648.344 1149.67Z" fill="#4C1E7D"/>
<path d="M860.505 1156.32C806.224 1102.01 731.198 1068.44 648.344 1068.44C565.484 1068.44 490.49 1102.04 436.177 1156.32C381.87 1210.6 348.302 1285.62 348.302 1368.48C348.302 1451.34 381.901 1526.33 436.177 1580.64C490.458 1634.92 565.484 1668.52 648.344 1668.52C731.198 1668.52 806.193 1634.92 860.505 1580.64C914.787 1526.36 948.38 1451.34 948.38 1368.48C948.38 1285.62 914.813 1210.63 860.505 1156.32ZM648.344 1059.03C733.792 1059.03 811.156 1093.67 867.156 1149.67C923.156 1205.67 957.792 1283.03 957.792 1368.48C957.792 1453.93 923.156 1531.29 867.156 1587.29C811.156 1643.29 733.792 1677.93 648.344 1677.93C562.891 1677.93 485.526 1643.29 429.526 1587.29C373.526 1531.29 338.891 1453.93 338.891 1368.48C338.891 1283.03 373.526 1205.67 429.526 1149.67C485.526 1093.67 562.891 1059.03 648.344 1059.03Z" fill="#4C1E7D"/>
<mask id="mask4_63_516" style="mask-type:luminance" maskUnits="userSpaceOnUse" x="175" y="894" width="948" height="949">
<path d="M175.036 894.526H1122.67V1842.53H175.036V894.526Z" fill="white"/>
</mask>
<g mask="url(#mask4_63_516)">
<path d="M225.063 1168.78C200.823 1219.87 185.521 1276.07 181.266 1335.47L513.287 1356.3C514.698 1339.73 519.01 1324.09 525.688 1309.89C532.958 1294.39 543.078 1280.58 555.281 1269.16C567.427 1257.8 581.859 1248.7 597.922 1242.5C612.662 1236.81 628.755 1233.57 645.667 1233.26V1232.58H647.385L648.682 900.583H647.865L647.214 899.938C587.38 900.078 529.943 911.662 477.047 932.714C421.891 954.641 371.641 986.823 328.719 1027.01C285.906 1067.06 250.537 1115.08 225.063 1168.78ZM175.766 1337.79C179.797 1276.71 195.354 1218.94 220.24 1166.52C246 1112.24 281.766 1063.65 325.109 1023.09C368.542 982.453 419.354 949.906 475.099 927.724C528.958 906.302 587.438 894.552 648.313 894.552H649.412L650.089 895.229L653.979 895.255C653.526 1009.45 652.99 1123.68 652.625 1237.88H650.964V1238.53H648.287C631.037 1238.53 614.693 1241.68 599.781 1247.43C584.365 1253.38 570.5 1262.11 558.859 1273.02C547.135 1284.02 537.443 1297.26 530.453 1312.14C523.688 1326.52 519.458 1342.41 518.359 1359.32L518.193 1361.97C403.995 1354.72 289.771 1347.57 175.573 1340.46L175.766 1337.79ZM217.875 1552.94C222.917 1564.55 228.5 1576.19 234.672 1587.8L527.662 1430.26C526.448 1427.86 525.292 1425.35 524.193 1422.73C522.703 1419.15 521.292 1415.38 519.969 1411.38C518.672 1407.46 517.542 1403.57 516.615 1399.7C515.912 1396.8 515.318 1393.96 514.839 1391.19L185.38 1439.33C187.323 1452.04 189.776 1464.58 192.651 1476.87C195.75 1490.03 199.385 1502.91 203.557 1515.48C207.729 1528.05 212.49 1540.54 217.875 1552.94ZM231.234 1592.65C224.552 1580.22 218.464 1567.68 213 1555.05C207.5 1542.4 202.656 1529.74 198.51 1517.17C194.313 1504.46 190.62 1491.44 187.49 1478.11C184.365 1464.86 181.771 1451.31 179.74 1437.5L179.349 1434.85C292.672 1418.25 405.969 1401.65 519.292 1385.14L519.688 1387.76C520.193 1391.25 520.896 1394.8 521.802 1398.41C522.672 1402.02 523.771 1405.77 525.042 1409.66C526.339 1413.57 527.688 1417.23 529.125 1420.65C530.563 1424.06 532.057 1427.21 533.578 1430.09L534.849 1432.43C434.037 1486.57 333.224 1540.7 232.526 1595.02L231.234 1592.65ZM797.094 924.568C788.693 921.667 780.521 919.13 772.63 916.927L686.698 1238.53C689.068 1239.2 691.234 1239.82 693.094 1240.42C695.63 1241.2 697.833 1241.99 699.662 1242.76C702.906 1244.08 705.865 1245.38 708.51 1246.59C710.12 1247.32 711.641 1248.08 713.021 1248.81L875.781 959.74C867.578 955.172 859.49 950.917 851.516 947C842.833 942.745 834.292 938.886 825.953 935.474C816.146 931.443 806.505 927.781 797.094 924.568ZM771.443 911.068C780.266 913.464 789.396 916.281 798.813 919.521C808.198 922.766 817.917 926.427 827.979 930.568C836.406 934.011 845.031 937.927 853.854 942.24C862.589 946.521 871.552 951.255 880.714 956.443L883.021 957.74C826.995 1057.14 770.964 1156.57 715.052 1256.03L712.74 1254.73C711.021 1253.74 708.823 1252.65 706.229 1251.43C703.75 1250.25 700.849 1249.01 697.604 1247.69C696.057 1247.07 694 1246.33 691.464 1245.52C688.953 1244.73 686.021 1243.88 682.724 1242.98L680.162 1242.28C709.698 1131.63 739.234 1021.01 768.854 910.391L771.443 911.068ZM1094.68 1227.98C1090.11 1213.61 1084.81 1199.35 1078.81 1185.26L774.125 1316.76C775.474 1320.06 776.688 1323.44 777.76 1326.88C779.109 1331.22 780.266 1335.76 781.255 1340.44C782.042 1344.27 782.635 1348.53 783.026 1353.18C783.422 1357.83 783.62 1362.93 783.62 1368.45C783.62 1380.43 782.068 1392.15 779.109 1403.37C776.094 1414.78 771.641 1425.66 765.865 1435.72C759.917 1446.13 752.729 1455.7 744.5 1464.13C737.031 1471.8 728.693 1478.53 719.589 1484.14L887.557 1770.59C922.422 1749.85 953.932 1725.14 981.604 1697.26C1010.35 1668.32 1034.96 1635.94 1054.91 1601.05C1075.06 1565.82 1090.68 1528.05 1101.19 1488.63C1111.5 1449.87 1116.94 1409.48 1116.94 1368.4C1116.94 1353.32 1116.09 1337.87 1114.41 1322.2C1112.71 1306.42 1110.15 1290.33 1106.77 1273.98C1103.55 1258.59 1099.53 1243.2 1094.68 1227.98ZM1082.64 1180.72C1089.15 1195.77 1094.84 1211.02 1099.75 1226.41C1104.66 1241.85 1108.74 1257.41 1111.95 1273.02C1115.36 1289.54 1117.96 1305.8 1119.68 1321.75C1121.4 1337.7 1122.27 1353.32 1122.27 1368.51C1122.27 1410.05 1116.8 1450.86 1106.34 1490.09C1095.72 1529.97 1079.94 1568.18 1059.56 1603.81C1039.38 1639.06 1014.49 1671.81 985.385 1701.13C956.807 1729.93 924.172 1755.38 887.984 1776.66L885.698 1778.01C827.87 1679.51 770.12 1580.95 712.375 1482.4L714.656 1481.04C724.208 1475.43 732.974 1468.5 740.724 1460.53C748.615 1452.41 755.521 1443.22 761.271 1433.16C766.797 1423.49 771.109 1413.04 773.979 1402.1C776.802 1391.33 778.292 1380.06 778.292 1368.54C778.292 1363.15 778.099 1358.19 777.729 1353.71C777.365 1349.2 776.802 1345.15 776.068 1341.59C775.135 1337.14 774.01 1332.77 772.714 1328.57C771.417 1324.34 769.922 1320.31 768.26 1316.51L767.219 1314.06C871.974 1268.71 976.787 1223.48 1081.63 1178.35L1082.64 1180.72ZM592.396 1833.5C610.24 1835.72 628.052 1836.91 645.693 1837.02V1503.7C640.62 1503.61 635.714 1503.31 631.01 1502.8C625.458 1502.18 620.188 1501.25 615.255 1500.04C610.068 1498.74 604.885 1497.1 599.724 1495.1C595.385 1493.44 591.104 1491.53 586.844 1489.35L431.896 1783.61C447.849 1791.96 464.333 1799.34 481.214 1805.8C499 1812.59 517.26 1818.31 535.807 1822.9C554.662 1827.61 573.542 1831.13 592.396 1833.5ZM648.344 1842.38C629.599 1842.38 610.688 1841.17 591.724 1838.8C572.698 1836.4 553.589 1832.82 534.537 1828.09C515.714 1823.41 497.281 1817.63 479.328 1810.79C461.432 1803.96 443.958 1796.04 427.047 1787.08L424.708 1785.84C477.917 1684.58 531.214 1583.35 584.62 1482.17L586.958 1483.41C591.807 1485.97 596.708 1488.23 601.615 1490.11C606.547 1492.03 611.505 1493.61 616.495 1494.85C621.203 1496.04 626.245 1496.91 631.573 1497.5C636.844 1498.09 642.453 1498.4 648.344 1498.4H651.021V1842.38H648.344Z" fill="#4C1E7D"/>
</g>
<path d="M313.328 1418.61C319.276 1459.15 332.662 1499.14 353.969 1536.62L562.354 1415.69C556.547 1405.15 552.859 1393.98 551.167 1382.74C549.307 1370.48 549.844 1358.11 552.63 1346.3C555.365 1334.57 560.412 1323.27 567.599 1313.1C574.193 1303.74 582.589 1295.32 592.651 1288.33L592.37 1287.9L593.412 1287.23L460.698 1086.7L460.219 1087.02L459.573 1086.88C423.583 1111 393.651 1141.07 370.229 1175.03C345.823 1210.4 328.49 1249.99 318.797 1291.48C309.073 1332.85 307.099 1376.01 313.328 1418.61ZM351.573 1540.22C329.448 1501.81 315.583 1460.75 309.495 1419.18C303.182 1376.11 305.214 1332.49 314.99 1290.64C324.802 1248.7 342.328 1208.65 367.016 1172.89C390.859 1138.33 421.354 1107.76 458.021 1083.27L458.698 1082.81L459.375 1082.96L461.74 1081.41C507.396 1150.37 552.969 1219.39 598.682 1288.33L597.667 1289L597.922 1289.4L596.318 1290.47C585.917 1297.4 577.349 1305.89 570.667 1315.32C563.766 1325.1 558.943 1335.95 556.297 1347.2C553.646 1358.53 553.141 1370.42 554.917 1382.18C556.635 1393.53 560.469 1404.83 566.583 1415.46L567.542 1417.13C495.844 1458.69 424.146 1500.29 352.505 1541.92L351.573 1540.22ZM463.432 1652.9C471.125 1657.86 479.188 1662.63 487.557 1667.14L600.682 1454.44C598.995 1453.48 597.302 1452.44 595.552 1451.28C593.214 1449.73 590.849 1448.01 588.422 1446.13C586.083 1444.29 583.828 1442.4 581.719 1440.43C580.141 1438.96 578.615 1437.5 577.234 1436.03L398.162 1597.49C404.443 1604.37 410.953 1610.94 417.635 1617.19C424.792 1623.88 432.151 1630.16 439.729 1636.05C447.313 1641.99 455.229 1647.6 463.432 1652.9ZM487.443 1671.45C478.427 1666.66 469.719 1661.53 461.349 1656.11C452.948 1650.7 444.943 1645.01 437.391 1639.12C429.755 1633.15 422.287 1626.78 415.042 1620.04C407.828 1613.31 400.807 1606.18 394.047 1598.68L392.75 1597.24C454.328 1541.69 515.912 1486.11 577.516 1430.63L578.813 1432.06C580.531 1433.95 582.391 1435.81 584.365 1437.64C586.339 1439.47 588.51 1441.28 590.849 1443.11C593.188 1444.94 595.5 1446.6 597.724 1448.07C599.979 1449.56 602.12 1450.86 604.208 1451.96L605.896 1452.86C566.948 1525.99 527.974 1599.13 489.162 1672.35L487.443 1671.45ZM559.708 1041.5C553.479 1043.14 547.531 1044.88 541.896 1046.74L619.427 1274.99C621.115 1274.43 622.667 1273.95 624.047 1273.56C625.906 1273.02 627.542 1272.6 628.953 1272.32C631.432 1271.81 633.745 1271.39 635.828 1271.08C637.099 1270.88 638.307 1270.71 639.438 1270.6L621.255 1031.02C614.464 1031.55 607.901 1032.26 601.5 1033.1C594.568 1034.03 587.859 1035.13 581.464 1036.43C573.938 1038.01 566.667 1039.67 559.708 1041.5ZM538.823 1043.7C545.109 1041.58 551.729 1039.61 558.719 1037.78C565.651 1035.95 573.01 1034.26 580.729 1032.7C587.182 1031.41 593.948 1030.28 600.995 1029.32C607.984 1028.4 615.281 1027.63 622.891 1027.07L624.807 1026.93C631.037 1109.33 637.24 1191.74 643.578 1274.12L641.662 1274.26C640.224 1274.38 638.479 1274.57 636.422 1274.91C634.448 1275.19 632.219 1275.61 629.714 1276.13C628.531 1276.35 627.005 1276.74 625.146 1277.31C623.313 1277.84 621.203 1278.49 618.865 1279.28L617.031 1279.9C590.339 1201.38 563.651 1122.86 537.021 1044.32L538.823 1043.7ZM860.953 1104.63C852.417 1097.81 843.51 1091.35 834.208 1085.27L703.552 1286.97C705.693 1288.41 707.781 1289.96 709.807 1291.63C712.375 1293.68 714.88 1295.96 717.359 1298.39C719.365 1300.36 721.448 1302.7 723.563 1305.35C725.677 1308 727.844 1310.98 730.042 1314.31C734.865 1321.53 738.641 1329.22 741.375 1337.17C744.162 1345.26 745.828 1353.6 746.417 1361.97C747.01 1370.62 746.531 1379.27 744.979 1387.67C743.573 1395.28 741.234 1402.72 738.021 1409.77L954.354 1514.78C967.005 1488.26 976.052 1460.72 981.521 1432.79C987.188 1403.79 988.99 1374.4 986.99 1345.37C984.958 1316.06 979.182 1287 969.656 1259.04C960.302 1231.54 947.333 1205.05 930.792 1180.3C924.734 1171.22 917.995 1162.27 910.672 1153.5C903.313 1144.68 895.281 1135.99 886.688 1127.52C878.599 1119.51 869.974 1111.87 860.953 1104.63ZM834.688 1081.01C844.667 1087.46 854.219 1094.34 863.349 1101.64C872.51 1108.97 881.219 1116.69 889.448 1124.81C898.13 1133.38 906.245 1142.14 913.688 1151.05C921.125 1159.95 927.948 1169.03 934.031 1178.19C950.719 1203.21 963.849 1229.99 973.323 1257.83C982.958 1286.13 988.823 1315.49 990.849 1345.15C992.88 1374.48 991.047 1404.24 985.297 1433.58C979.662 1462.41 970.219 1490.88 956.974 1518.24L956.13 1519.96C881.698 1483.89 807.292 1447.73 732.865 1411.6L733.708 1409.88C737.203 1402.67 739.682 1394.97 741.177 1387.05C742.672 1378.99 743.12 1370.68 742.557 1362.31C741.995 1354.24 740.385 1346.24 737.74 1338.49C735.12 1330.88 731.479 1323.47 726.833 1316.54C724.662 1313.3 722.578 1310.4 720.521 1307.83C718.49 1305.27 716.516 1303.04 714.63 1301.21C712.292 1298.9 709.865 1296.72 707.359 1294.72C704.875 1292.72 702.339 1290.89 699.833 1289.26L698.224 1288.21C743.094 1218.8 788.047 1149.39 833.052 1080.05L834.688 1081.01ZM801.828 1671.33C813.469 1665.5 824.682 1659.07 835.339 1652.03L701.328 1451.25C698.255 1453.22 695.182 1455.03 692.109 1456.61C688.531 1458.47 684.979 1460.02 681.516 1461.26C677.875 1462.55 674.073 1463.65 670.182 1464.53C666.917 1465.26 663.531 1465.82 660.12 1466.24L685.094 1705.8C698.057 1704.39 710.964 1702.25 723.729 1699.32C737.177 1696.25 750.479 1692.36 763.5 1687.68C776.714 1682.95 789.537 1677.48 801.828 1671.33ZM839.115 1654.17C827.839 1661.7 815.948 1668.57 803.573 1674.77C791.146 1680.97 778.208 1686.49 764.823 1691.32C751.604 1696.08 738.188 1699.99 724.604 1703.1C711.078 1706.2 697.38 1708.45 683.599 1709.83L681.682 1710.03C673.031 1627.62 664.432 1545.21 655.896 1462.83L657.813 1462.64C661.755 1462.24 665.62 1461.63 669.339 1460.78C673.089 1459.93 676.693 1458.89 680.219 1457.65C683.516 1456.47 686.922 1454.97 690.365 1453.2C693.771 1451.42 697.266 1449.36 700.818 1446.99L702.427 1445.93L840.719 1653.13L839.115 1654.17Z" fill="#4C1E7D"/>
</g>
</g>
</svg>
