<svg width="370" height="443" viewBox="0 0 370 443" fill="none" xmlns="http://www.w3.org/2000/svg">
<circle cx="185.199" cy="132.64" r="130.14" fill="#CE1A9E" stroke="white" stroke-width="5"/>
<path d="M30.3862 308.272V310.048H25.8262V325H23.6422V310.048H19.0582V308.272H30.3862ZM34.2026 309.712C33.7866 309.712 33.4346 309.568 33.1466 309.28C32.8586 308.992 32.7146 308.64 32.7146 308.224C32.7146 307.808 32.8586 307.456 33.1466 307.168C33.4346 306.88 33.7866 306.736 34.2026 306.736C34.6026 306.736 34.9386 306.88 35.2106 307.168C35.4986 307.456 35.6426 307.808 35.6426 308.224C35.6426 308.64 35.4986 308.992 35.2106 309.28C34.9386 309.568 34.6026 309.712 34.2026 309.712ZM35.2586 311.848V325H33.0746V311.848H35.2586ZM41.6448 313.648V321.4C41.6448 322.04 41.7808 322.496 42.0528 322.768C42.3248 323.024 42.7968 323.152 43.4688 323.152H45.0768V325H43.1088C41.8928 325 40.9808 324.72 40.3728 324.16C39.7648 323.6 39.4608 322.68 39.4608 321.4V313.648H37.7568V311.848H39.4608V308.536H41.6448V311.848H45.0768V313.648H41.6448ZM48.851 309.712C48.435 309.712 48.083 309.568 47.795 309.28C47.507 308.992 47.363 308.64 47.363 308.224C47.363 307.808 47.507 307.456 47.795 307.168C48.083 306.88 48.435 306.736 48.851 306.736C49.251 306.736 49.587 306.88 49.859 307.168C50.147 307.456 50.291 307.808 50.291 308.224C50.291 308.64 50.147 308.992 49.859 309.28C49.587 309.568 49.251 309.712 48.851 309.712ZM49.907 311.848V325H47.723V311.848H49.907ZM60.9733 325L55.8133 319.192V325H53.6293V307.24H55.8133V317.68L60.8773 311.848H63.9253L57.7333 318.4L63.9493 325H60.9733ZM84.0433 311.848V325H81.8593V323.056C81.4433 323.728 80.8593 324.256 80.1073 324.64C79.3713 325.008 78.5553 325.192 77.6593 325.192C76.6353 325.192 75.7153 324.984 74.8993 324.568C74.0833 324.136 73.4353 323.496 72.9553 322.648C72.4913 321.8 72.2593 320.768 72.2593 319.552V311.848H74.4193V319.264C74.4193 320.56 74.7473 321.56 75.4033 322.264C76.0593 322.952 76.9553 323.296 78.0913 323.296C79.2593 323.296 80.1793 322.936 80.8513 322.216C81.5233 321.496 81.8593 320.448 81.8593 319.072V311.848H84.0433ZM94.1388 311.608C95.7388 311.608 97.0348 312.096 98.0268 313.072C99.0188 314.032 99.5148 315.424 99.5148 317.248V325H97.3548V317.56C97.3548 316.248 97.0268 315.248 96.3708 314.56C95.7148 313.856 94.8188 313.504 93.6828 313.504C92.5308 313.504 91.6108 313.864 90.9228 314.584C90.2508 315.304 89.9148 316.352 89.9148 317.728V325H87.7308V311.848H89.9148V313.72C90.3468 313.048 90.9308 312.528 91.6668 312.16C92.4188 311.792 93.2428 311.608 94.1388 311.608ZM108.506 311.632C109.642 311.632 110.634 311.88 111.482 312.376C112.346 312.872 112.986 313.496 113.402 314.248V311.848H115.61V325.288C115.61 326.488 115.354 327.552 114.842 328.48C114.33 329.424 113.594 330.16 112.634 330.688C111.69 331.216 110.586 331.48 109.322 331.48C107.594 331.48 106.154 331.072 105.002 330.256C103.85 329.44 103.17 328.328 102.962 326.92H105.122C105.362 327.72 105.858 328.36 106.61 328.84C107.362 329.336 108.266 329.584 109.322 329.584C110.522 329.584 111.498 329.208 112.25 328.456C113.018 327.704 113.402 326.648 113.402 325.288V322.528C112.97 323.296 112.33 323.936 111.482 324.448C110.634 324.96 109.642 325.216 108.506 325.216C107.338 325.216 106.274 324.928 105.314 324.352C104.37 323.776 103.626 322.968 103.082 321.928C102.538 320.888 102.266 319.704 102.266 318.376C102.266 317.032 102.538 315.856 103.082 314.848C103.626 313.824 104.37 313.032 105.314 312.472C106.274 311.912 107.338 311.632 108.506 311.632ZM113.402 318.4C113.402 317.408 113.202 316.544 112.802 315.808C112.402 315.072 111.858 314.512 111.17 314.128C110.498 313.728 109.754 313.528 108.938 313.528C108.122 313.528 107.378 313.72 106.706 314.104C106.034 314.488 105.498 315.048 105.098 315.784C104.698 316.52 104.498 317.384 104.498 318.376C104.498 319.384 104.698 320.264 105.098 321.016C105.498 321.752 106.034 322.32 106.706 322.72C107.378 323.104 108.122 323.296 108.938 323.296C109.754 323.296 110.498 323.104 111.17 322.72C111.858 322.32 112.402 321.752 112.802 321.016C113.202 320.264 113.402 319.392 113.402 318.4ZM130.965 311.848V325H128.781V323.056C128.365 323.728 127.781 324.256 127.029 324.64C126.293 325.008 125.477 325.192 124.581 325.192C123.557 325.192 122.637 324.984 121.821 324.568C121.005 324.136 120.357 323.496 119.877 322.648C119.413 321.8 119.181 320.768 119.181 319.552V311.848H121.341V319.264C121.341 320.56 121.669 321.56 122.325 322.264C122.981 322.952 123.877 323.296 125.013 323.296C126.181 323.296 127.101 322.936 127.773 322.216C128.445 321.496 128.781 320.448 128.781 319.072V311.848H130.965ZM143.235 314.296C143.683 313.512 144.339 312.872 145.203 312.376C146.067 311.88 147.051 311.632 148.155 311.632C149.339 311.632 150.403 311.912 151.347 312.472C152.291 313.032 153.035 313.824 153.579 314.848C154.123 315.856 154.395 317.032 154.395 318.376C154.395 319.704 154.123 320.888 153.579 321.928C153.035 322.968 152.283 323.776 151.323 324.352C150.379 324.928 149.323 325.216 148.155 325.216C147.019 325.216 146.019 324.968 145.155 324.472C144.307 323.976 143.667 323.344 143.235 322.576V325H141.051V307.24H143.235V314.296ZM152.163 318.376C152.163 317.384 151.963 316.52 151.563 315.784C151.163 315.048 150.619 314.488 149.931 314.104C149.259 313.72 148.515 313.528 147.699 313.528C146.899 313.528 146.155 313.728 145.467 314.128C144.795 314.512 144.251 315.08 143.835 315.832C143.435 316.568 143.235 317.424 143.235 318.4C143.235 319.392 143.435 320.264 143.835 321.016C144.251 321.752 144.795 322.32 145.467 322.72C146.155 323.104 146.899 323.296 147.699 323.296C148.515 323.296 149.259 323.104 149.931 322.72C150.619 322.32 151.163 321.752 151.563 321.016C151.963 320.264 152.163 319.384 152.163 318.376ZM169.27 317.92C169.27 318.336 169.246 318.776 169.198 319.24H158.686C158.766 320.536 159.206 321.552 160.006 322.288C160.822 323.008 161.806 323.368 162.958 323.368C163.902 323.368 164.686 323.152 165.31 322.72C165.95 322.272 166.398 321.68 166.654 320.944H169.006C168.654 322.208 167.95 323.24 166.894 324.04C165.838 324.824 164.526 325.216 162.958 325.216C161.71 325.216 160.59 324.936 159.598 324.376C158.622 323.816 157.854 323.024 157.294 322C156.734 320.96 156.454 319.76 156.454 318.4C156.454 317.04 156.726 315.848 157.27 314.824C157.814 313.8 158.574 313.016 159.55 312.472C160.542 311.912 161.678 311.632 162.958 311.632C164.206 311.632 165.31 311.904 166.27 312.448C167.23 312.992 167.966 313.744 168.478 314.704C169.006 315.648 169.27 316.72 169.27 317.92ZM167.014 317.464C167.014 316.632 166.83 315.92 166.462 315.328C166.094 314.72 165.59 314.264 164.95 313.96C164.326 313.64 163.63 313.48 162.862 313.48C161.758 313.48 160.814 313.832 160.03 314.536C159.262 315.24 158.822 316.216 158.71 317.464H167.014ZM174.337 313.984C174.721 313.232 175.265 312.648 175.969 312.232C176.689 311.816 177.561 311.608 178.585 311.608V313.864H178.009C175.561 313.864 174.337 315.192 174.337 317.848V325H172.153V311.848H174.337V313.984ZM180.29 318.376C180.29 317.032 180.562 315.856 181.106 314.848C181.65 313.824 182.394 313.032 183.338 312.472C184.298 311.912 185.362 311.632 186.53 311.632C187.682 311.632 188.682 311.88 189.53 312.376C190.378 312.872 191.01 313.496 191.426 314.248V311.848H193.634V325H191.426V322.552C190.994 323.32 190.346 323.96 189.482 324.472C188.634 324.968 187.642 325.216 186.506 325.216C185.338 325.216 184.282 324.928 183.338 324.352C182.394 323.776 181.65 322.968 181.106 321.928C180.562 320.888 180.29 319.704 180.29 318.376ZM191.426 318.4C191.426 317.408 191.226 316.544 190.826 315.808C190.426 315.072 189.882 314.512 189.194 314.128C188.522 313.728 187.778 313.528 186.962 313.528C186.146 313.528 185.402 313.72 184.73 314.104C184.058 314.488 183.522 315.048 183.122 315.784C182.722 316.52 182.522 317.384 182.522 318.376C182.522 319.384 182.722 320.264 183.122 321.016C183.522 321.752 184.058 322.32 184.73 322.72C185.402 323.104 186.146 323.296 186.962 323.296C187.778 323.296 188.522 323.104 189.194 322.72C189.882 322.32 190.426 321.752 190.826 321.016C191.226 320.264 191.426 319.392 191.426 318.4ZM199.509 313.984C199.893 313.232 200.437 312.648 201.141 312.232C201.861 311.816 202.733 311.608 203.757 311.608V313.864H203.181C200.733 313.864 199.509 315.192 199.509 317.848V325H197.325V311.848H199.509V313.984ZM208.942 313.648V321.4C208.942 322.04 209.078 322.496 209.35 322.768C209.622 323.024 210.094 323.152 210.766 323.152H212.374V325H210.406C209.19 325 208.278 324.72 207.67 324.16C207.062 323.6 206.758 322.68 206.758 321.4V313.648H205.054V311.848H206.758V308.536H208.942V311.848H212.374V313.648H208.942ZM216.148 309.712C215.732 309.712 215.38 309.568 215.092 309.28C214.804 308.992 214.66 308.64 214.66 308.224C214.66 307.808 214.804 307.456 215.092 307.168C215.38 306.88 215.732 306.736 216.148 306.736C216.548 306.736 216.884 306.88 217.156 307.168C217.444 307.456 217.588 307.808 217.588 308.224C217.588 308.64 217.444 308.992 217.156 309.28C216.884 309.568 216.548 309.712 216.148 309.712ZM217.204 311.848V325H215.02V311.848H217.204ZM229.509 314.296C229.957 313.512 230.613 312.872 231.477 312.376C232.341 311.88 233.325 311.632 234.429 311.632C235.613 311.632 236.677 311.912 237.621 312.472C238.565 313.032 239.309 313.824 239.853 314.848C240.397 315.856 240.669 317.032 240.669 318.376C240.669 319.704 240.397 320.888 239.853 321.928C239.309 322.968 238.557 323.776 237.597 324.352C236.653 324.928 235.597 325.216 234.429 325.216C233.293 325.216 232.293 324.968 231.429 324.472C230.581 323.976 229.941 323.344 229.509 322.576V325H227.325V307.24H229.509V314.296ZM238.437 318.376C238.437 317.384 238.237 316.52 237.837 315.784C237.437 315.048 236.893 314.488 236.205 314.104C235.533 313.72 234.789 313.528 233.973 313.528C233.173 313.528 232.429 313.728 231.741 314.128C231.069 314.512 230.525 315.08 230.109 315.832C229.709 316.568 229.509 317.424 229.509 318.4C229.509 319.392 229.709 320.264 230.109 321.016C230.525 321.752 231.069 322.32 231.741 322.72C232.429 323.104 233.173 323.296 233.973 323.296C234.789 323.296 235.533 323.104 236.205 322.72C236.893 322.32 237.437 321.752 237.837 321.016C238.237 320.264 238.437 319.384 238.437 318.376ZM242.727 318.376C242.727 317.032 242.999 315.856 243.543 314.848C244.087 313.824 244.831 313.032 245.775 312.472C246.735 311.912 247.799 311.632 248.967 311.632C250.119 311.632 251.119 311.88 251.967 312.376C252.815 312.872 253.447 313.496 253.863 314.248V311.848H256.071V325H253.863V322.552C253.431 323.32 252.783 323.96 251.919 324.472C251.071 324.968 250.079 325.216 248.943 325.216C247.775 325.216 246.719 324.928 245.775 324.352C244.831 323.776 244.087 322.968 243.543 321.928C242.999 320.888 242.727 319.704 242.727 318.376ZM253.863 318.4C253.863 317.408 253.663 316.544 253.263 315.808C252.863 315.072 252.319 314.512 251.631 314.128C250.959 313.728 250.215 313.528 249.399 313.528C248.583 313.528 247.839 313.72 247.167 314.104C246.495 314.488 245.959 315.048 245.559 315.784C245.159 316.52 244.959 317.384 244.959 318.376C244.959 319.384 245.159 320.264 245.559 321.016C245.959 321.752 246.495 322.32 247.167 322.72C247.839 323.104 248.583 323.296 249.399 323.296C250.215 323.296 250.959 323.104 251.631 322.72C252.319 322.32 252.863 321.752 253.263 321.016C253.663 320.264 253.863 319.392 253.863 318.4ZM266.17 311.608C267.77 311.608 269.066 312.096 270.058 313.072C271.05 314.032 271.546 315.424 271.546 317.248V325H269.386V317.56C269.386 316.248 269.058 315.248 268.402 314.56C267.746 313.856 266.85 313.504 265.714 313.504C264.562 313.504 263.642 313.864 262.954 314.584C262.282 315.304 261.946 316.352 261.946 317.728V325H259.762V311.848H261.946V313.72C262.378 313.048 262.962 312.528 263.698 312.16C264.45 311.792 265.274 311.608 266.17 311.608ZM280.538 311.632C281.674 311.632 282.666 311.88 283.514 312.376C284.378 312.872 285.018 313.496 285.434 314.248V311.848H287.642V325.288C287.642 326.488 287.386 327.552 286.874 328.48C286.362 329.424 285.626 330.16 284.666 330.688C283.722 331.216 282.618 331.48 281.354 331.48C279.626 331.48 278.186 331.072 277.034 330.256C275.882 329.44 275.202 328.328 274.994 326.92H277.154C277.394 327.72 277.89 328.36 278.642 328.84C279.394 329.336 280.298 329.584 281.354 329.584C282.554 329.584 283.53 329.208 284.282 328.456C285.05 327.704 285.434 326.648 285.434 325.288V322.528C285.002 323.296 284.362 323.936 283.514 324.448C282.666 324.96 281.674 325.216 280.538 325.216C279.37 325.216 278.306 324.928 277.346 324.352C276.402 323.776 275.658 322.968 275.114 321.928C274.57 320.888 274.298 319.704 274.298 318.376C274.298 317.032 274.57 315.856 275.114 314.848C275.658 313.824 276.402 313.032 277.346 312.472C278.306 311.912 279.37 311.632 280.538 311.632ZM285.434 318.4C285.434 317.408 285.234 316.544 284.834 315.808C284.434 315.072 283.89 314.512 283.202 314.128C282.53 313.728 281.786 313.528 280.97 313.528C280.154 313.528 279.41 313.72 278.738 314.104C278.066 314.488 277.53 315.048 277.13 315.784C276.73 316.52 276.53 317.384 276.53 318.376C276.53 319.384 276.73 320.264 277.13 321.016C277.53 321.752 278.066 322.32 278.738 322.72C279.41 323.104 280.154 323.296 280.97 323.296C281.786 323.296 282.53 323.104 283.202 322.72C283.89 322.32 284.434 321.752 284.834 321.016C285.234 320.264 285.434 319.392 285.434 318.4ZM302.996 311.848V325H300.812V323.056C300.396 323.728 299.812 324.256 299.06 324.64C298.324 325.008 297.508 325.192 296.612 325.192C295.588 325.192 294.668 324.984 293.852 324.568C293.036 324.136 292.388 323.496 291.908 322.648C291.444 321.8 291.212 320.768 291.212 319.552V311.848H293.372V319.264C293.372 320.56 293.7 321.56 294.356 322.264C295.012 322.952 295.908 323.296 297.044 323.296C298.212 323.296 299.132 322.936 299.804 322.216C300.476 321.496 300.812 320.448 300.812 319.072V311.848H302.996ZM313.092 311.608C314.692 311.608 315.988 312.096 316.98 313.072C317.972 314.032 318.468 315.424 318.468 317.248V325H316.308V317.56C316.308 316.248 315.98 315.248 315.324 314.56C314.668 313.856 313.772 313.504 312.636 313.504C311.484 313.504 310.564 313.864 309.876 314.584C309.204 315.304 308.868 316.352 308.868 317.728V325H306.684V311.848H308.868V313.72C309.3 313.048 309.884 312.528 310.62 312.16C311.372 311.792 312.196 311.608 313.092 311.608ZM321.22 318.376C321.22 317.032 321.492 315.856 322.036 314.848C322.58 313.824 323.324 313.032 324.268 312.472C325.228 311.912 326.292 311.632 327.46 311.632C328.612 311.632 329.612 311.88 330.46 312.376C331.308 312.872 331.94 313.496 332.356 314.248V311.848H334.564V325H332.356V322.552C331.924 323.32 331.276 323.96 330.412 324.472C329.564 324.968 328.572 325.216 327.436 325.216C326.268 325.216 325.212 324.928 324.268 324.352C323.324 323.776 322.58 322.968 322.036 321.928C321.492 320.888 321.22 319.704 321.22 318.376ZM332.356 318.4C332.356 317.408 332.156 316.544 331.756 315.808C331.356 315.072 330.812 314.512 330.124 314.128C329.452 313.728 328.708 313.528 327.892 313.528C327.076 313.528 326.332 313.72 325.66 314.104C324.988 314.488 324.452 315.048 324.052 315.784C323.652 316.52 323.452 317.384 323.452 318.376C323.452 319.384 323.652 320.264 324.052 321.016C324.452 321.752 324.988 322.32 325.66 322.72C326.332 323.104 327.076 323.296 327.892 323.296C328.708 323.296 329.452 323.104 330.124 322.72C330.812 322.32 331.356 321.752 331.756 321.016C332.156 320.264 332.356 319.392 332.356 318.4ZM344.662 311.608C346.262 311.608 347.558 312.096 348.55 313.072C349.542 314.032 350.038 315.424 350.038 317.248V325H347.878V317.56C347.878 316.248 347.55 315.248 346.894 314.56C346.238 313.856 345.342 313.504 344.206 313.504C343.054 313.504 342.134 313.864 341.446 314.584C340.774 315.304 340.438 316.352 340.438 317.728V325H338.254V311.848H340.438V313.72C340.87 313.048 341.454 312.528 342.19 312.16C342.942 311.792 343.766 311.608 344.662 311.608ZM20.305 349.648V357.4C20.305 358.04 20.441 358.496 20.713 358.768C20.985 359.024 21.457 359.152 22.129 359.152H23.737V361H21.769C20.553 361 19.641 360.72 19.033 360.16C18.425 359.6 18.121 358.68 18.121 357.4V349.648H16.417V347.848H18.121V344.536H20.305V347.848H23.737V349.648H20.305ZM38.3832 353.92C38.3832 354.336 38.3592 354.776 38.3112 355.24H27.7992C27.8792 356.536 28.3192 357.552 29.1192 358.288C29.9352 359.008 30.9192 359.368 32.0712 359.368C33.0152 359.368 33.7992 359.152 34.4232 358.72C35.0632 358.272 35.5112 357.68 35.7672 356.944H38.1192C37.7672 358.208 37.0632 359.24 36.0072 360.04C34.9512 360.824 33.6392 361.216 32.0712 361.216C30.8232 361.216 29.7032 360.936 28.7112 360.376C27.7352 359.816 26.9672 359.024 26.4072 358C25.8472 356.96 25.5672 355.76 25.5672 354.4C25.5672 353.04 25.8392 351.848 26.3832 350.824C26.9272 349.8 27.6872 349.016 28.6632 348.472C29.6552 347.912 30.7912 347.632 32.0712 347.632C33.3192 347.632 34.4232 347.904 35.3832 348.448C36.3432 348.992 37.0792 349.744 37.5912 350.704C38.1192 351.648 38.3832 352.72 38.3832 353.92ZM36.1272 353.464C36.1272 352.632 35.9432 351.92 35.5752 351.328C35.2072 350.72 34.7032 350.264 34.0632 349.96C33.4392 349.64 32.7432 349.48 31.9752 349.48C30.8712 349.48 29.9272 349.832 29.1432 350.536C28.3752 351.24 27.9352 352.216 27.8232 353.464H36.1272ZM43.45 349.984C43.834 349.232 44.378 348.648 45.082 348.232C45.802 347.816 46.674 347.608 47.698 347.608V349.864H47.122C44.674 349.864 43.45 351.192 43.45 353.848V361H41.266V347.848H43.45V349.984ZM54.8751 361.216C53.8671 361.216 52.9631 361.048 52.1631 360.712C51.3631 360.36 50.7311 359.88 50.2671 359.272C49.8031 358.648 49.5471 357.936 49.4991 357.136H51.7551C51.8191 357.792 52.1231 358.328 52.6671 358.744C53.2271 359.16 53.9551 359.368 54.8511 359.368C55.6831 359.368 56.3391 359.184 56.8191 358.816C57.2991 358.448 57.5391 357.984 57.5391 357.424C57.5391 356.848 57.2831 356.424 56.7711 356.152C56.2591 355.864 55.4671 355.584 54.3951 355.312C53.4191 355.056 52.6191 354.8 51.9951 354.544C51.3871 354.272 50.8591 353.88 50.4111 353.368C49.9791 352.84 49.7631 352.152 49.7631 351.304C49.7631 350.632 49.9631 350.016 50.3631 349.456C50.7631 348.896 51.3311 348.456 52.0671 348.136C52.8031 347.8 53.6431 347.632 54.5871 347.632C56.0431 347.632 57.2191 348 58.1151 348.736C59.0111 349.472 59.4911 350.48 59.5551 351.76H57.3711C57.3231 351.072 57.0431 350.52 56.5311 350.104C56.0351 349.688 55.3631 349.48 54.5151 349.48C53.7311 349.48 53.1071 349.648 52.6431 349.984C52.1791 350.32 51.9471 350.76 51.9471 351.304C51.9471 351.736 52.0831 352.096 52.3551 352.384C52.6431 352.656 52.9951 352.88 53.4111 353.056C53.8431 353.216 54.4351 353.4 55.1871 353.608C56.1311 353.864 56.8991 354.12 57.4911 354.376C58.0831 354.616 58.5871 354.984 59.0031 355.48C59.4351 355.976 59.6591 356.624 59.6751 357.424C59.6751 358.144 59.4751 358.792 59.0751 359.368C58.6751 359.944 58.1071 360.4 57.3711 360.736C56.6511 361.056 55.8191 361.216 54.8751 361.216ZM74.7582 353.92C74.7582 354.336 74.7342 354.776 74.6862 355.24H64.1742C64.2542 356.536 64.6942 357.552 65.4942 358.288C66.3102 359.008 67.2942 359.368 68.4462 359.368C69.3902 359.368 70.1742 359.152 70.7982 358.72C71.4382 358.272 71.8862 357.68 72.1422 356.944H74.4942C74.1422 358.208 73.4382 359.24 72.3822 360.04C71.3262 360.824 70.0142 361.216 68.4462 361.216C67.1982 361.216 66.0782 360.936 65.0862 360.376C64.1102 359.816 63.3422 359.024 62.7822 358C62.2222 356.96 61.9422 355.76 61.9422 354.4C61.9422 353.04 62.2142 351.848 62.7582 350.824C63.3022 349.8 64.0622 349.016 65.0382 348.472C66.0302 347.912 67.1662 347.632 68.4462 347.632C69.6942 347.632 70.7982 347.904 71.7582 348.448C72.7182 348.992 73.4542 349.744 73.9662 350.704C74.4942 351.648 74.7582 352.72 74.7582 353.92ZM72.5022 353.464C72.5022 352.632 72.3182 351.92 71.9502 351.328C71.5822 350.72 71.0782 350.264 70.4382 349.96C69.8142 349.64 69.1182 349.48 68.3502 349.48C67.2462 349.48 66.3022 349.832 65.5182 350.536C64.7502 351.24 64.3102 352.216 64.1982 353.464H72.5022ZM79.825 350.296C80.273 349.512 80.929 348.872 81.793 348.376C82.657 347.88 83.641 347.632 84.745 347.632C85.929 347.632 86.993 347.912 87.937 348.472C88.881 349.032 89.625 349.824 90.169 350.848C90.713 351.856 90.985 353.032 90.985 354.376C90.985 355.704 90.713 356.888 90.169 357.928C89.625 358.968 88.873 359.776 87.913 360.352C86.969 360.928 85.913 361.216 84.745 361.216C83.609 361.216 82.609 360.968 81.745 360.472C80.897 359.976 80.257 359.344 79.825 358.576V361H77.641V343.24H79.825V350.296ZM88.753 354.376C88.753 353.384 88.553 352.52 88.153 351.784C87.753 351.048 87.209 350.488 86.521 350.104C85.849 349.72 85.105 349.528 84.289 349.528C83.489 349.528 82.745 349.728 82.057 350.128C81.385 350.512 80.841 351.08 80.425 351.832C80.025 352.568 79.825 353.424 79.825 354.4C79.825 355.392 80.025 356.264 80.425 357.016C80.841 357.752 81.385 358.32 82.057 358.72C82.745 359.104 83.489 359.296 84.289 359.296C85.105 359.296 85.849 359.104 86.521 358.72C87.209 358.32 87.753 357.752 88.153 357.016C88.553 356.264 88.753 355.384 88.753 354.376ZM105.524 347.848V361H103.34V359.056C102.924 359.728 102.34 360.256 101.588 360.64C100.852 361.008 100.036 361.192 99.1397 361.192C98.1157 361.192 97.1957 360.984 96.3797 360.568C95.5637 360.136 94.9157 359.496 94.4357 358.648C93.9717 357.8 93.7397 356.768 93.7397 355.552V347.848H95.8997V355.264C95.8997 356.56 96.2277 357.56 96.8837 358.264C97.5397 358.952 98.4357 359.296 99.5717 359.296C100.74 359.296 101.66 358.936 102.332 358.216C103.004 357.496 103.34 356.448 103.34 355.072V347.848H105.524ZM111.875 349.648V357.4C111.875 358.04 112.011 358.496 112.283 358.768C112.555 359.024 113.027 359.152 113.699 359.152H115.307V361H113.339C112.123 361 111.211 360.72 110.603 360.16C109.995 359.6 109.691 358.68 109.691 357.4V349.648H107.987V347.848H109.691V344.536H111.875V347.848H115.307V349.648H111.875ZM127.016 349.648V357.4C127.016 358.04 127.152 358.496 127.424 358.768C127.696 359.024 128.168 359.152 128.84 359.152H130.448V361H128.48C127.264 361 126.352 360.72 125.744 360.16C125.136 359.6 124.832 358.68 124.832 357.4V349.648H123.128V347.848H124.832V344.536H127.016V347.848H130.448V349.648H127.016ZM134.222 345.712C133.806 345.712 133.454 345.568 133.166 345.28C132.878 344.992 132.734 344.64 132.734 344.224C132.734 343.808 132.878 343.456 133.166 343.168C133.454 342.88 133.806 342.736 134.222 342.736C134.622 342.736 134.958 342.88 135.23 343.168C135.518 343.456 135.662 343.808 135.662 344.224C135.662 344.64 135.518 344.992 135.23 345.28C134.958 345.568 134.622 345.712 134.222 345.712ZM135.278 347.848V361H133.094V347.848H135.278ZM138.184 354.376C138.184 353.032 138.456 351.856 139 350.848C139.544 349.824 140.288 349.032 141.232 348.472C142.192 347.912 143.264 347.632 144.448 347.632C145.472 347.632 146.424 347.872 147.304 348.352C148.184 348.816 148.856 349.432 149.32 350.2V343.24H151.528V361H149.32V358.528C148.888 359.312 148.248 359.96 147.4 360.472C146.552 360.968 145.56 361.216 144.424 361.216C143.256 361.216 142.192 360.928 141.232 360.352C140.288 359.776 139.544 358.968 139 357.928C138.456 356.888 138.184 355.704 138.184 354.376ZM149.32 354.4C149.32 353.408 149.12 352.544 148.72 351.808C148.32 351.072 147.776 350.512 147.088 350.128C146.416 349.728 145.672 349.528 144.856 349.528C144.04 349.528 143.296 349.72 142.624 350.104C141.952 350.488 141.416 351.048 141.016 351.784C140.616 352.52 140.416 353.384 140.416 354.376C140.416 355.384 140.616 356.264 141.016 357.016C141.416 357.752 141.952 358.32 142.624 358.72C143.296 359.104 144.04 359.296 144.856 359.296C145.672 359.296 146.416 359.104 147.088 358.72C147.776 358.32 148.32 357.752 148.72 357.016C149.12 356.264 149.32 355.392 149.32 354.4ZM154.403 354.376C154.403 353.032 154.675 351.856 155.219 350.848C155.763 349.824 156.507 349.032 157.451 348.472C158.411 347.912 159.475 347.632 160.643 347.632C161.795 347.632 162.795 347.88 163.643 348.376C164.491 348.872 165.123 349.496 165.539 350.248V347.848H167.747V361H165.539V358.552C165.107 359.32 164.459 359.96 163.595 360.472C162.747 360.968 161.755 361.216 160.619 361.216C159.451 361.216 158.395 360.928 157.451 360.352C156.507 359.776 155.763 358.968 155.219 357.928C154.675 356.888 154.403 355.704 154.403 354.376ZM165.539 354.4C165.539 353.408 165.339 352.544 164.939 351.808C164.539 351.072 163.995 350.512 163.307 350.128C162.635 349.728 161.891 349.528 161.075 349.528C160.259 349.528 159.515 349.72 158.843 350.104C158.171 350.488 157.635 351.048 157.235 351.784C156.835 352.52 156.635 353.384 156.635 354.376C156.635 355.384 156.835 356.264 157.235 357.016C157.635 357.752 158.171 358.32 158.843 358.72C159.515 359.104 160.259 359.296 161.075 359.296C161.891 359.296 162.635 359.104 163.307 358.72C163.995 358.32 164.539 357.752 164.939 357.016C165.339 356.264 165.539 355.392 165.539 354.4ZM178.782 361L173.622 355.192V361H171.438V343.24H173.622V353.68L178.686 347.848H181.734L175.542 354.4L181.758 361H178.782ZM189.372 354.376C189.372 353.032 189.644 351.856 190.188 350.848C190.732 349.824 191.476 349.032 192.42 348.472C193.38 347.912 194.452 347.632 195.636 347.632C196.66 347.632 197.612 347.872 198.492 348.352C199.372 348.816 200.044 349.432 200.508 350.2V343.24H202.716V361H200.508V358.528C200.076 359.312 199.436 359.96 198.588 360.472C197.74 360.968 196.748 361.216 195.612 361.216C194.444 361.216 193.38 360.928 192.42 360.352C191.476 359.776 190.732 358.968 190.188 357.928C189.644 356.888 189.372 355.704 189.372 354.376ZM200.508 354.4C200.508 353.408 200.308 352.544 199.908 351.808C199.508 351.072 198.964 350.512 198.276 350.128C197.604 349.728 196.86 349.528 196.044 349.528C195.228 349.528 194.484 349.72 193.812 350.104C193.14 350.488 192.604 351.048 192.204 351.784C191.804 352.52 191.604 353.384 191.604 354.376C191.604 355.384 191.804 356.264 192.204 357.016C192.604 357.752 193.14 358.32 193.812 358.72C194.484 359.104 195.228 359.296 196.044 359.296C196.86 359.296 197.604 359.104 198.276 358.72C198.964 358.32 199.508 357.752 199.908 357.016C200.308 356.264 200.508 355.392 200.508 354.4ZM205.591 354.376C205.591 353.032 205.863 351.856 206.407 350.848C206.951 349.824 207.695 349.032 208.639 348.472C209.599 347.912 210.663 347.632 211.831 347.632C212.983 347.632 213.983 347.88 214.831 348.376C215.679 348.872 216.311 349.496 216.727 350.248V347.848H218.935V361H216.727V358.552C216.295 359.32 215.647 359.96 214.783 360.472C213.935 360.968 212.943 361.216 211.807 361.216C210.639 361.216 209.583 360.928 208.639 360.352C207.695 359.776 206.951 358.968 206.407 357.928C205.863 356.888 205.591 355.704 205.591 354.376ZM216.727 354.4C216.727 353.408 216.527 352.544 216.127 351.808C215.727 351.072 215.183 350.512 214.495 350.128C213.823 349.728 213.079 349.528 212.263 349.528C211.447 349.528 210.703 349.72 210.031 350.104C209.359 350.488 208.823 351.048 208.423 351.784C208.023 352.52 207.823 353.384 207.823 354.376C207.823 355.384 208.023 356.264 208.423 357.016C208.823 357.752 209.359 358.32 210.031 358.72C210.703 359.104 211.447 359.296 212.263 359.296C213.079 359.296 213.823 359.104 214.495 358.72C215.183 358.32 215.727 357.752 216.127 357.016C216.527 356.264 216.727 355.392 216.727 354.4ZM224.809 350.272C225.241 349.52 225.881 348.896 226.729 348.4C227.593 347.888 228.593 347.632 229.729 347.632C230.897 347.632 231.953 347.912 232.897 348.472C233.857 349.032 234.609 349.824 235.153 350.848C235.697 351.856 235.969 353.032 235.969 354.376C235.969 355.704 235.697 356.888 235.153 357.928C234.609 358.968 233.857 359.776 232.897 360.352C231.953 360.928 230.897 361.216 229.729 361.216C228.609 361.216 227.617 360.968 226.753 360.472C225.905 359.96 225.257 359.328 224.809 358.576V367.24H222.625V347.848H224.809V350.272ZM233.737 354.376C233.737 353.384 233.537 352.52 233.137 351.784C232.737 351.048 232.193 350.488 231.505 350.104C230.833 349.72 230.089 349.528 229.273 349.528C228.473 349.528 227.729 349.728 227.041 350.128C226.369 350.512 225.825 351.08 225.409 351.832C225.009 352.568 224.809 353.424 224.809 354.4C224.809 355.392 225.009 356.264 225.409 357.016C225.825 357.752 226.369 358.32 227.041 358.72C227.729 359.104 228.473 359.296 229.273 359.296C230.089 359.296 230.833 359.104 231.505 358.72C232.193 358.32 232.737 357.752 233.137 357.016C233.537 356.264 233.737 355.384 233.737 354.376ZM238.028 354.376C238.028 353.032 238.3 351.856 238.844 350.848C239.388 349.824 240.132 349.032 241.076 348.472C242.036 347.912 243.1 347.632 244.268 347.632C245.42 347.632 246.42 347.88 247.268 348.376C248.116 348.872 248.748 349.496 249.164 350.248V347.848H251.372V361H249.164V358.552C248.732 359.32 248.084 359.96 247.22 360.472C246.372 360.968 245.38 361.216 244.244 361.216C243.076 361.216 242.02 360.928 241.076 360.352C240.132 359.776 239.388 358.968 238.844 357.928C238.3 356.888 238.028 355.704 238.028 354.376ZM249.164 354.4C249.164 353.408 248.964 352.544 248.564 351.808C248.164 351.072 247.62 350.512 246.932 350.128C246.26 349.728 245.516 349.528 244.7 349.528C243.884 349.528 243.14 349.72 242.468 350.104C241.796 350.488 241.26 351.048 240.86 351.784C240.46 352.52 240.26 353.384 240.26 354.376C240.26 355.384 240.46 356.264 240.86 357.016C241.26 357.752 241.796 358.32 242.468 358.72C243.14 359.104 243.884 359.296 244.7 359.296C245.516 359.296 246.26 359.104 246.932 358.72C247.62 358.32 248.164 357.752 248.564 357.016C248.964 356.264 249.164 355.392 249.164 354.4ZM257.727 349.648V357.4C257.727 358.04 257.863 358.496 258.135 358.768C258.407 359.024 258.879 359.152 259.551 359.152H261.159V361H259.191C257.975 361 257.063 360.72 256.455 360.16C255.847 359.6 255.543 358.68 255.543 357.4V349.648H253.839V347.848H255.543V344.536H257.727V347.848H261.159V349.648H257.727ZM269.387 354.376C269.387 353.032 269.659 351.856 270.203 350.848C270.747 349.824 271.491 349.032 272.435 348.472C273.395 347.912 274.467 347.632 275.651 347.632C276.675 347.632 277.627 347.872 278.507 348.352C279.387 348.816 280.059 349.432 280.523 350.2V343.24H282.731V361H280.523V358.528C280.091 359.312 279.451 359.96 278.603 360.472C277.755 360.968 276.763 361.216 275.627 361.216C274.459 361.216 273.395 360.928 272.435 360.352C271.491 359.776 270.747 358.968 270.203 357.928C269.659 356.888 269.387 355.704 269.387 354.376ZM280.523 354.4C280.523 353.408 280.323 352.544 279.923 351.808C279.523 351.072 278.979 350.512 278.291 350.128C277.619 349.728 276.875 349.528 276.059 349.528C275.243 349.528 274.499 349.72 273.827 350.104C273.155 350.488 272.619 351.048 272.219 351.784C271.819 352.52 271.619 353.384 271.619 354.376C271.619 355.384 271.819 356.264 272.219 357.016C272.619 357.752 273.155 358.32 273.827 358.72C274.499 359.104 275.243 359.296 276.059 359.296C276.875 359.296 277.619 359.104 278.291 358.72C278.979 358.32 279.523 357.752 279.923 357.016C280.323 356.264 280.523 355.392 280.523 354.4ZM287.55 345.712C287.134 345.712 286.782 345.568 286.494 345.28C286.206 344.992 286.062 344.64 286.062 344.224C286.062 343.808 286.206 343.456 286.494 343.168C286.782 342.88 287.134 342.736 287.55 342.736C287.95 342.736 288.286 342.88 288.558 343.168C288.846 343.456 288.99 343.808 288.99 344.224C288.99 344.64 288.846 344.992 288.558 345.28C288.286 345.568 287.95 345.712 287.55 345.712ZM288.606 347.848V361H286.422V347.848H288.606ZM295.736 361.216C294.36 361.216 293.232 360.888 292.352 360.232C291.472 359.576 291.032 358.696 291.032 357.592C291.032 357.384 291.04 357.232 291.056 357.136H293.192C293.128 357.824 293.328 358.384 293.792 358.816C294.272 359.248 294.96 359.464 295.856 359.464C296.752 359.464 297.472 359.296 298.016 358.96C298.576 358.608 298.856 358.12 298.856 357.496C298.856 356.968 298.632 356.552 298.184 356.248C297.736 355.944 297.048 355.616 296.12 355.264C295.304 354.96 294.632 354.672 294.104 354.4C293.576 354.128 293.128 353.752 292.76 353.272C292.392 352.776 292.208 352.152 292.208 351.4C292.208 350.664 292.416 350.008 292.832 349.432C293.264 348.856 293.856 348.416 294.608 348.112C295.376 347.792 296.248 347.632 297.224 347.632C298.568 347.632 299.672 347.968 300.536 348.64C301.4 349.312 301.832 350.192 301.832 351.28C301.832 351.488 301.824 351.648 301.808 351.76H299.72L299.744 351.472C299.744 350.832 299.496 350.328 299 349.96C298.52 349.576 297.88 349.384 297.08 349.384C296.296 349.384 295.648 349.56 295.136 349.912C294.64 350.264 294.392 350.736 294.392 351.328C294.392 351.888 294.624 352.328 295.088 352.648C295.552 352.968 296.272 353.32 297.248 353.704C298.064 354.024 298.72 354.32 299.216 354.592C299.712 354.848 300.136 355.208 300.488 355.672C300.84 356.136 301.016 356.72 301.016 357.424C301.016 358.192 300.784 358.864 300.32 359.44C299.872 360.016 299.248 360.456 298.448 360.76C297.648 361.064 296.744 361.216 295.736 361.216ZM303.98 354.4C304.22 353.04 304.7 351.856 305.42 350.848C306.156 349.824 307.06 349.032 308.132 348.472C309.204 347.912 310.364 347.632 311.612 347.632C313.228 347.632 314.484 348.024 315.38 348.808C316.292 349.592 316.796 350.68 316.892 352.072H314.54C314.46 351.272 314.132 350.64 313.556 350.176C312.996 349.712 312.236 349.48 311.276 349.48C310.028 349.48 308.94 349.912 308.012 350.776C307.1 351.624 306.508 352.832 306.236 354.4C306.156 354.928 306.116 355.368 306.116 355.72C306.116 356.888 306.428 357.792 307.052 358.432C307.676 359.056 308.508 359.368 309.548 359.368C310.508 359.368 311.34 359.144 312.044 358.696C312.764 358.248 313.316 357.608 313.7 356.776H316.052C315.476 358.12 314.588 359.2 313.388 360.016C312.188 360.816 310.796 361.216 309.212 361.216C307.564 361.216 306.252 360.744 305.276 359.8C304.316 358.856 303.836 357.568 303.836 355.936C303.836 355.44 303.884 354.928 303.98 354.4ZM318.558 354.376C318.798 353.032 319.278 351.856 319.998 350.848C320.734 349.824 321.622 349.032 322.662 348.472C323.718 347.912 324.838 347.632 326.022 347.632C327.174 347.632 328.126 347.88 328.878 348.376C329.63 348.872 330.15 349.496 330.438 350.248L330.87 347.848H333.078L330.75 361H328.542L328.998 358.552C328.422 359.32 327.662 359.96 326.718 360.472C325.774 360.968 324.734 361.216 323.598 361.216C322.574 361.216 321.67 361 320.886 360.568C320.102 360.12 319.494 359.488 319.062 358.672C318.63 357.856 318.414 356.912 318.414 355.84C318.414 355.36 318.462 354.872 318.558 354.376ZM329.718 354.4C329.782 354.064 329.814 353.704 329.814 353.32C329.814 352.152 329.462 351.232 328.758 350.56C328.07 349.872 327.19 349.528 326.118 349.528C325.302 349.528 324.518 349.72 323.766 350.104C323.03 350.488 322.398 351.048 321.87 351.784C321.342 352.52 320.99 353.384 320.814 354.376C320.75 354.712 320.718 355.08 320.718 355.48C320.718 356.664 321.062 357.6 321.75 358.288C322.438 358.96 323.318 359.296 324.39 359.296C325.206 359.296 325.982 359.104 326.718 358.72C327.47 358.32 328.11 357.752 328.638 357.016C329.182 356.264 329.542 355.392 329.718 354.4ZM343.224 347.608C344.584 347.608 345.672 347.976 346.488 348.712C347.304 349.432 347.712 350.488 347.712 351.88C347.712 352.392 347.672 352.848 347.592 353.248L346.224 361H344.064L345.384 353.56C345.448 353.224 345.48 352.872 345.48 352.504C345.48 351.528 345.208 350.784 344.664 350.272C344.136 349.76 343.392 349.504 342.432 349.504C341.28 349.504 340.296 349.864 339.48 350.584C338.68 351.304 338.16 352.352 337.92 353.728V353.68L336.624 361H334.44L336.768 347.848H338.952L338.616 349.744C339.16 349.056 339.84 348.528 340.656 348.16C341.472 347.792 342.328 347.608 343.224 347.608ZM351.712 361.144C351.296 361.144 350.944 361 350.656 360.712C350.368 360.424 350.224 360.072 350.224 359.656C350.224 359.24 350.368 358.888 350.656 358.6C350.944 358.312 351.296 358.168 351.712 358.168C352.112 358.168 352.448 358.312 352.72 358.6C353.008 358.888 353.152 359.24 353.152 359.656C353.152 360.072 353.008 360.424 352.72 360.712C352.448 361 352.112 361.144 351.712 361.144ZM47.3638 385.12C46.8998 384.144 46.2278 383.392 45.3478 382.864C44.4678 382.32 43.4438 382.048 42.2758 382.048C41.1078 382.048 40.0518 382.32 39.1078 382.864C38.1798 383.392 37.4438 384.16 36.8998 385.168C36.3718 386.16 36.1078 387.312 36.1078 388.624C36.1078 389.936 36.3718 391.088 36.8998 392.08C37.4438 393.072 38.1798 393.84 39.1078 394.384C40.0518 394.912 41.1078 395.176 42.2758 395.176C43.9078 395.176 45.2518 394.688 46.3078 393.712C47.3638 392.736 47.9798 391.416 48.1558 389.752H41.4838V387.976H50.4838V389.656C50.3558 391.032 49.9238 392.296 49.1878 393.448C48.4518 394.584 47.4838 395.488 46.2838 396.16C45.0838 396.816 43.7478 397.144 42.2758 397.144C40.7238 397.144 39.3078 396.784 38.0278 396.064C36.7478 395.328 35.7318 394.312 34.9798 393.016C34.2438 391.72 33.8758 390.256 33.8758 388.624C33.8758 386.992 34.2438 385.528 34.9798 384.232C35.7318 382.92 36.7478 381.904 38.0278 381.184C39.3078 380.448 40.7238 380.08 42.2758 380.08C44.0518 380.08 45.6198 380.52 46.9798 381.4C48.3558 382.28 49.3558 383.52 49.9798 385.12H47.3638ZM52.5554 390.376C52.5554 389.032 52.8274 387.856 53.3714 386.848C53.9154 385.824 54.6594 385.032 55.6034 384.472C56.5634 383.912 57.6274 383.632 58.7954 383.632C59.9474 383.632 60.9474 383.88 61.7954 384.376C62.6434 384.872 63.2754 385.496 63.6914 386.248V383.848H65.8994V397H63.6914V394.552C63.2594 395.32 62.6114 395.96 61.7474 396.472C60.8994 396.968 59.9074 397.216 58.7714 397.216C57.6034 397.216 56.5474 396.928 55.6034 396.352C54.6594 395.776 53.9154 394.968 53.3714 393.928C52.8274 392.888 52.5554 391.704 52.5554 390.376ZM63.6914 390.4C63.6914 389.408 63.4914 388.544 63.0914 387.808C62.6914 387.072 62.1474 386.512 61.4594 386.128C60.7874 385.728 60.0434 385.528 59.2274 385.528C58.4114 385.528 57.6674 385.72 56.9954 386.104C56.3234 386.488 55.7874 387.048 55.3874 387.784C54.9874 388.52 54.7874 389.384 54.7874 390.376C54.7874 391.384 54.9874 392.264 55.3874 393.016C55.7874 393.752 56.3234 394.32 56.9954 394.72C57.6674 395.104 58.4114 395.296 59.2274 395.296C60.0434 395.296 60.7874 395.104 61.4594 394.72C62.1474 394.32 62.6914 393.752 63.0914 393.016C63.4914 392.264 63.6914 391.392 63.6914 390.4ZM85.4062 383.608C86.4302 383.608 87.3422 383.824 88.1422 384.256C88.9422 384.672 89.5742 385.304 90.0382 386.152C90.5022 387 90.7342 388.032 90.7342 389.248V397H88.5742V389.56C88.5742 388.248 88.2462 387.248 87.5902 386.56C86.9502 385.856 86.0782 385.504 84.9742 385.504C83.8382 385.504 82.9342 385.872 82.2622 386.608C81.5902 387.328 81.2542 388.376 81.2542 389.752V397H79.0942V389.56C79.0942 388.248 78.7662 387.248 78.1102 386.56C77.4702 385.856 76.5982 385.504 75.4942 385.504C74.3582 385.504 73.4542 385.872 72.7822 386.608C72.1102 387.328 71.7742 388.376 71.7742 389.752V397H69.5902V383.848H71.7742V385.744C72.2062 385.056 72.7822 384.528 73.5022 384.16C74.2382 383.792 75.0462 383.608 75.9262 383.608C77.0302 383.608 78.0062 383.856 78.8542 384.352C79.7022 384.848 80.3342 385.576 80.7502 386.536C81.1182 385.608 81.7262 384.888 82.5742 384.376C83.4222 383.864 84.3662 383.608 85.4062 383.608ZM96.5008 386.296C96.9488 385.512 97.6048 384.872 98.4688 384.376C99.3328 383.88 100.317 383.632 101.421 383.632C102.605 383.632 103.669 383.912 104.613 384.472C105.557 385.032 106.301 385.824 106.845 386.848C107.389 387.856 107.661 389.032 107.661 390.376C107.661 391.704 107.389 392.888 106.845 393.928C106.301 394.968 105.549 395.776 104.589 396.352C103.645 396.928 102.589 397.216 101.421 397.216C100.285 397.216 99.2848 396.968 98.4208 396.472C97.5728 395.976 96.9328 395.344 96.5008 394.576V397H94.3168V379.24H96.5008V386.296ZM105.429 390.376C105.429 389.384 105.229 388.52 104.829 387.784C104.429 387.048 103.885 386.488 103.197 386.104C102.525 385.72 101.781 385.528 100.965 385.528C100.165 385.528 99.4208 385.728 98.7328 386.128C98.0608 386.512 97.5168 387.08 97.1008 387.832C96.7008 388.568 96.5008 389.424 96.5008 390.4C96.5008 391.392 96.7008 392.264 97.1008 393.016C97.5168 393.752 98.0608 394.32 98.7328 394.72C99.4208 395.104 100.165 395.296 100.965 395.296C101.781 395.296 102.525 395.104 103.197 394.72C103.885 394.32 104.429 393.752 104.829 393.016C105.229 392.264 105.429 391.384 105.429 390.376ZM109.72 390.376C109.72 389.032 109.992 387.856 110.536 386.848C111.08 385.824 111.824 385.032 112.768 384.472C113.728 383.912 114.792 383.632 115.96 383.632C117.112 383.632 118.112 383.88 118.96 384.376C119.808 384.872 120.44 385.496 120.856 386.248V383.848H123.064V397H120.856V394.552C120.424 395.32 119.776 395.96 118.912 396.472C118.064 396.968 117.072 397.216 115.936 397.216C114.768 397.216 113.712 396.928 112.768 396.352C111.824 395.776 111.08 394.968 110.536 393.928C109.992 392.888 109.72 391.704 109.72 390.376ZM120.856 390.4C120.856 389.408 120.656 388.544 120.256 387.808C119.856 387.072 119.312 386.512 118.624 386.128C117.952 385.728 117.208 385.528 116.392 385.528C115.576 385.528 114.832 385.72 114.16 386.104C113.488 386.488 112.952 387.048 112.552 387.784C112.152 388.52 111.952 389.384 111.952 390.376C111.952 391.384 112.152 392.264 112.552 393.016C112.952 393.752 113.488 394.32 114.16 394.72C114.832 395.104 115.576 395.296 116.392 395.296C117.208 395.296 117.952 395.104 118.624 394.72C119.312 394.32 119.856 393.752 120.256 393.016C120.656 392.264 120.856 391.392 120.856 390.4ZM128.938 385.984C129.322 385.232 129.866 384.648 130.57 384.232C131.29 383.816 132.162 383.608 133.186 383.608V385.864H132.61C130.162 385.864 128.938 387.192 128.938 389.848V397H126.754V383.848H128.938V385.984ZM153.434 383.848L145.514 403.192H143.258L145.85 396.856L140.546 383.848H142.97L147.098 394.504L151.178 383.848H153.434ZM154.813 390.376C154.813 389.032 155.085 387.856 155.629 386.848C156.173 385.824 156.917 385.032 157.861 384.472C158.821 383.912 159.885 383.632 161.053 383.632C162.205 383.632 163.205 383.88 164.053 384.376C164.901 384.872 165.533 385.496 165.949 386.248V383.848H168.157V397H165.949V394.552C165.517 395.32 164.869 395.96 164.005 396.472C163.157 396.968 162.165 397.216 161.029 397.216C159.861 397.216 158.805 396.928 157.861 396.352C156.917 395.776 156.173 394.968 155.629 393.928C155.085 392.888 154.813 391.704 154.813 390.376ZM165.949 390.4C165.949 389.408 165.749 388.544 165.349 387.808C164.949 387.072 164.405 386.512 163.717 386.128C163.045 385.728 162.301 385.528 161.485 385.528C160.669 385.528 159.925 385.72 159.253 386.104C158.581 386.488 158.045 387.048 157.645 387.784C157.245 388.52 157.045 389.384 157.045 390.376C157.045 391.384 157.245 392.264 157.645 393.016C158.045 393.752 158.581 394.32 159.253 394.72C159.925 395.104 160.669 395.296 161.485 395.296C162.301 395.296 163.045 395.104 163.717 394.72C164.405 394.32 164.949 393.752 165.349 393.016C165.749 392.264 165.949 391.392 165.949 390.4ZM178.256 383.608C179.856 383.608 181.152 384.096 182.144 385.072C183.136 386.032 183.632 387.424 183.632 389.248V397H181.472V389.56C181.472 388.248 181.144 387.248 180.488 386.56C179.832 385.856 178.936 385.504 177.8 385.504C176.648 385.504 175.728 385.864 175.04 386.584C174.368 387.304 174.032 388.352 174.032 389.728V397H171.848V383.848H174.032V385.72C174.464 385.048 175.048 384.528 175.784 384.16C176.536 383.792 177.36 383.608 178.256 383.608ZM192.624 383.632C193.76 383.632 194.752 383.88 195.6 384.376C196.464 384.872 197.104 385.496 197.52 386.248V383.848H199.728V397.288C199.728 398.488 199.472 399.552 198.96 400.48C198.448 401.424 197.712 402.16 196.752 402.688C195.808 403.216 194.704 403.48 193.44 403.48C191.712 403.48 190.272 403.072 189.12 402.256C187.968 401.44 187.288 400.328 187.08 398.92H189.24C189.48 399.72 189.976 400.36 190.728 400.84C191.48 401.336 192.384 401.584 193.44 401.584C194.64 401.584 195.616 401.208 196.368 400.456C197.136 399.704 197.52 398.648 197.52 397.288V394.528C197.088 395.296 196.448 395.936 195.6 396.448C194.752 396.96 193.76 397.216 192.624 397.216C191.456 397.216 190.392 396.928 189.432 396.352C188.488 395.776 187.744 394.968 187.2 393.928C186.656 392.888 186.384 391.704 186.384 390.376C186.384 389.032 186.656 387.856 187.2 386.848C187.744 385.824 188.488 385.032 189.432 384.472C190.392 383.912 191.456 383.632 192.624 383.632ZM197.52 390.4C197.52 389.408 197.32 388.544 196.92 387.808C196.52 387.072 195.976 386.512 195.288 386.128C194.616 385.728 193.872 385.528 193.056 385.528C192.24 385.528 191.496 385.72 190.824 386.104C190.152 386.488 189.616 387.048 189.216 387.784C188.816 388.52 188.616 389.384 188.616 390.376C188.616 391.384 188.816 392.264 189.216 393.016C189.616 393.752 190.152 394.32 190.824 394.72C191.496 395.104 192.24 395.296 193.056 395.296C193.872 395.296 194.616 395.104 195.288 394.72C195.976 394.32 196.52 393.752 196.92 393.016C197.32 392.264 197.52 391.392 197.52 390.4ZM209.001 390.376C209.001 389.032 209.273 387.856 209.817 386.848C210.361 385.824 211.105 385.032 212.049 384.472C213.009 383.912 214.081 383.632 215.265 383.632C216.289 383.632 217.241 383.872 218.121 384.352C219.001 384.816 219.673 385.432 220.137 386.2V379.24H222.345V397H220.137V394.528C219.705 395.312 219.065 395.96 218.217 396.472C217.369 396.968 216.377 397.216 215.241 397.216C214.073 397.216 213.009 396.928 212.049 396.352C211.105 395.776 210.361 394.968 209.817 393.928C209.273 392.888 209.001 391.704 209.001 390.376ZM220.137 390.4C220.137 389.408 219.937 388.544 219.537 387.808C219.137 387.072 218.593 386.512 217.905 386.128C217.233 385.728 216.489 385.528 215.673 385.528C214.857 385.528 214.113 385.72 213.441 386.104C212.769 386.488 212.233 387.048 211.833 387.784C211.433 388.52 211.233 389.384 211.233 390.376C211.233 391.384 211.433 392.264 211.833 393.016C212.233 393.752 212.769 394.32 213.441 394.72C214.113 395.104 214.857 395.296 215.673 395.296C216.489 395.296 217.233 395.104 217.905 394.72C218.593 394.32 219.137 393.752 219.537 393.016C219.937 392.264 220.137 391.392 220.137 390.4ZM227.164 381.712C226.748 381.712 226.396 381.568 226.108 381.28C225.82 380.992 225.676 380.64 225.676 380.224C225.676 379.808 225.82 379.456 226.108 379.168C226.396 378.88 226.748 378.736 227.164 378.736C227.564 378.736 227.9 378.88 228.172 379.168C228.46 379.456 228.604 379.808 228.604 380.224C228.604 380.64 228.46 380.992 228.172 381.28C227.9 381.568 227.564 381.712 227.164 381.712ZM228.22 383.848V397H226.036V383.848H228.22ZM237.366 383.632C238.502 383.632 239.494 383.88 240.342 384.376C241.206 384.872 241.846 385.496 242.262 386.248V383.848H244.47V397.288C244.47 398.488 244.214 399.552 243.702 400.48C243.19 401.424 242.454 402.16 241.494 402.688C240.55 403.216 239.446 403.48 238.182 403.48C236.454 403.48 235.014 403.072 233.862 402.256C232.71 401.44 232.03 400.328 231.822 398.92H233.982C234.222 399.72 234.718 400.36 235.47 400.84C236.222 401.336 237.126 401.584 238.182 401.584C239.382 401.584 240.358 401.208 241.11 400.456C241.878 399.704 242.262 398.648 242.262 397.288V394.528C241.83 395.296 241.19 395.936 240.342 396.448C239.494 396.96 238.502 397.216 237.366 397.216C236.198 397.216 235.134 396.928 234.174 396.352C233.23 395.776 232.486 394.968 231.942 393.928C231.398 392.888 231.126 391.704 231.126 390.376C231.126 389.032 231.398 387.856 231.942 386.848C232.486 385.824 233.23 385.032 234.174 384.472C235.134 383.912 236.198 383.632 237.366 383.632ZM242.262 390.4C242.262 389.408 242.062 388.544 241.662 387.808C241.262 387.072 240.718 386.512 240.03 386.128C239.358 385.728 238.614 385.528 237.798 385.528C236.982 385.528 236.238 385.72 235.566 386.104C234.894 386.488 234.358 387.048 233.958 387.784C233.558 388.52 233.358 389.384 233.358 390.376C233.358 391.384 233.558 392.264 233.958 393.016C234.358 393.752 234.894 394.32 235.566 394.72C236.238 395.104 236.982 395.296 237.798 395.296C238.614 395.296 239.358 395.104 240.03 394.72C240.718 394.32 241.262 393.752 241.662 393.016C242.062 392.264 242.262 391.392 242.262 390.4ZM259.825 383.848V397H257.641V395.056C257.225 395.728 256.641 396.256 255.889 396.64C255.153 397.008 254.337 397.192 253.441 397.192C252.417 397.192 251.497 396.984 250.681 396.568C249.865 396.136 249.217 395.496 248.737 394.648C248.273 393.8 248.041 392.768 248.041 391.552V383.848H250.201V391.264C250.201 392.56 250.529 393.56 251.185 394.264C251.841 394.952 252.737 395.296 253.873 395.296C255.041 395.296 255.961 394.936 256.633 394.216C257.305 393.496 257.641 392.448 257.641 391.072V383.848H259.825ZM269.92 383.608C271.52 383.608 272.816 384.096 273.808 385.072C274.8 386.032 275.296 387.424 275.296 389.248V397H273.136V389.56C273.136 388.248 272.808 387.248 272.152 386.56C271.496 385.856 270.6 385.504 269.464 385.504C268.312 385.504 267.392 385.864 266.704 386.584C266.032 387.304 265.696 388.352 265.696 389.728V397H263.512V383.848H265.696V385.72C266.128 385.048 266.712 384.528 267.448 384.16C268.2 383.792 269.024 383.608 269.92 383.608ZM278.048 390.376C278.048 389.032 278.32 387.856 278.864 386.848C279.408 385.824 280.152 385.032 281.096 384.472C282.056 383.912 283.12 383.632 284.288 383.632C285.44 383.632 286.44 383.88 287.288 384.376C288.136 384.872 288.768 385.496 289.184 386.248V383.848H291.392V397H289.184V394.552C288.752 395.32 288.104 395.96 287.24 396.472C286.392 396.968 285.4 397.216 284.264 397.216C283.096 397.216 282.04 396.928 281.096 396.352C280.152 395.776 279.408 394.968 278.864 393.928C278.32 392.888 278.048 391.704 278.048 390.376ZM289.184 390.4C289.184 389.408 288.984 388.544 288.584 387.808C288.184 387.072 287.64 386.512 286.952 386.128C286.28 385.728 285.536 385.528 284.72 385.528C283.904 385.528 283.16 385.72 282.488 386.104C281.816 386.488 281.28 387.048 280.88 387.784C280.48 388.52 280.28 389.384 280.28 390.376C280.28 391.384 280.48 392.264 280.88 393.016C281.28 393.752 281.816 394.32 282.488 394.72C283.16 395.104 283.904 395.296 284.72 395.296C285.536 395.296 286.28 395.104 286.952 394.72C287.64 394.32 288.184 393.752 288.584 393.016C288.984 392.264 289.184 391.392 289.184 390.4ZM302.426 397L297.266 391.192V397H295.082V379.24H297.266V389.68L302.33 383.848H305.378L299.186 390.4L305.402 397H302.426ZM306.618 390.376C306.618 389.032 306.89 387.856 307.434 386.848C307.978 385.824 308.722 385.032 309.666 384.472C310.626 383.912 311.69 383.632 312.858 383.632C314.01 383.632 315.01 383.88 315.858 384.376C316.706 384.872 317.338 385.496 317.754 386.248V383.848H319.962V397H317.754V394.552C317.322 395.32 316.674 395.96 315.81 396.472C314.962 396.968 313.97 397.216 312.834 397.216C311.666 397.216 310.61 396.928 309.666 396.352C308.722 395.776 307.978 394.968 307.434 393.928C306.89 392.888 306.618 391.704 306.618 390.376ZM317.754 390.4C317.754 389.408 317.554 388.544 317.154 387.808C316.754 387.072 316.21 386.512 315.522 386.128C314.85 385.728 314.106 385.528 313.29 385.528C312.474 385.528 311.73 385.72 311.058 386.104C310.386 386.488 309.85 387.048 309.45 387.784C309.05 388.52 308.85 389.384 308.85 390.376C308.85 391.384 309.05 392.264 309.45 393.016C309.85 393.752 310.386 394.32 311.058 394.72C311.73 395.104 312.474 395.296 313.29 395.296C314.106 395.296 314.85 395.104 315.522 394.72C316.21 394.32 316.754 393.752 317.154 393.016C317.554 392.264 317.754 391.392 317.754 390.4ZM330.061 383.608C331.661 383.608 332.957 384.096 333.949 385.072C334.941 386.032 335.437 387.424 335.437 389.248V397H333.277V389.56C333.277 388.248 332.949 387.248 332.293 386.56C331.637 385.856 330.741 385.504 329.605 385.504C328.453 385.504 327.533 385.864 326.845 386.584C326.173 387.304 325.837 388.352 325.837 389.728V397H323.653V383.848H325.837V385.72C326.269 385.048 326.853 384.528 327.589 384.16C328.341 383.792 329.165 383.608 330.061 383.608ZM56.5663 419.608C57.5903 419.608 58.5023 419.824 59.3023 420.256C60.1023 420.672 60.7343 421.304 61.1983 422.152C61.6623 423 61.8943 424.032 61.8943 425.248V433H59.7343V425.56C59.7343 424.248 59.4063 423.248 58.7503 422.56C58.1103 421.856 57.2383 421.504 56.1343 421.504C54.9983 421.504 54.0943 421.872 53.4223 422.608C52.7503 423.328 52.4143 424.376 52.4143 425.752V433H50.2543V425.56C50.2543 424.248 49.9263 423.248 49.2703 422.56C48.6303 421.856 47.7583 421.504 46.6543 421.504C45.5183 421.504 44.6143 421.872 43.9423 422.608C43.2703 423.328 42.9343 424.376 42.9343 425.752V433H40.7503V419.848H42.9343V421.744C43.3663 421.056 43.9423 420.528 44.6623 420.16C45.3983 419.792 46.2063 419.608 47.0863 419.608C48.1903 419.608 49.1663 419.856 50.0143 420.352C50.8623 420.848 51.4943 421.576 51.9103 422.536C52.2783 421.608 52.8863 420.888 53.7343 420.376C54.5823 419.864 55.5263 419.608 56.5663 419.608ZM77.4769 425.92C77.4769 426.336 77.4529 426.776 77.4049 427.24H66.8929C66.9729 428.536 67.4129 429.552 68.2129 430.288C69.0289 431.008 70.0129 431.368 71.1649 431.368C72.1089 431.368 72.8929 431.152 73.5169 430.72C74.1569 430.272 74.6049 429.68 74.8609 428.944H77.2129C76.8609 430.208 76.1569 431.24 75.1009 432.04C74.0449 432.824 72.7329 433.216 71.1649 433.216C69.9169 433.216 68.7969 432.936 67.8049 432.376C66.8289 431.816 66.0609 431.024 65.5009 430C64.9409 428.96 64.6609 427.76 64.6609 426.4C64.6609 425.04 64.9329 423.848 65.4769 422.824C66.0209 421.8 66.7809 421.016 67.7569 420.472C68.7489 419.912 69.8849 419.632 71.1649 419.632C72.4129 419.632 73.5169 419.904 74.4769 420.448C75.4369 420.992 76.1729 421.744 76.6849 422.704C77.2129 423.648 77.4769 424.72 77.4769 425.92ZM75.2209 425.464C75.2209 424.632 75.0369 423.92 74.6689 423.328C74.3009 422.72 73.7969 422.264 73.1569 421.96C72.5329 421.64 71.8369 421.48 71.0689 421.48C69.9649 421.48 69.0209 421.832 68.2369 422.536C67.4689 423.24 67.0289 424.216 66.9169 425.464H75.2209ZM82.5437 421.984C82.9277 421.232 83.4717 420.648 84.1757 420.232C84.8957 419.816 85.7677 419.608 86.7917 419.608V421.864H86.2157C83.7677 421.864 82.5437 423.192 82.5437 425.848V433H80.3597V419.848H82.5437V421.984ZM100.977 419.848V433H98.7928V431.056C98.3768 431.728 97.7928 432.256 97.0408 432.64C96.3048 433.008 95.4888 433.192 94.5928 433.192C93.5688 433.192 92.6488 432.984 91.8328 432.568C91.0168 432.136 90.3688 431.496 89.8888 430.648C89.4248 429.8 89.1928 428.768 89.1928 427.552V419.848H91.3528V427.264C91.3528 428.56 91.6808 429.56 92.3368 430.264C92.9928 430.952 93.8888 431.296 95.0248 431.296C96.1928 431.296 97.1128 430.936 97.7848 430.216C98.4568 429.496 98.7928 428.448 98.7928 427.072V419.848H100.977ZM106.848 422.272C107.28 421.52 107.92 420.896 108.768 420.4C109.632 419.888 110.632 419.632 111.768 419.632C112.936 419.632 113.992 419.912 114.936 420.472C115.896 421.032 116.648 421.824 117.192 422.848C117.736 423.856 118.008 425.032 118.008 426.376C118.008 427.704 117.736 428.888 117.192 429.928C116.648 430.968 115.896 431.776 114.936 432.352C113.992 432.928 112.936 433.216 111.768 433.216C110.648 433.216 109.656 432.968 108.792 432.472C107.944 431.96 107.296 431.328 106.848 430.576V439.24H104.664V419.848H106.848V422.272ZM115.776 426.376C115.776 425.384 115.576 424.52 115.176 423.784C114.776 423.048 114.232 422.488 113.544 422.104C112.872 421.72 112.128 421.528 111.312 421.528C110.512 421.528 109.768 421.728 109.08 422.128C108.408 422.512 107.864 423.08 107.448 423.832C107.048 424.568 106.848 425.424 106.848 426.4C106.848 427.392 107.048 428.264 107.448 429.016C107.864 429.752 108.408 430.32 109.08 430.72C109.768 431.104 110.512 431.296 111.312 431.296C112.128 431.296 112.872 431.104 113.544 430.72C114.232 430.32 114.776 429.752 115.176 429.016C115.576 428.264 115.776 427.384 115.776 426.376ZM120.067 426.376C120.067 425.032 120.339 423.856 120.883 422.848C121.427 421.824 122.171 421.032 123.115 420.472C124.075 419.912 125.139 419.632 126.307 419.632C127.459 419.632 128.459 419.88 129.307 420.376C130.155 420.872 130.787 421.496 131.203 422.248V419.848H133.411V433H131.203V430.552C130.771 431.32 130.123 431.96 129.259 432.472C128.411 432.968 127.419 433.216 126.283 433.216C125.115 433.216 124.059 432.928 123.115 432.352C122.171 431.776 121.427 430.968 120.883 429.928C120.339 428.888 120.067 427.704 120.067 426.376ZM131.203 426.4C131.203 425.408 131.003 424.544 130.603 423.808C130.203 423.072 129.659 422.512 128.971 422.128C128.299 421.728 127.555 421.528 126.739 421.528C125.923 421.528 125.179 421.72 124.507 422.104C123.835 422.488 123.299 423.048 122.899 423.784C122.499 424.52 122.299 425.384 122.299 426.376C122.299 427.384 122.499 428.264 122.899 429.016C123.299 429.752 123.835 430.32 124.507 430.72C125.179 431.104 125.923 431.296 126.739 431.296C127.555 431.296 128.299 431.104 128.971 430.72C129.659 430.32 130.203 429.752 130.603 429.016C131.003 428.264 131.203 427.392 131.203 426.4ZM144.446 433L139.286 427.192V433H137.102V415.24H139.286V425.68L144.35 419.848H147.398L141.206 426.4L147.422 433H144.446ZM148.637 426.376C148.637 425.032 148.909 423.856 149.453 422.848C149.997 421.824 150.741 421.032 151.685 420.472C152.645 419.912 153.709 419.632 154.877 419.632C156.029 419.632 157.029 419.88 157.877 420.376C158.725 420.872 159.357 421.496 159.773 422.248V419.848H161.981V433H159.773V430.552C159.341 431.32 158.693 431.96 157.829 432.472C156.981 432.968 155.989 433.216 154.853 433.216C153.685 433.216 152.629 432.928 151.685 432.352C150.741 431.776 149.997 430.968 149.453 429.928C148.909 428.888 148.637 427.704 148.637 426.376ZM159.773 426.4C159.773 425.408 159.573 424.544 159.173 423.808C158.773 423.072 158.229 422.512 157.541 422.128C156.869 421.728 156.125 421.528 155.309 421.528C154.493 421.528 153.749 421.72 153.077 422.104C152.405 422.488 151.869 423.048 151.469 423.784C151.069 424.52 150.869 425.384 150.869 426.376C150.869 427.384 151.069 428.264 151.469 429.016C151.869 429.752 152.405 430.32 153.077 430.72C153.749 431.104 154.493 431.296 155.309 431.296C156.125 431.296 156.869 431.104 157.541 430.72C158.229 430.32 158.773 429.752 159.173 429.016C159.573 428.264 159.773 427.392 159.773 426.4ZM172.08 419.608C173.68 419.608 174.976 420.096 175.968 421.072C176.96 422.032 177.456 423.424 177.456 425.248V433H175.296V425.56C175.296 424.248 174.968 423.248 174.312 422.56C173.656 421.856 172.76 421.504 171.624 421.504C170.472 421.504 169.552 421.864 168.864 422.584C168.192 423.304 167.856 424.352 167.856 425.728V433H165.672V419.848H167.856V421.72C168.288 421.048 168.872 420.528 169.608 420.16C170.36 419.792 171.184 419.608 172.08 419.608ZM192.846 419.632C193.982 419.632 194.974 419.88 195.822 420.376C196.686 420.872 197.326 421.496 197.742 422.248V419.848H199.95V433.288C199.95 434.488 199.694 435.552 199.182 436.48C198.67 437.424 197.934 438.16 196.974 438.688C196.03 439.216 194.926 439.48 193.662 439.48C191.934 439.48 190.494 439.072 189.342 438.256C188.19 437.44 187.51 436.328 187.302 434.92H189.462C189.702 435.72 190.198 436.36 190.95 436.84C191.702 437.336 192.606 437.584 193.662 437.584C194.862 437.584 195.838 437.208 196.59 436.456C197.358 435.704 197.742 434.648 197.742 433.288V430.528C197.31 431.296 196.67 431.936 195.822 432.448C194.974 432.96 193.982 433.216 192.846 433.216C191.678 433.216 190.614 432.928 189.654 432.352C188.71 431.776 187.966 430.968 187.422 429.928C186.878 428.888 186.606 427.704 186.606 426.376C186.606 425.032 186.878 423.856 187.422 422.848C187.966 421.824 188.71 421.032 189.654 420.472C190.614 419.912 191.678 419.632 192.846 419.632ZM197.742 426.4C197.742 425.408 197.542 424.544 197.142 423.808C196.742 423.072 196.198 422.512 195.51 422.128C194.838 421.728 194.094 421.528 193.278 421.528C192.462 421.528 191.718 421.72 191.046 422.104C190.374 422.488 189.838 423.048 189.438 423.784C189.038 424.52 188.838 425.384 188.838 426.376C188.838 427.384 189.038 428.264 189.438 429.016C189.838 429.752 190.374 430.32 191.046 430.72C191.718 431.104 192.462 431.296 193.278 431.296C194.094 431.296 194.838 431.104 195.51 430.72C196.198 430.32 196.742 429.752 197.142 429.016C197.542 428.264 197.742 427.392 197.742 426.4ZM202.825 426.376C202.825 425.032 203.097 423.856 203.641 422.848C204.185 421.824 204.929 421.032 205.873 420.472C206.833 419.912 207.897 419.632 209.065 419.632C210.217 419.632 211.217 419.88 212.065 420.376C212.913 420.872 213.545 421.496 213.961 422.248V419.848H216.169V433H213.961V430.552C213.529 431.32 212.881 431.96 212.017 432.472C211.169 432.968 210.177 433.216 209.041 433.216C207.873 433.216 206.817 432.928 205.873 432.352C204.929 431.776 204.185 430.968 203.641 429.928C203.097 428.888 202.825 427.704 202.825 426.376ZM213.961 426.4C213.961 425.408 213.761 424.544 213.361 423.808C212.961 423.072 212.417 422.512 211.729 422.128C211.057 421.728 210.313 421.528 209.497 421.528C208.681 421.528 207.937 421.72 207.265 422.104C206.593 422.488 206.057 423.048 205.657 423.784C205.257 424.52 205.057 425.384 205.057 426.376C205.057 427.384 205.257 428.264 205.657 429.016C206.057 429.752 206.593 430.32 207.265 430.72C207.937 431.104 208.681 431.296 209.497 431.296C210.313 431.296 211.057 431.104 211.729 430.72C212.417 430.32 212.961 429.752 213.361 429.016C213.761 428.264 213.961 427.392 213.961 426.4ZM235.676 419.608C236.7 419.608 237.612 419.824 238.412 420.256C239.212 420.672 239.844 421.304 240.308 422.152C240.772 423 241.004 424.032 241.004 425.248V433H238.844V425.56C238.844 424.248 238.516 423.248 237.86 422.56C237.22 421.856 236.348 421.504 235.244 421.504C234.108 421.504 233.204 421.872 232.532 422.608C231.86 423.328 231.524 424.376 231.524 425.752V433H229.364V425.56C229.364 424.248 229.036 423.248 228.38 422.56C227.74 421.856 226.868 421.504 225.764 421.504C224.628 421.504 223.724 421.872 223.052 422.608C222.38 423.328 222.044 424.376 222.044 425.752V433H219.86V419.848H222.044V421.744C222.476 421.056 223.052 420.528 223.772 420.16C224.508 419.792 225.316 419.608 226.196 419.608C227.3 419.608 228.276 419.856 229.124 420.352C229.972 420.848 230.604 421.576 231.02 422.536C231.388 421.608 231.996 420.888 232.844 420.376C233.692 419.864 234.636 419.608 235.676 419.608ZM246.77 422.296C247.218 421.512 247.874 420.872 248.738 420.376C249.602 419.88 250.586 419.632 251.69 419.632C252.874 419.632 253.938 419.912 254.882 420.472C255.826 421.032 256.57 421.824 257.114 422.848C257.658 423.856 257.93 425.032 257.93 426.376C257.93 427.704 257.658 428.888 257.114 429.928C256.57 430.968 255.818 431.776 254.858 432.352C253.914 432.928 252.858 433.216 251.69 433.216C250.554 433.216 249.554 432.968 248.69 432.472C247.842 431.976 247.202 431.344 246.77 430.576V433H244.586V415.24H246.77V422.296ZM255.698 426.376C255.698 425.384 255.498 424.52 255.098 423.784C254.698 423.048 254.154 422.488 253.466 422.104C252.794 421.72 252.05 421.528 251.234 421.528C250.434 421.528 249.69 421.728 249.002 422.128C248.33 422.512 247.786 423.08 247.37 423.832C246.97 424.568 246.77 425.424 246.77 426.4C246.77 427.392 246.97 428.264 247.37 429.016C247.786 429.752 248.33 430.32 249.002 430.72C249.69 431.104 250.434 431.296 251.234 431.296C252.05 431.296 252.794 431.104 253.466 430.72C254.154 430.32 254.698 429.752 255.098 429.016C255.498 428.264 255.698 427.384 255.698 426.376ZM259.989 426.376C259.989 425.032 260.261 423.856 260.805 422.848C261.349 421.824 262.093 421.032 263.037 420.472C263.997 419.912 265.061 419.632 266.229 419.632C267.381 419.632 268.381 419.88 269.229 420.376C270.077 420.872 270.709 421.496 271.125 422.248V419.848H273.333V433H271.125V430.552C270.693 431.32 270.045 431.96 269.181 432.472C268.333 432.968 267.341 433.216 266.205 433.216C265.037 433.216 263.981 432.928 263.037 432.352C262.093 431.776 261.349 430.968 260.805 429.928C260.261 428.888 259.989 427.704 259.989 426.376ZM271.125 426.4C271.125 425.408 270.925 424.544 270.525 423.808C270.125 423.072 269.581 422.512 268.893 422.128C268.221 421.728 267.477 421.528 266.661 421.528C265.845 421.528 265.101 421.72 264.429 422.104C263.757 422.488 263.221 423.048 262.821 423.784C262.421 424.52 262.221 425.384 262.221 426.376C262.221 427.384 262.421 428.264 262.821 429.016C263.221 429.752 263.757 430.32 264.429 430.72C265.101 431.104 265.845 431.296 266.661 431.296C267.477 431.296 268.221 431.104 268.893 430.72C269.581 430.32 270.125 429.752 270.525 429.016C270.925 428.264 271.125 427.392 271.125 426.4ZM279.208 421.984C279.592 421.232 280.136 420.648 280.84 420.232C281.56 419.816 282.432 419.608 283.456 419.608V421.864H282.88C280.432 421.864 279.208 423.192 279.208 425.848V433H277.024V419.848H279.208V421.984ZM291.559 426.376C291.559 425.032 291.831 423.856 292.375 422.848C292.919 421.824 293.663 421.032 294.607 420.472C295.567 419.912 296.631 419.632 297.799 419.632C298.951 419.632 299.951 419.88 300.799 420.376C301.647 420.872 302.279 421.496 302.695 422.248V419.848H304.903V433H302.695V430.552C302.263 431.32 301.615 431.96 300.751 432.472C299.903 432.968 298.911 433.216 297.775 433.216C296.607 433.216 295.551 432.928 294.607 432.352C293.663 431.776 292.919 430.968 292.375 429.928C291.831 428.888 291.559 427.704 291.559 426.376ZM302.695 426.4C302.695 425.408 302.495 424.544 302.095 423.808C301.695 423.072 301.151 422.512 300.463 422.128C299.791 421.728 299.047 421.528 298.231 421.528C297.415 421.528 296.671 421.72 295.999 422.104C295.327 422.488 294.791 423.048 294.391 423.784C293.991 424.52 293.791 425.384 293.791 426.376C293.791 427.384 293.991 428.264 294.391 429.016C294.791 429.752 295.327 430.32 295.999 430.72C296.671 431.104 297.415 431.296 298.231 431.296C299.047 431.296 299.791 431.104 300.463 430.72C301.151 430.32 301.695 429.752 302.095 429.016C302.495 428.264 302.695 427.392 302.695 426.4ZM313.25 433.216C312.242 433.216 311.338 433.048 310.538 432.712C309.738 432.36 309.106 431.88 308.642 431.272C308.178 430.648 307.922 429.936 307.874 429.136H310.13C310.194 429.792 310.498 430.328 311.042 430.744C311.602 431.16 312.33 431.368 313.226 431.368C314.058 431.368 314.714 431.184 315.194 430.816C315.674 430.448 315.914 429.984 315.914 429.424C315.914 428.848 315.658 428.424 315.146 428.152C314.634 427.864 313.842 427.584 312.77 427.312C311.794 427.056 310.994 426.8 310.37 426.544C309.762 426.272 309.234 425.88 308.786 425.368C308.354 424.84 308.138 424.152 308.138 423.304C308.138 422.632 308.338 422.016 308.738 421.456C309.138 420.896 309.706 420.456 310.442 420.136C311.178 419.8 312.018 419.632 312.962 419.632C314.418 419.632 315.594 420 316.49 420.736C317.386 421.472 317.866 422.48 317.93 423.76H315.746C315.698 423.072 315.418 422.52 314.906 422.104C314.41 421.688 313.738 421.48 312.89 421.48C312.106 421.48 311.482 421.648 311.018 421.984C310.554 422.32 310.322 422.76 310.322 423.304C310.322 423.736 310.458 424.096 310.73 424.384C311.018 424.656 311.37 424.88 311.786 425.056C312.218 425.216 312.81 425.4 313.562 425.608C314.506 425.864 315.274 426.12 315.866 426.376C316.458 426.616 316.962 426.984 317.378 427.48C317.81 427.976 318.034 428.624 318.05 429.424C318.05 430.144 317.85 430.792 317.45 431.368C317.05 431.944 316.482 432.4 315.746 432.736C315.026 433.056 314.194 433.216 313.25 433.216ZM323.317 415.24V433H321.133V415.24H323.317ZM328.167 417.712C327.751 417.712 327.399 417.568 327.111 417.28C326.823 416.992 326.679 416.64 326.679 416.224C326.679 415.808 326.823 415.456 327.111 415.168C327.399 414.88 327.751 414.736 328.167 414.736C328.567 414.736 328.903 414.88 329.175 415.168C329.463 415.456 329.607 415.808 329.607 416.224C329.607 416.64 329.463 416.992 329.175 417.28C328.903 417.568 328.567 417.712 328.167 417.712ZM329.223 419.848V433H327.039V419.848H329.223Z" fill="#25014B"/>
</svg>
