<svg width="370" height="427" viewBox="0 0 370 427" fill="none" xmlns="http://www.w3.org/2000/svg">
<circle cx="185.199" cy="132.64" r="130.14" fill="#6F9EDC" stroke="white" stroke-width="5"/>
<path d="M35.8588 308.272V310.048H31.2988V325H29.1148V310.048H24.5308V308.272H35.8588ZM39.6752 309.712C39.2592 309.712 38.9072 309.568 38.6192 309.28C38.3312 308.992 38.1872 308.64 38.1872 308.224C38.1872 307.808 38.3312 307.456 38.6192 307.168C38.9072 306.88 39.2592 306.736 39.6752 306.736C40.0752 306.736 40.4112 306.88 40.6832 307.168C40.9712 307.456 41.1152 307.808 41.1152 308.224C41.1152 308.64 40.9712 308.992 40.6832 309.28C40.4112 309.568 40.0752 309.712 39.6752 309.712ZM40.7312 311.848V325H38.5472V311.848H40.7312ZM47.1175 313.648V321.4C47.1175 322.04 47.2535 322.496 47.5255 322.768C47.7975 323.024 48.2695 323.152 48.9415 323.152H50.5495V325H48.5815C47.3655 325 46.4535 324.72 45.8455 324.16C45.2375 323.6 44.9335 322.68 44.9335 321.4V313.648H43.2295V311.848H44.9335V308.536H47.1175V311.848H50.5495V313.648H47.1175ZM54.3237 309.712C53.9077 309.712 53.5557 309.568 53.2677 309.28C52.9797 308.992 52.8357 308.64 52.8357 308.224C52.8357 307.808 52.9797 307.456 53.2677 307.168C53.5557 306.88 53.9077 306.736 54.3237 306.736C54.7237 306.736 55.0597 306.88 55.3317 307.168C55.6197 307.456 55.7637 307.808 55.7637 308.224C55.7637 308.64 55.6197 308.992 55.3317 309.28C55.0597 309.568 54.7237 309.712 54.3237 309.712ZM55.3797 311.848V325H53.1957V311.848H55.3797ZM66.4459 325L61.2859 319.192V325H59.1019V307.24H61.2859V317.68L66.3499 311.848H69.3979L63.2059 318.4L69.4219 325H66.4459ZM80.0359 314.296C80.4839 313.512 81.1399 312.872 82.0039 312.376C82.8679 311.88 83.8519 311.632 84.9559 311.632C86.1399 311.632 87.2039 311.912 88.1479 312.472C89.0919 313.032 89.8359 313.824 90.3799 314.848C90.9239 315.856 91.1959 317.032 91.1959 318.376C91.1959 319.704 90.9239 320.888 90.3799 321.928C89.8359 322.968 89.0839 323.776 88.1239 324.352C87.1799 324.928 86.1239 325.216 84.9559 325.216C83.8199 325.216 82.8199 324.968 81.9559 324.472C81.1079 323.976 80.4679 323.344 80.0359 322.576V325H77.8519V307.24H80.0359V314.296ZM88.9639 318.376C88.9639 317.384 88.7639 316.52 88.3639 315.784C87.9639 315.048 87.4199 314.488 86.7319 314.104C86.0599 313.72 85.3159 313.528 84.4999 313.528C83.6999 313.528 82.9559 313.728 82.2679 314.128C81.5959 314.512 81.0519 315.08 80.6359 315.832C80.2359 316.568 80.0359 317.424 80.0359 318.4C80.0359 319.392 80.2359 320.264 80.6359 321.016C81.0519 321.752 81.5959 322.32 82.2679 322.72C82.9559 323.104 83.6999 323.296 84.4999 323.296C85.3159 323.296 86.0599 323.104 86.7319 322.72C87.4199 322.32 87.9639 321.752 88.3639 321.016C88.7639 320.264 88.9639 319.384 88.9639 318.376ZM95.1987 309.712C94.7827 309.712 94.4307 309.568 94.1427 309.28C93.8547 308.992 93.7107 308.64 93.7107 308.224C93.7107 307.808 93.8547 307.456 94.1427 307.168C94.4307 306.88 94.7827 306.736 95.1987 306.736C95.5987 306.736 95.9347 306.88 96.2067 307.168C96.4947 307.456 96.6387 307.808 96.6387 308.224C96.6387 308.64 96.4947 308.992 96.2067 309.28C95.9347 309.568 95.5987 309.712 95.1987 309.712ZM96.2547 311.848V325H94.0707V311.848H96.2547ZM102.161 313.984C102.545 313.232 103.089 312.648 103.793 312.232C104.513 311.816 105.385 311.608 106.409 311.608V313.864H105.833C103.385 313.864 102.161 315.192 102.161 317.848V325H99.9769V311.848H102.161V313.984ZM120.594 311.848V325H118.41V323.056C117.994 323.728 117.41 324.256 116.658 324.64C115.922 325.008 115.106 325.192 114.21 325.192C113.186 325.192 112.266 324.984 111.45 324.568C110.634 324.136 109.986 323.496 109.506 322.648C109.042 321.8 108.81 320.768 108.81 319.552V311.848H110.97V319.264C110.97 320.56 111.298 321.56 111.954 322.264C112.61 322.952 113.506 323.296 114.642 323.296C115.81 323.296 116.73 322.936 117.402 322.216C118.074 321.496 118.41 320.448 118.41 319.072V311.848H120.594ZM132.864 314.296C133.312 313.512 133.968 312.872 134.832 312.376C135.696 311.88 136.68 311.632 137.784 311.632C138.968 311.632 140.032 311.912 140.976 312.472C141.92 313.032 142.664 313.824 143.208 314.848C143.752 315.856 144.024 317.032 144.024 318.376C144.024 319.704 143.752 320.888 143.208 321.928C142.664 322.968 141.912 323.776 140.952 324.352C140.008 324.928 138.952 325.216 137.784 325.216C136.648 325.216 135.648 324.968 134.784 324.472C133.936 323.976 133.296 323.344 132.864 322.576V325H130.68V307.24H132.864V314.296ZM141.792 318.376C141.792 317.384 141.592 316.52 141.192 315.784C140.792 315.048 140.248 314.488 139.56 314.104C138.888 313.72 138.144 313.528 137.328 313.528C136.528 313.528 135.784 313.728 135.096 314.128C134.424 314.512 133.88 315.08 133.464 315.832C133.064 316.568 132.864 317.424 132.864 318.4C132.864 319.392 133.064 320.264 133.464 321.016C133.88 321.752 134.424 322.32 135.096 322.72C135.784 323.104 136.528 323.296 137.328 323.296C138.144 323.296 138.888 323.104 139.56 322.72C140.248 322.32 140.792 321.752 141.192 321.016C141.592 320.264 141.792 319.384 141.792 318.376ZM158.899 317.92C158.899 318.336 158.875 318.776 158.827 319.24H148.315C148.395 320.536 148.835 321.552 149.635 322.288C150.451 323.008 151.435 323.368 152.587 323.368C153.531 323.368 154.315 323.152 154.939 322.72C155.579 322.272 156.027 321.68 156.283 320.944H158.635C158.283 322.208 157.579 323.24 156.523 324.04C155.467 324.824 154.155 325.216 152.587 325.216C151.339 325.216 150.219 324.936 149.227 324.376C148.251 323.816 147.483 323.024 146.923 322C146.363 320.96 146.083 319.76 146.083 318.4C146.083 317.04 146.355 315.848 146.899 314.824C147.443 313.8 148.203 313.016 149.179 312.472C150.171 311.912 151.307 311.632 152.587 311.632C153.835 311.632 154.939 311.904 155.899 312.448C156.859 312.992 157.595 313.744 158.107 314.704C158.635 315.648 158.899 316.72 158.899 317.92ZM156.643 317.464C156.643 316.632 156.459 315.92 156.091 315.328C155.723 314.72 155.219 314.264 154.579 313.96C153.955 313.64 153.259 313.48 152.491 313.48C151.387 313.48 150.443 313.832 149.659 314.536C148.891 315.24 148.451 316.216 148.339 317.464H156.643ZM163.966 313.984C164.35 313.232 164.894 312.648 165.598 312.232C166.318 311.816 167.19 311.608 168.214 311.608V313.864H167.638C165.19 313.864 163.966 315.192 163.966 317.848V325H161.782V311.848H163.966V313.984ZM169.919 318.376C169.919 317.032 170.191 315.856 170.735 314.848C171.279 313.824 172.023 313.032 172.967 312.472C173.927 311.912 174.991 311.632 176.159 311.632C177.311 311.632 178.311 311.88 179.159 312.376C180.007 312.872 180.639 313.496 181.055 314.248V311.848H183.263V325H181.055V322.552C180.623 323.32 179.975 323.96 179.111 324.472C178.263 324.968 177.271 325.216 176.135 325.216C174.967 325.216 173.911 324.928 172.967 324.352C172.023 323.776 171.279 322.968 170.735 321.928C170.191 320.888 169.919 319.704 169.919 318.376ZM181.055 318.4C181.055 317.408 180.855 316.544 180.455 315.808C180.055 315.072 179.511 314.512 178.823 314.128C178.151 313.728 177.407 313.528 176.591 313.528C175.775 313.528 175.031 313.72 174.359 314.104C173.687 314.488 173.151 315.048 172.751 315.784C172.351 316.52 172.151 317.384 172.151 318.376C172.151 319.384 172.351 320.264 172.751 321.016C173.151 321.752 173.687 322.32 174.359 322.72C175.031 323.104 175.775 323.296 176.591 323.296C177.407 323.296 178.151 323.104 178.823 322.72C179.511 322.32 180.055 321.752 180.455 321.016C180.855 320.264 181.055 319.392 181.055 318.4ZM189.137 313.984C189.521 313.232 190.065 312.648 190.769 312.232C191.489 311.816 192.361 311.608 193.385 311.608V313.864H192.809C190.361 313.864 189.137 315.192 189.137 317.848V325H186.953V311.848H189.137V313.984ZM198.571 313.648V321.4C198.571 322.04 198.707 322.496 198.979 322.768C199.251 323.024 199.723 323.152 200.395 323.152H202.003V325H200.035C198.819 325 197.907 324.72 197.299 324.16C196.691 323.6 196.387 322.68 196.387 321.4V313.648H194.683V311.848H196.387V308.536H198.571V311.848H202.003V313.648H198.571ZM205.777 309.712C205.361 309.712 205.009 309.568 204.721 309.28C204.433 308.992 204.289 308.64 204.289 308.224C204.289 307.808 204.433 307.456 204.721 307.168C205.009 306.88 205.361 306.736 205.777 306.736C206.177 306.736 206.513 306.88 206.785 307.168C207.073 307.456 207.217 307.808 207.217 308.224C207.217 308.64 207.073 308.992 206.785 309.28C206.513 309.568 206.177 309.712 205.777 309.712ZM206.833 311.848V325H204.649V311.848H206.833ZM232.769 311.608C233.793 311.608 234.705 311.824 235.505 312.256C236.305 312.672 236.937 313.304 237.401 314.152C237.865 315 238.097 316.032 238.097 317.248V325H235.937V317.56C235.937 316.248 235.609 315.248 234.953 314.56C234.313 313.856 233.441 313.504 232.337 313.504C231.201 313.504 230.297 313.872 229.625 314.608C228.953 315.328 228.617 316.376 228.617 317.752V325H226.457V317.56C226.457 316.248 226.129 315.248 225.473 314.56C224.833 313.856 223.961 313.504 222.857 313.504C221.721 313.504 220.817 313.872 220.145 314.608C219.473 315.328 219.137 316.376 219.137 317.752V325H216.953V311.848H219.137V313.744C219.569 313.056 220.145 312.528 220.865 312.16C221.601 311.792 222.409 311.608 223.289 311.608C224.393 311.608 225.369 311.856 226.217 312.352C227.065 312.848 227.697 313.576 228.113 314.536C228.481 313.608 229.089 312.888 229.937 312.376C230.785 311.864 231.729 311.608 232.769 311.608ZM240.864 318.376C240.864 317.032 241.136 315.856 241.68 314.848C242.224 313.824 242.968 313.032 243.912 312.472C244.872 311.912 245.936 311.632 247.104 311.632C248.256 311.632 249.256 311.88 250.104 312.376C250.952 312.872 251.584 313.496 252 314.248V311.848H254.208V325H252V322.552C251.568 323.32 250.92 323.96 250.056 324.472C249.208 324.968 248.216 325.216 247.08 325.216C245.912 325.216 244.856 324.928 243.912 324.352C242.968 323.776 242.224 322.968 241.68 321.928C241.136 320.888 240.864 319.704 240.864 318.376ZM252 318.4C252 317.408 251.8 316.544 251.4 315.808C251 315.072 250.456 314.512 249.768 314.128C249.096 313.728 248.352 313.528 247.536 313.528C246.72 313.528 245.976 313.72 245.304 314.104C244.632 314.488 244.096 315.048 243.696 315.784C243.296 316.52 243.096 317.384 243.096 318.376C243.096 319.384 243.296 320.264 243.696 321.016C244.096 321.752 244.632 322.32 245.304 322.72C245.976 323.104 246.72 323.296 247.536 323.296C248.352 323.296 249.096 323.104 249.768 322.72C250.456 322.32 251 321.752 251.4 321.016C251.8 320.264 252 319.392 252 318.4ZM260.083 313.984C260.467 313.232 261.011 312.648 261.715 312.232C262.435 311.816 263.307 311.608 264.331 311.608V313.864H263.755C261.307 313.864 260.083 315.192 260.083 317.848V325H257.899V311.848H260.083V313.984ZM274.196 325L269.036 319.192V325H266.852V307.24H269.036V317.68L274.1 311.848H277.148L270.956 318.4L277.172 325H274.196ZM291.203 317.92C291.203 318.336 291.179 318.776 291.131 319.24H280.619C280.699 320.536 281.139 321.552 281.939 322.288C282.755 323.008 283.739 323.368 284.891 323.368C285.835 323.368 286.619 323.152 287.243 322.72C287.883 322.272 288.331 321.68 288.587 320.944H290.939C290.587 322.208 289.883 323.24 288.827 324.04C287.771 324.824 286.459 325.216 284.891 325.216C283.643 325.216 282.523 324.936 281.531 324.376C280.555 323.816 279.787 323.024 279.227 322C278.667 320.96 278.387 319.76 278.387 318.4C278.387 317.04 278.659 315.848 279.203 314.824C279.747 313.8 280.507 313.016 281.483 312.472C282.475 311.912 283.611 311.632 284.891 311.632C286.139 311.632 287.243 311.904 288.203 312.448C289.163 312.992 289.899 313.744 290.411 314.704C290.939 315.648 291.203 316.72 291.203 317.92ZM288.947 317.464C288.947 316.632 288.763 315.92 288.395 315.328C288.027 314.72 287.523 314.264 286.883 313.96C286.259 313.64 285.563 313.48 284.795 313.48C283.691 313.48 282.747 313.832 281.963 314.536C281.195 315.24 280.755 316.216 280.643 317.464H288.947ZM296.27 313.984C296.654 313.232 297.198 312.648 297.902 312.232C298.622 311.816 299.494 311.608 300.518 311.608V313.864H299.942C297.494 313.864 296.27 315.192 296.27 317.848V325H294.086V311.848H296.27V313.984ZM309.447 311.608C311.047 311.608 312.343 312.096 313.335 313.072C314.327 314.032 314.823 315.424 314.823 317.248V325H312.663V317.56C312.663 316.248 312.335 315.248 311.679 314.56C311.023 313.856 310.127 313.504 308.991 313.504C307.839 313.504 306.919 313.864 306.231 314.584C305.559 315.304 305.223 316.352 305.223 317.728V325H303.039V311.848H305.223V313.72C305.655 313.048 306.239 312.528 306.975 312.16C307.727 311.792 308.551 311.608 309.447 311.608ZM329.719 311.848L321.799 331.192H319.543L322.135 324.856L316.831 311.848H319.255L323.383 322.504L327.463 311.848H329.719ZM331.098 318.376C331.098 317.032 331.37 315.856 331.914 314.848C332.458 313.824 333.202 313.032 334.146 312.472C335.106 311.912 336.17 311.632 337.338 311.632C338.49 311.632 339.49 311.88 340.338 312.376C341.186 312.872 341.818 313.496 342.234 314.248V311.848H344.442V325H342.234V322.552C341.802 323.32 341.154 323.96 340.29 324.472C339.442 324.968 338.45 325.216 337.314 325.216C336.146 325.216 335.09 324.928 334.146 324.352C333.202 323.776 332.458 322.968 331.914 321.928C331.37 320.888 331.098 319.704 331.098 318.376ZM342.234 318.4C342.234 317.408 342.034 316.544 341.634 315.808C341.234 315.072 340.69 314.512 340.002 314.128C339.33 313.728 338.586 313.528 337.77 313.528C336.954 313.528 336.21 313.72 335.538 314.104C334.866 314.488 334.33 315.048 333.93 315.784C333.53 316.52 333.33 317.384 333.33 318.376C333.33 319.384 333.53 320.264 333.93 321.016C334.33 321.752 334.866 322.32 335.538 322.72C336.21 323.104 336.954 323.296 337.77 323.296C338.586 323.296 339.33 323.104 340.002 322.72C340.69 322.32 341.234 321.752 341.634 321.016C342.034 320.264 342.234 319.392 342.234 318.4ZM14.3172 354.376C14.3172 353.032 14.5892 351.856 15.1332 350.848C15.6772 349.824 16.4212 349.032 17.3652 348.472C18.3252 347.912 19.3972 347.632 20.5812 347.632C21.6052 347.632 22.5572 347.872 23.4372 348.352C24.3172 348.816 24.9892 349.432 25.4532 350.2V343.24H27.6612V361H25.4532V358.528C25.0212 359.312 24.3812 359.96 23.5332 360.472C22.6852 360.968 21.6932 361.216 20.5572 361.216C19.3892 361.216 18.3252 360.928 17.3652 360.352C16.4212 359.776 15.6772 358.968 15.1332 357.928C14.5892 356.888 14.3172 355.704 14.3172 354.376ZM25.4532 354.4C25.4532 353.408 25.2532 352.544 24.8532 351.808C24.4532 351.072 23.9092 350.512 23.2212 350.128C22.5492 349.728 21.8052 349.528 20.9892 349.528C20.1732 349.528 19.4292 349.72 18.7572 350.104C18.0852 350.488 17.5492 351.048 17.1492 351.784C16.7492 352.52 16.5492 353.384 16.5492 354.376C16.5492 355.384 16.7492 356.264 17.1492 357.016C17.5492 357.752 18.0852 358.32 18.7572 358.72C19.4292 359.104 20.1732 359.296 20.9892 359.296C21.8052 359.296 22.5492 359.104 23.2212 358.72C23.9092 358.32 24.4532 357.752 24.8532 357.016C25.2532 356.264 25.4532 355.392 25.4532 354.4ZM30.5359 354.376C30.5359 353.032 30.8079 351.856 31.3519 350.848C31.8959 349.824 32.6399 349.032 33.5839 348.472C34.5439 347.912 35.6079 347.632 36.7759 347.632C37.9279 347.632 38.9279 347.88 39.7759 348.376C40.6239 348.872 41.2559 349.496 41.6719 350.248V347.848H43.8799V361H41.6719V358.552C41.2399 359.32 40.5919 359.96 39.7279 360.472C38.8799 360.968 37.8879 361.216 36.7519 361.216C35.5839 361.216 34.5279 360.928 33.5839 360.352C32.6399 359.776 31.8959 358.968 31.3519 357.928C30.8079 356.888 30.5359 355.704 30.5359 354.376ZM41.6719 354.4C41.6719 353.408 41.4719 352.544 41.0719 351.808C40.6719 351.072 40.1279 350.512 39.4399 350.128C38.7679 349.728 38.0239 349.528 37.2079 349.528C36.3919 349.528 35.6479 349.72 34.9759 350.104C34.3039 350.488 33.7679 351.048 33.3679 351.784C32.9679 352.52 32.7679 353.384 32.7679 354.376C32.7679 355.384 32.9679 356.264 33.3679 357.016C33.7679 357.752 34.3039 358.32 34.9759 358.72C35.6479 359.104 36.3919 359.296 37.2079 359.296C38.0239 359.296 38.7679 359.104 39.4399 358.72C40.1279 358.32 40.6719 357.752 41.0719 357.016C41.4719 356.264 41.6719 355.392 41.6719 354.4ZM49.7547 350.272C50.1867 349.52 50.8267 348.896 51.6747 348.4C52.5387 347.888 53.5387 347.632 54.6747 347.632C55.8427 347.632 56.8987 347.912 57.8427 348.472C58.8027 349.032 59.5547 349.824 60.0987 350.848C60.6427 351.856 60.9147 353.032 60.9147 354.376C60.9147 355.704 60.6427 356.888 60.0987 357.928C59.5547 358.968 58.8027 359.776 57.8427 360.352C56.8987 360.928 55.8427 361.216 54.6747 361.216C53.5547 361.216 52.5627 360.968 51.6987 360.472C50.8507 359.96 50.2027 359.328 49.7547 358.576V367.24H47.5707V347.848H49.7547V350.272ZM58.6827 354.376C58.6827 353.384 58.4827 352.52 58.0827 351.784C57.6827 351.048 57.1387 350.488 56.4507 350.104C55.7787 349.72 55.0347 349.528 54.2187 349.528C53.4187 349.528 52.6747 349.728 51.9867 350.128C51.3147 350.512 50.7707 351.08 50.3547 351.832C49.9547 352.568 49.7547 353.424 49.7547 354.4C49.7547 355.392 49.9547 356.264 50.3547 357.016C50.7707 357.752 51.3147 358.32 51.9867 358.72C52.6747 359.104 53.4187 359.296 54.2187 359.296C55.0347 359.296 55.7787 359.104 56.4507 358.72C57.1387 358.32 57.6827 357.752 58.0827 357.016C58.4827 356.264 58.6827 355.384 58.6827 354.376ZM62.9734 354.376C62.9734 353.032 63.2454 351.856 63.7894 350.848C64.3334 349.824 65.0774 349.032 66.0214 348.472C66.9814 347.912 68.0454 347.632 69.2134 347.632C70.3654 347.632 71.3654 347.88 72.2134 348.376C73.0614 348.872 73.6934 349.496 74.1094 350.248V347.848H76.3174V361H74.1094V358.552C73.6774 359.32 73.0294 359.96 72.1654 360.472C71.3174 360.968 70.3254 361.216 69.1894 361.216C68.0214 361.216 66.9654 360.928 66.0214 360.352C65.0774 359.776 64.3334 358.968 63.7894 357.928C63.2454 356.888 62.9734 355.704 62.9734 354.376ZM74.1094 354.4C74.1094 353.408 73.9094 352.544 73.5094 351.808C73.1094 351.072 72.5654 350.512 71.8774 350.128C71.2054 349.728 70.4614 349.528 69.6454 349.528C68.8294 349.528 68.0854 349.72 67.4134 350.104C66.7414 350.488 66.2054 351.048 65.8054 351.784C65.4054 352.52 65.2054 353.384 65.2054 354.376C65.2054 355.384 65.4054 356.264 65.8054 357.016C66.2054 357.752 66.7414 358.32 67.4134 358.72C68.0854 359.104 68.8294 359.296 69.6454 359.296C70.4614 359.296 71.2054 359.104 71.8774 358.72C72.5654 358.32 73.1094 357.752 73.5094 357.016C73.9094 356.264 74.1094 355.392 74.1094 354.4ZM82.6722 349.648V357.4C82.6722 358.04 82.8082 358.496 83.0802 358.768C83.3522 359.024 83.8242 359.152 84.4962 359.152H86.1042V361H84.1362C82.9202 361 82.0082 360.72 81.4002 360.16C80.7922 359.6 80.4882 358.68 80.4882 357.4V349.648H78.7842V347.848H80.4882V344.536H82.6722V347.848H86.1042V349.648H82.6722ZM94.3328 354.376C94.3328 353.032 94.6048 351.856 95.1488 350.848C95.6928 349.824 96.4368 349.032 97.3808 348.472C98.3408 347.912 99.4128 347.632 100.597 347.632C101.621 347.632 102.573 347.872 103.453 348.352C104.333 348.816 105.005 349.432 105.469 350.2V343.24H107.677V361H105.469V358.528C105.037 359.312 104.397 359.96 103.549 360.472C102.701 360.968 101.709 361.216 100.573 361.216C99.4048 361.216 98.3408 360.928 97.3808 360.352C96.4368 359.776 95.6928 358.968 95.1488 357.928C94.6048 356.888 94.3328 355.704 94.3328 354.376ZM105.469 354.4C105.469 353.408 105.269 352.544 104.869 351.808C104.469 351.072 103.925 350.512 103.237 350.128C102.565 349.728 101.821 349.528 101.005 349.528C100.189 349.528 99.4448 349.72 98.7728 350.104C98.1008 350.488 97.5648 351.048 97.1648 351.784C96.7648 352.52 96.5648 353.384 96.5648 354.376C96.5648 355.384 96.7648 356.264 97.1648 357.016C97.5648 357.752 98.1008 358.32 98.7728 358.72C99.4448 359.104 100.189 359.296 101.005 359.296C101.821 359.296 102.565 359.104 103.237 358.72C103.925 358.32 104.469 357.752 104.869 357.016C105.269 356.264 105.469 355.392 105.469 354.4ZM112.496 345.712C112.08 345.712 111.728 345.568 111.44 345.28C111.152 344.992 111.008 344.64 111.008 344.224C111.008 343.808 111.152 343.456 111.44 343.168C111.728 342.88 112.08 342.736 112.496 342.736C112.896 342.736 113.232 342.88 113.504 343.168C113.792 343.456 113.936 343.808 113.936 344.224C113.936 344.64 113.792 344.992 113.504 345.28C113.232 345.568 112.896 345.712 112.496 345.712ZM113.552 347.848V361H111.368V347.848H113.552ZM120.682 361.216C119.306 361.216 118.178 360.888 117.298 360.232C116.418 359.576 115.978 358.696 115.978 357.592C115.978 357.384 115.986 357.232 116.002 357.136H118.138C118.074 357.824 118.274 358.384 118.738 358.816C119.218 359.248 119.906 359.464 120.802 359.464C121.698 359.464 122.418 359.296 122.962 358.96C123.522 358.608 123.802 358.12 123.802 357.496C123.802 356.968 123.578 356.552 123.13 356.248C122.682 355.944 121.994 355.616 121.066 355.264C120.25 354.96 119.578 354.672 119.05 354.4C118.522 354.128 118.074 353.752 117.706 353.272C117.338 352.776 117.154 352.152 117.154 351.4C117.154 350.664 117.362 350.008 117.778 349.432C118.21 348.856 118.802 348.416 119.554 348.112C120.322 347.792 121.194 347.632 122.17 347.632C123.514 347.632 124.618 347.968 125.482 348.64C126.346 349.312 126.778 350.192 126.778 351.28C126.778 351.488 126.77 351.648 126.754 351.76H124.666L124.69 351.472C124.69 350.832 124.442 350.328 123.946 349.96C123.466 349.576 122.826 349.384 122.026 349.384C121.242 349.384 120.594 349.56 120.082 349.912C119.586 350.264 119.338 350.736 119.338 351.328C119.338 351.888 119.57 352.328 120.034 352.648C120.498 352.968 121.218 353.32 122.194 353.704C123.01 354.024 123.666 354.32 124.162 354.592C124.658 354.848 125.082 355.208 125.434 355.672C125.786 356.136 125.962 356.72 125.962 357.424C125.962 358.192 125.73 358.864 125.266 359.44C124.818 360.016 124.194 360.456 123.394 360.76C122.594 361.064 121.69 361.216 120.682 361.216ZM128.925 354.4C129.165 353.04 129.645 351.856 130.365 350.848C131.101 349.824 132.005 349.032 133.077 348.472C134.149 347.912 135.309 347.632 136.557 347.632C138.173 347.632 139.429 348.024 140.325 348.808C141.237 349.592 141.741 350.68 141.837 352.072H139.485C139.405 351.272 139.077 350.64 138.501 350.176C137.941 349.712 137.181 349.48 136.221 349.48C134.973 349.48 133.885 349.912 132.957 350.776C132.045 351.624 131.453 352.832 131.181 354.4C131.101 354.928 131.061 355.368 131.061 355.72C131.061 356.888 131.373 357.792 131.997 358.432C132.621 359.056 133.453 359.368 134.493 359.368C135.453 359.368 136.285 359.144 136.989 358.696C137.709 358.248 138.261 357.608 138.645 356.776H140.997C140.421 358.12 139.533 359.2 138.333 360.016C137.133 360.816 135.741 361.216 134.157 361.216C132.509 361.216 131.197 360.744 130.221 359.8C129.261 358.856 128.781 357.568 128.781 355.936C128.781 355.44 128.829 354.928 128.925 354.4ZM143.503 354.376C143.743 353.032 144.223 351.856 144.943 350.848C145.679 349.824 146.567 349.032 147.607 348.472C148.663 347.912 149.783 347.632 150.967 347.632C152.119 347.632 153.071 347.88 153.823 348.376C154.575 348.872 155.095 349.496 155.383 350.248L155.815 347.848H158.023L155.695 361H153.487L153.943 358.552C153.367 359.32 152.607 359.96 151.663 360.472C150.719 360.968 149.679 361.216 148.543 361.216C147.519 361.216 146.615 361 145.831 360.568C145.047 360.12 144.439 359.488 144.007 358.672C143.575 357.856 143.359 356.912 143.359 355.84C143.359 355.36 143.407 354.872 143.503 354.376ZM154.663 354.4C154.727 354.064 154.759 353.704 154.759 353.32C154.759 352.152 154.407 351.232 153.703 350.56C153.015 349.872 152.135 349.528 151.063 349.528C150.247 349.528 149.463 349.72 148.711 350.104C147.975 350.488 147.343 351.048 146.815 351.784C146.287 352.52 145.935 353.384 145.759 354.376C145.695 354.712 145.663 355.08 145.663 355.48C145.663 356.664 146.007 357.6 146.695 358.288C147.383 358.96 148.263 359.296 149.335 359.296C150.151 359.296 150.927 359.104 151.663 358.72C152.415 358.32 153.055 357.752 153.583 357.016C154.127 356.264 154.487 355.392 154.663 354.4ZM168.17 347.608C169.53 347.608 170.618 347.976 171.434 348.712C172.25 349.432 172.658 350.488 172.658 351.88C172.658 352.392 172.618 352.848 172.538 353.248L171.17 361H169.01L170.33 353.56C170.394 353.224 170.426 352.872 170.426 352.504C170.426 351.528 170.154 350.784 169.61 350.272C169.082 349.76 168.338 349.504 167.378 349.504C166.226 349.504 165.242 349.864 164.426 350.584C163.626 351.304 163.106 352.352 162.866 353.728V353.68L161.57 361H159.386L161.714 347.848H163.898L163.562 349.744C164.106 349.056 164.786 348.528 165.602 348.16C166.418 347.792 167.274 347.608 168.17 347.608ZM184.544 343.24V361H182.36V343.24H184.544ZM200.266 353.92C200.266 354.336 200.242 354.776 200.194 355.24H189.682C189.762 356.536 190.202 357.552 191.002 358.288C191.818 359.008 192.802 359.368 193.954 359.368C194.898 359.368 195.682 359.152 196.306 358.72C196.946 358.272 197.394 357.68 197.65 356.944H200.002C199.65 358.208 198.946 359.24 197.89 360.04C196.834 360.824 195.522 361.216 193.954 361.216C192.706 361.216 191.586 360.936 190.594 360.376C189.618 359.816 188.85 359.024 188.29 358C187.73 356.96 187.45 355.76 187.45 354.4C187.45 353.04 187.722 351.848 188.266 350.824C188.81 349.8 189.57 349.016 190.546 348.472C191.538 347.912 192.674 347.632 193.954 347.632C195.202 347.632 196.306 347.904 197.266 348.448C198.226 348.992 198.962 349.744 199.474 350.704C200.002 351.648 200.266 352.72 200.266 353.92ZM198.01 353.464C198.01 352.632 197.826 351.92 197.458 351.328C197.09 350.72 196.586 350.264 195.946 349.96C195.322 349.64 194.626 349.48 193.858 349.48C192.754 349.48 191.81 349.832 191.026 350.536C190.258 351.24 189.818 352.216 189.706 353.464H198.01ZM220.669 347.848L216.565 361H214.309L211.141 350.56L207.973 361H205.717L201.589 347.848H203.821L206.845 358.888L210.109 347.848H212.341L215.533 358.912L218.509 347.848H220.669ZM222.02 354.376C222.02 353.032 222.292 351.856 222.836 350.848C223.38 349.824 224.124 349.032 225.068 348.472C226.028 347.912 227.092 347.632 228.26 347.632C229.412 347.632 230.412 347.88 231.26 348.376C232.108 348.872 232.74 349.496 233.156 350.248V347.848H235.364V361H233.156V358.552C232.724 359.32 232.076 359.96 231.212 360.472C230.364 360.968 229.372 361.216 228.236 361.216C227.068 361.216 226.012 360.928 225.068 360.352C224.124 359.776 223.38 358.968 222.836 357.928C222.292 356.888 222.02 355.704 222.02 354.376ZM233.156 354.4C233.156 353.408 232.956 352.544 232.556 351.808C232.156 351.072 231.612 350.512 230.924 350.128C230.252 349.728 229.508 349.528 228.692 349.528C227.876 349.528 227.132 349.72 226.46 350.104C225.788 350.488 225.252 351.048 224.852 351.784C224.452 352.52 224.252 353.384 224.252 354.376C224.252 355.384 224.452 356.264 224.852 357.016C225.252 357.752 225.788 358.32 226.46 358.72C227.132 359.104 227.876 359.296 228.692 359.296C229.508 359.296 230.252 359.104 230.924 358.72C231.612 358.32 232.156 357.752 232.556 357.016C232.956 356.264 233.156 355.392 233.156 354.4ZM241.719 349.648V357.4C241.719 358.04 241.855 358.496 242.127 358.768C242.399 359.024 242.871 359.152 243.543 359.152H245.151V361H243.183C241.967 361 241.055 360.72 240.447 360.16C239.839 359.6 239.535 358.68 239.535 357.4V349.648H237.831V347.848H239.535V344.536H241.719V347.848H245.151V349.648H241.719ZM268.02 344.272L261.708 361H259.188L252.876 344.272H255.204L260.46 358.696L265.716 344.272H268.02ZM276.15 361.216C274.918 361.216 273.798 360.936 272.79 360.376C271.798 359.816 271.014 359.024 270.438 358C269.878 356.96 269.598 355.76 269.598 354.4C269.598 353.056 269.886 351.872 270.462 350.848C271.054 349.808 271.854 349.016 272.862 348.472C273.87 347.912 274.998 347.632 276.246 347.632C277.494 347.632 278.622 347.912 279.63 348.472C280.638 349.016 281.43 349.8 282.006 350.824C282.598 351.848 282.894 353.04 282.894 354.4C282.894 355.76 282.59 356.96 281.982 358C281.39 359.024 280.582 359.816 279.558 360.376C278.534 360.936 277.398 361.216 276.15 361.216ZM276.15 359.296C276.934 359.296 277.67 359.112 278.358 358.744C279.046 358.376 279.598 357.824 280.014 357.088C280.446 356.352 280.662 355.456 280.662 354.4C280.662 353.344 280.454 352.448 280.038 351.712C279.622 350.976 279.078 350.432 278.406 350.08C277.734 349.712 277.006 349.528 276.222 349.528C275.422 349.528 274.686 349.712 274.014 350.08C273.358 350.432 272.83 350.976 272.43 351.712C272.03 352.448 271.83 353.344 271.83 354.4C271.83 355.472 272.022 356.376 272.406 357.112C272.806 357.848 273.334 358.4 273.99 358.768C274.646 359.12 275.366 359.296 276.15 359.296ZM292.63 361L289.51 356.104L286.51 361H284.23L288.478 354.472L284.23 347.848H286.702L289.822 352.72L292.798 347.848H295.078L290.854 354.352L295.102 361H292.63ZM299.434 350.272C299.866 349.52 300.506 348.896 301.354 348.4C302.218 347.888 303.218 347.632 304.354 347.632C305.522 347.632 306.578 347.912 307.522 348.472C308.482 349.032 309.234 349.824 309.778 350.848C310.322 351.856 310.594 353.032 310.594 354.376C310.594 355.704 310.322 356.888 309.778 357.928C309.234 358.968 308.482 359.776 307.522 360.352C306.578 360.928 305.522 361.216 304.354 361.216C303.234 361.216 302.242 360.968 301.378 360.472C300.53 359.96 299.882 359.328 299.434 358.576V367.24H297.25V347.848H299.434V350.272ZM308.362 354.376C308.362 353.384 308.162 352.52 307.762 351.784C307.362 351.048 306.818 350.488 306.13 350.104C305.458 349.72 304.714 349.528 303.898 349.528C303.098 349.528 302.354 349.728 301.666 350.128C300.994 350.512 300.45 351.08 300.034 351.832C299.634 352.568 299.434 353.424 299.434 354.4C299.434 355.392 299.634 356.264 300.034 357.016C300.45 357.752 300.994 358.32 301.666 358.72C302.354 359.104 303.098 359.296 303.898 359.296C304.714 359.296 305.458 359.104 306.13 358.72C306.818 358.32 307.362 357.752 307.762 357.016C308.162 356.264 308.362 355.384 308.362 354.376ZM315.653 343.24V361H313.469V343.24H315.653ZM325.111 361.216C323.879 361.216 322.759 360.936 321.751 360.376C320.759 359.816 319.975 359.024 319.399 358C318.839 356.96 318.559 355.76 318.559 354.4C318.559 353.056 318.847 351.872 319.423 350.848C320.015 349.808 320.815 349.016 321.823 348.472C322.831 347.912 323.959 347.632 325.207 347.632C326.455 347.632 327.583 347.912 328.591 348.472C329.599 349.016 330.391 349.8 330.967 350.824C331.559 351.848 331.855 353.04 331.855 354.4C331.855 355.76 331.551 356.96 330.943 358C330.351 359.024 329.543 359.816 328.519 360.376C327.495 360.936 326.359 361.216 325.111 361.216ZM325.111 359.296C325.895 359.296 326.631 359.112 327.319 358.744C328.007 358.376 328.559 357.824 328.975 357.088C329.407 356.352 329.623 355.456 329.623 354.4C329.623 353.344 329.415 352.448 328.999 351.712C328.583 350.976 328.039 350.432 327.367 350.08C326.695 349.712 325.967 349.528 325.183 349.528C324.383 349.528 323.647 349.712 322.975 350.08C322.319 350.432 321.791 350.976 321.391 351.712C320.991 352.448 320.791 353.344 320.791 354.4C320.791 355.472 320.983 356.376 321.367 357.112C321.767 357.848 322.295 358.4 322.951 358.768C323.607 359.12 324.327 359.296 325.111 359.296ZM336.911 349.984C337.295 349.232 337.839 348.648 338.543 348.232C339.263 347.816 340.135 347.608 341.159 347.608V349.864H340.583C338.135 349.864 336.911 351.192 336.911 353.848V361H334.727V347.848H336.911V349.984ZM355.68 353.92C355.68 354.336 355.656 354.776 355.608 355.24H345.096C345.176 356.536 345.616 357.552 346.416 358.288C347.232 359.008 348.216 359.368 349.368 359.368C350.312 359.368 351.096 359.152 351.72 358.72C352.36 358.272 352.808 357.68 353.064 356.944H355.416C355.064 358.208 354.36 359.24 353.304 360.04C352.248 360.824 350.936 361.216 349.368 361.216C348.12 361.216 347 360.936 346.008 360.376C345.032 359.816 344.264 359.024 343.704 358C343.144 356.96 342.864 355.76 342.864 354.4C342.864 353.04 343.136 351.848 343.68 350.824C344.224 349.8 344.984 349.016 345.96 348.472C346.952 347.912 348.088 347.632 349.368 347.632C350.616 347.632 351.72 347.904 352.68 348.448C353.64 348.992 354.376 349.744 354.888 350.704C355.416 351.648 355.68 352.72 355.68 353.92ZM353.424 353.464C353.424 352.632 353.24 351.92 352.872 351.328C352.504 350.72 352 350.264 351.36 349.96C350.736 349.64 350.04 349.48 349.272 349.48C348.168 349.48 347.224 349.832 346.44 350.536C345.672 351.24 345.232 352.216 345.12 353.464H353.424ZM136.843 380.392V397H134.659V384.616L129.139 397H127.603L122.059 384.592V397H119.875V380.392H122.227L128.371 394.12L134.515 380.392H136.843ZM146.283 397.216C145.051 397.216 143.931 396.936 142.923 396.376C141.931 395.816 141.147 395.024 140.571 394C140.011 392.96 139.731 391.76 139.731 390.4C139.731 389.056 140.019 387.872 140.595 386.848C141.187 385.808 141.987 385.016 142.995 384.472C144.003 383.912 145.131 383.632 146.379 383.632C147.627 383.632 148.755 383.912 149.763 384.472C150.771 385.016 151.563 385.8 152.139 386.824C152.731 387.848 153.027 389.04 153.027 390.4C153.027 391.76 152.723 392.96 152.115 394C151.523 395.024 150.715 395.816 149.691 396.376C148.667 396.936 147.531 397.216 146.283 397.216ZM146.283 395.296C147.067 395.296 147.803 395.112 148.491 394.744C149.179 394.376 149.731 393.824 150.147 393.088C150.579 392.352 150.795 391.456 150.795 390.4C150.795 389.344 150.587 388.448 150.171 387.712C149.755 386.976 149.211 386.432 148.539 386.08C147.867 385.712 147.139 385.528 146.355 385.528C145.555 385.528 144.819 385.712 144.147 386.08C143.491 386.432 142.963 386.976 142.563 387.712C142.163 388.448 141.963 389.344 141.963 390.4C141.963 391.472 142.155 392.376 142.539 393.112C142.939 393.848 143.467 394.4 144.123 394.768C144.779 395.12 145.499 395.296 146.283 395.296ZM158.083 386.296C158.531 385.512 159.187 384.872 160.051 384.376C160.915 383.88 161.899 383.632 163.003 383.632C164.187 383.632 165.251 383.912 166.195 384.472C167.139 385.032 167.883 385.824 168.427 386.848C168.971 387.856 169.243 389.032 169.243 390.376C169.243 391.704 168.971 392.888 168.427 393.928C167.883 394.968 167.131 395.776 166.171 396.352C165.227 396.928 164.171 397.216 163.003 397.216C161.867 397.216 160.867 396.968 160.003 396.472C159.155 395.976 158.515 395.344 158.083 394.576V397H155.899V379.24H158.083V386.296ZM167.011 390.376C167.011 389.384 166.811 388.52 166.411 387.784C166.011 387.048 165.467 386.488 164.779 386.104C164.107 385.72 163.363 385.528 162.547 385.528C161.747 385.528 161.003 385.728 160.315 386.128C159.643 386.512 159.099 387.08 158.683 387.832C158.283 388.568 158.083 389.424 158.083 390.4C158.083 391.392 158.283 392.264 158.683 393.016C159.099 393.752 159.643 394.32 160.315 394.72C161.003 395.104 161.747 395.296 162.547 395.296C163.363 395.296 164.107 395.104 164.779 394.72C165.467 394.32 166.011 393.752 166.411 393.016C166.811 392.264 167.011 391.384 167.011 390.376ZM173.246 381.712C172.83 381.712 172.478 381.568 172.19 381.28C171.902 380.992 171.758 380.64 171.758 380.224C171.758 379.808 171.902 379.456 172.19 379.168C172.478 378.88 172.83 378.736 173.246 378.736C173.646 378.736 173.982 378.88 174.254 379.168C174.542 379.456 174.686 379.808 174.686 380.224C174.686 380.64 174.542 380.992 174.254 381.28C173.982 381.568 173.646 381.712 173.246 381.712ZM174.302 383.848V397H172.118V383.848H174.302ZM180.208 379.24V397H178.024V379.24H180.208ZM195.93 389.92C195.93 390.336 195.906 390.776 195.858 391.24H185.346C185.426 392.536 185.866 393.552 186.666 394.288C187.482 395.008 188.466 395.368 189.618 395.368C190.562 395.368 191.346 395.152 191.97 394.72C192.61 394.272 193.058 393.68 193.314 392.944H195.666C195.314 394.208 194.61 395.24 193.554 396.04C192.498 396.824 191.186 397.216 189.618 397.216C188.37 397.216 187.25 396.936 186.258 396.376C185.282 395.816 184.514 395.024 183.954 394C183.394 392.96 183.114 391.76 183.114 390.4C183.114 389.04 183.386 387.848 183.93 386.824C184.474 385.8 185.234 385.016 186.21 384.472C187.202 383.912 188.338 383.632 189.618 383.632C190.866 383.632 191.97 383.904 192.93 384.448C193.89 384.992 194.626 385.744 195.138 386.704C195.666 387.648 195.93 388.72 195.93 389.92ZM193.674 389.464C193.674 388.632 193.49 387.92 193.122 387.328C192.754 386.72 192.25 386.264 191.61 385.96C190.986 385.64 190.29 385.48 189.522 385.48C188.418 385.48 187.474 385.832 186.69 386.536C185.922 387.24 185.482 388.216 185.37 389.464H193.674ZM215.099 393.28H207.803L206.459 397H204.155L210.203 380.368H212.723L218.747 397H216.443L215.099 393.28ZM214.475 391.504L211.451 383.056L208.427 391.504H214.475ZM223.567 386.272C223.999 385.52 224.639 384.896 225.487 384.4C226.351 383.888 227.351 383.632 228.487 383.632C229.655 383.632 230.711 383.912 231.655 384.472C232.615 385.032 233.367 385.824 233.911 386.848C234.455 387.856 234.727 389.032 234.727 390.376C234.727 391.704 234.455 392.888 233.911 393.928C233.367 394.968 232.615 395.776 231.655 396.352C230.711 396.928 229.655 397.216 228.487 397.216C227.367 397.216 226.375 396.968 225.511 396.472C224.663 395.96 224.015 395.328 223.567 394.576V403.24H221.383V383.848H223.567V386.272ZM232.495 390.376C232.495 389.384 232.295 388.52 231.895 387.784C231.495 387.048 230.951 386.488 230.263 386.104C229.591 385.72 228.847 385.528 228.031 385.528C227.231 385.528 226.487 385.728 225.799 386.128C225.127 386.512 224.583 387.08 224.167 387.832C223.767 388.568 223.567 389.424 223.567 390.4C223.567 391.392 223.767 392.264 224.167 393.016C224.583 393.752 225.127 394.32 225.799 394.72C226.487 395.104 227.231 395.296 228.031 395.296C228.847 395.296 229.591 395.104 230.263 394.72C230.951 394.32 231.495 393.752 231.895 393.016C232.295 392.264 232.495 391.384 232.495 390.376ZM239.786 386.272C240.218 385.52 240.858 384.896 241.706 384.4C242.57 383.888 243.57 383.632 244.706 383.632C245.874 383.632 246.93 383.912 247.874 384.472C248.834 385.032 249.586 385.824 250.13 386.848C250.674 387.856 250.946 389.032 250.946 390.376C250.946 391.704 250.674 392.888 250.13 393.928C249.586 394.968 248.834 395.776 247.874 396.352C246.93 396.928 245.874 397.216 244.706 397.216C243.586 397.216 242.594 396.968 241.73 396.472C240.882 395.96 240.234 395.328 239.786 394.576V403.24H237.602V383.848H239.786V386.272ZM248.714 390.376C248.714 389.384 248.514 388.52 248.114 387.784C247.714 387.048 247.17 386.488 246.482 386.104C245.81 385.72 245.066 385.528 244.25 385.528C243.45 385.528 242.706 385.728 242.018 386.128C241.346 386.512 240.802 387.08 240.386 387.832C239.986 388.568 239.786 389.424 239.786 390.4C239.786 391.392 239.986 392.264 240.386 393.016C240.802 393.752 241.346 394.32 242.018 394.72C242.706 395.104 243.45 395.296 244.25 395.296C245.066 395.296 245.81 395.104 246.482 394.72C247.17 394.32 247.714 393.752 248.114 393.016C248.514 392.264 248.714 391.384 248.714 390.376Z" fill="#25014B"/>
<path d="M19.5389 409.62L17.7089 420H16.3439L17.7089 412.26L12.8939 420H11.9339L9.83387 412.29L8.46887 420H7.10387L8.94887 409.62H10.4189L12.7439 418.2L18.0839 409.62H19.5389ZM20.2338 415.86C20.3838 415.02 20.6838 414.285 21.1338 413.655C21.5938 413.015 22.1488 412.52 22.7988 412.17C23.4588 411.82 24.1588 411.645 24.8988 411.645C25.6188 411.645 26.2138 411.8 26.6838 412.11C27.1538 412.42 27.4788 412.81 27.6588 413.28L27.9288 411.78H29.3088L27.8538 420H26.4738L26.7588 418.47C26.3988 418.95 25.9238 419.35 25.3338 419.67C24.7438 419.98 24.0938 420.135 23.3838 420.135C22.7438 420.135 22.1788 420 21.6888 419.73C21.1988 419.45 20.8188 419.055 20.5488 418.545C20.2788 418.035 20.1438 417.445 20.1438 416.775C20.1438 416.475 20.1738 416.17 20.2338 415.86ZM27.2088 415.875C27.2488 415.665 27.2688 415.44 27.2688 415.2C27.2688 414.47 27.0488 413.895 26.6088 413.475C26.1788 413.045 25.6288 412.83 24.9588 412.83C24.4488 412.83 23.9588 412.95 23.4888 413.19C23.0288 413.43 22.6338 413.78 22.3038 414.24C21.9738 414.7 21.7538 415.24 21.6438 415.86C21.6038 416.07 21.5838 416.3 21.5838 416.55C21.5838 417.29 21.7988 417.875 22.2288 418.305C22.6588 418.725 23.2088 418.935 23.8788 418.935C24.3888 418.935 24.8738 418.815 25.3338 418.575C25.8038 418.325 26.2038 417.97 26.5338 417.51C26.8738 417.04 27.0988 416.495 27.2088 415.875ZM32.7105 413.34C33.0405 412.8 33.4555 412.38 33.9555 412.08C34.4555 411.78 35.0255 411.63 35.6655 411.63L35.4105 413.04H35.0505C34.3405 413.04 33.7455 413.23 33.2655 413.61C32.7955 413.99 32.4805 414.63 32.3205 415.53L31.5255 420H30.1605L31.6155 411.78H32.9805L32.7105 413.34ZM39.0562 415.89L42.2062 420H40.3462L37.7662 416.385L37.1212 420H35.7562L37.7212 408.9H39.0862L37.9312 415.41L41.7412 411.78H43.6312L39.0562 415.89ZM48.5009 411.645C49.1909 411.645 49.7859 411.78 50.2859 412.05C50.7959 412.31 51.1809 412.68 51.4409 413.16C51.7109 413.63 51.8459 414.17 51.8459 414.78C51.8459 414.99 51.8209 415.245 51.7709 415.545C51.7309 415.805 51.6659 416.075 51.5759 416.355H45.0059C44.9859 416.555 44.9759 416.7 44.9759 416.79C44.9759 417.48 45.1809 418.02 45.5909 418.41C46.0109 418.79 46.5559 418.98 47.2259 418.98C47.8159 418.98 48.3309 418.845 48.7709 418.575C49.2209 418.295 49.5609 417.925 49.7909 417.465H51.2609C50.9009 418.255 50.3459 418.9 49.5959 419.4C48.8559 419.89 47.9959 420.135 47.0159 420.135C45.9859 420.135 45.1559 419.84 44.5259 419.25C43.9059 418.65 43.5959 417.835 43.5959 416.805C43.5959 416.515 43.6259 416.205 43.6859 415.875C43.8359 415.025 44.1409 414.28 44.6009 413.64C45.0609 413 45.6259 412.51 46.2959 412.17C46.9759 411.82 47.7109 411.645 48.5009 411.645ZM50.3909 415.365C50.4209 415.165 50.4359 414.98 50.4359 414.81C50.4359 414.17 50.2309 413.675 49.8209 413.325C49.4209 412.975 48.8959 412.8 48.2459 412.8C47.5459 412.8 46.9109 413.03 46.3409 413.49C45.7709 413.94 45.3859 414.565 45.1859 415.365H50.3909ZM55.3277 413.34C55.6577 412.8 56.0727 412.38 56.5727 412.08C57.0727 411.78 57.6427 411.63 58.2827 411.63L58.0277 413.04H57.6677C56.9577 413.04 56.3627 413.23 55.8827 413.61C55.4127 413.99 55.0977 414.63 54.9377 415.53L54.1427 420H52.7777L54.2327 411.78H55.5977L55.3277 413.34ZM64.9112 417.75C64.8812 417.9 64.8662 418.03 64.8662 418.14C64.8662 418.39 64.9412 418.57 65.0912 418.68C65.2512 418.79 65.5062 418.845 65.8562 418.845H66.8612L66.6512 420H65.4212C64.7712 420 64.2812 419.875 63.9512 419.625C63.6312 419.375 63.4712 418.965 63.4712 418.395C63.4712 418.175 63.4912 417.96 63.5312 417.75L64.3862 412.905H63.3362L63.5312 411.78H64.5962L64.9562 409.71H66.3362L65.9762 411.78H68.1062L67.9112 412.905H65.7662L64.9112 417.75ZM70.69 410.445C70.47 410.445 70.285 410.375 70.135 410.235C69.995 410.085 69.925 409.9 69.925 409.68C69.925 409.38 70.035 409.125 70.255 408.915C70.475 408.695 70.73 408.585 71.02 408.585C71.25 408.585 71.435 408.655 71.575 408.795C71.715 408.935 71.785 409.12 71.785 409.35C71.785 409.65 71.675 409.91 71.455 410.13C71.235 410.34 70.98 410.445 70.69 410.445ZM71.125 411.78L69.67 420H68.305L69.76 411.78H71.125ZM72.2064 415.86C72.3564 415.02 72.6564 414.285 73.1064 413.655C73.5664 413.015 74.1264 412.52 74.7864 412.17C75.4464 411.82 76.1464 411.645 76.8864 411.645C77.5164 411.645 78.0814 411.795 78.5814 412.095C79.0814 412.385 79.4364 412.77 79.6464 413.25L80.4114 408.9H81.7914L79.8264 420H78.4464L78.7314 418.455C78.3814 418.945 77.9114 419.35 77.3214 419.67C76.7314 419.98 76.0814 420.135 75.3714 420.135C74.7314 420.135 74.1664 420 73.6764 419.73C73.1864 419.45 72.8014 419.055 72.5214 418.545C72.2514 418.035 72.1164 417.445 72.1164 416.775C72.1164 416.475 72.1464 416.17 72.2064 415.86ZM79.1814 415.875C79.2214 415.665 79.2414 415.44 79.2414 415.2C79.2414 414.47 79.0214 413.895 78.5814 413.475C78.1514 413.045 77.6014 412.83 76.9314 412.83C76.4214 412.83 75.9314 412.95 75.4614 413.19C75.0014 413.43 74.6064 413.78 74.2764 414.24C73.9464 414.7 73.7264 415.24 73.6164 415.86C73.5764 416.07 73.5564 416.3 73.5564 416.55C73.5564 417.29 73.7714 417.875 74.2014 418.305C74.6314 418.725 75.1814 418.935 75.8514 418.935C76.3614 418.935 76.8464 418.815 77.3064 418.575C77.7764 418.325 78.1764 417.97 78.5064 417.51C78.8464 417.04 79.0714 416.495 79.1814 415.875ZM82.3432 415.86C82.4932 415.02 82.7932 414.285 83.2432 413.655C83.7032 413.015 84.2582 412.52 84.9082 412.17C85.5682 411.82 86.2682 411.645 87.0082 411.645C87.7282 411.645 88.3232 411.8 88.7932 412.11C89.2632 412.42 89.5882 412.81 89.7682 413.28L90.0382 411.78H91.4182L89.9632 420H88.5832L88.8682 418.47C88.5082 418.95 88.0332 419.35 87.4432 419.67C86.8532 419.98 86.2032 420.135 85.4932 420.135C84.8532 420.135 84.2882 420 83.7982 419.73C83.3082 419.45 82.9282 419.055 82.6582 418.545C82.3882 418.035 82.2532 417.445 82.2532 416.775C82.2532 416.475 82.2832 416.17 82.3432 415.86ZM89.3182 415.875C89.3582 415.665 89.3782 415.44 89.3782 415.2C89.3782 414.47 89.1582 413.895 88.7182 413.475C88.2882 413.045 87.7382 412.83 87.0682 412.83C86.5582 412.83 86.0682 412.95 85.5982 413.19C85.1382 413.43 84.7432 413.78 84.4132 414.24C84.0832 414.7 83.8632 415.24 83.7532 415.86C83.7132 416.07 83.6932 416.3 83.6932 416.55C83.6932 417.29 83.9082 417.875 84.3382 418.305C84.7682 418.725 85.3182 418.935 85.9882 418.935C86.4982 418.935 86.9832 418.815 87.4432 418.575C87.9132 418.325 88.3132 417.97 88.6432 417.51C88.9832 417.04 89.2082 416.495 89.3182 415.875ZM95.5699 415.89L98.7199 420H96.8599L94.2799 416.385L93.6349 420H92.2699L94.2349 408.9H95.5999L94.4449 415.41L98.2549 411.78H100.145L95.5699 415.89ZM115.827 411.63C116.667 411.63 117.337 411.86 117.837 412.32C118.347 412.77 118.602 413.43 118.602 414.3C118.602 414.62 118.577 414.905 118.527 415.155L117.672 420H116.322L117.147 415.35C117.187 415.14 117.207 414.915 117.207 414.675C117.207 414.065 117.042 413.605 116.712 413.295C116.392 412.975 115.937 412.815 115.347 412.815C114.667 412.815 114.082 413.025 113.592 413.445C113.112 413.855 112.782 414.45 112.602 415.23L111.747 420H110.397L111.222 415.35C111.262 415.12 111.282 414.89 111.282 414.66C111.282 414.06 111.117 413.605 110.787 413.295C110.467 412.975 110.012 412.815 109.422 412.815C108.712 412.815 108.107 413.045 107.607 413.505C107.107 413.955 106.782 414.61 106.632 415.47V415.44L105.822 420H104.457L105.912 411.78H107.277L107.067 412.965C107.407 412.535 107.827 412.205 108.327 411.975C108.827 411.745 109.352 411.63 109.902 411.63C110.592 411.63 111.172 411.785 111.642 412.095C112.122 412.405 112.437 412.86 112.587 413.46C112.927 412.88 113.387 412.43 113.967 412.11C114.557 411.79 115.177 411.63 115.827 411.63ZM124.936 411.645C125.626 411.645 126.221 411.78 126.721 412.05C127.231 412.31 127.616 412.68 127.876 413.16C128.146 413.63 128.281 414.17 128.281 414.78C128.281 414.99 128.256 415.245 128.206 415.545C128.166 415.805 128.101 416.075 128.011 416.355H121.441C121.421 416.555 121.411 416.7 121.411 416.79C121.411 417.48 121.616 418.02 122.026 418.41C122.446 418.79 122.991 418.98 123.661 418.98C124.251 418.98 124.766 418.845 125.206 418.575C125.656 418.295 125.996 417.925 126.226 417.465H127.696C127.336 418.255 126.781 418.9 126.031 419.4C125.291 419.89 124.431 420.135 123.451 420.135C122.421 420.135 121.591 419.84 120.961 419.25C120.341 418.65 120.031 417.835 120.031 416.805C120.031 416.515 120.061 416.205 120.121 415.875C120.271 415.025 120.576 414.28 121.036 413.64C121.496 413 122.061 412.51 122.731 412.17C123.411 411.82 124.146 411.645 124.936 411.645ZM126.826 415.365C126.856 415.165 126.871 414.98 126.871 414.81C126.871 414.17 126.666 413.675 126.256 413.325C125.856 412.975 125.331 412.8 124.681 412.8C123.981 412.8 123.346 413.03 122.776 413.49C122.206 413.94 121.821 414.565 121.621 415.365H126.826ZM131.763 413.34C132.093 412.8 132.508 412.38 133.008 412.08C133.508 411.78 134.078 411.63 134.718 411.63L134.463 413.04H134.103C133.393 413.04 132.798 413.23 132.318 413.61C131.848 413.99 131.533 414.63 131.373 415.53L130.578 420H129.213L130.668 411.78H132.033L131.763 413.34ZM139.834 411.645C140.524 411.645 141.119 411.78 141.619 412.05C142.129 412.31 142.514 412.68 142.774 413.16C143.044 413.63 143.179 414.17 143.179 414.78C143.179 414.99 143.154 415.245 143.104 415.545C143.064 415.805 142.999 416.075 142.909 416.355H136.339C136.319 416.555 136.309 416.7 136.309 416.79C136.309 417.48 136.514 418.02 136.924 418.41C137.344 418.79 137.889 418.98 138.559 418.98C139.149 418.98 139.664 418.845 140.104 418.575C140.554 418.295 140.894 417.925 141.124 417.465H142.594C142.234 418.255 141.679 418.9 140.929 419.4C140.189 419.89 139.329 420.135 138.349 420.135C137.319 420.135 136.489 419.84 135.859 419.25C135.239 418.65 134.929 417.835 134.929 416.805C134.929 416.515 134.959 416.205 135.019 415.875C135.169 415.025 135.474 414.28 135.934 413.64C136.394 413 136.959 412.51 137.629 412.17C138.309 411.82 139.044 411.645 139.834 411.645ZM141.724 415.365C141.754 415.165 141.769 414.98 141.769 414.81C141.769 414.17 141.564 413.675 141.154 413.325C140.754 412.975 140.229 412.8 139.579 412.8C138.879 412.8 138.244 413.03 137.674 413.49C137.104 413.94 136.719 414.565 136.519 415.365H141.724ZM146.661 413.295C147.021 412.825 147.496 412.435 148.086 412.125C148.676 411.805 149.321 411.645 150.021 411.645C150.661 411.645 151.226 411.78 151.716 412.05C152.216 412.31 152.601 412.69 152.871 413.19C153.141 413.68 153.276 414.26 153.276 414.93C153.276 415.22 153.246 415.53 153.186 415.86C153.036 416.69 152.731 417.43 152.271 418.08C151.821 418.73 151.266 419.235 150.606 419.595C149.956 419.955 149.266 420.135 148.536 420.135C147.836 420.135 147.246 419.98 146.766 419.67C146.296 419.35 145.956 418.955 145.746 418.485L144.801 423.9H143.436L145.566 411.78H146.931L146.661 413.295ZM151.791 415.86C151.831 415.65 151.851 415.42 151.851 415.17C151.851 414.44 151.636 413.87 151.206 413.46C150.776 413.04 150.221 412.83 149.541 412.83C149.041 412.83 148.556 412.955 148.086 413.205C147.616 413.445 147.211 413.8 146.871 414.27C146.541 414.73 146.321 415.265 146.211 415.875C146.171 416.085 146.151 416.315 146.151 416.565C146.151 417.295 146.366 417.875 146.796 418.305C147.236 418.725 147.791 418.935 148.461 418.935C148.971 418.935 149.456 418.815 149.916 418.575C150.386 418.325 150.786 417.97 151.116 417.51C151.456 417.04 151.681 416.49 151.791 415.86ZM156.797 413.34C157.127 412.8 157.542 412.38 158.042 412.08C158.542 411.78 159.112 411.63 159.752 411.63L159.497 413.04H159.137C158.427 413.04 157.832 413.23 157.352 413.61C156.882 413.99 156.567 414.63 156.407 415.53L155.612 420H154.247L155.702 411.78H157.067L156.797 413.34ZM164.868 411.645C165.558 411.645 166.153 411.78 166.653 412.05C167.163 412.31 167.548 412.68 167.808 413.16C168.078 413.63 168.213 414.17 168.213 414.78C168.213 414.99 168.188 415.245 168.138 415.545C168.098 415.805 168.033 416.075 167.943 416.355H161.373C161.353 416.555 161.343 416.7 161.343 416.79C161.343 417.48 161.548 418.02 161.958 418.41C162.378 418.79 162.923 418.98 163.593 418.98C164.183 418.98 164.698 418.845 165.138 418.575C165.588 418.295 165.928 417.925 166.158 417.465H167.628C167.268 418.255 166.713 418.9 165.963 419.4C165.223 419.89 164.363 420.135 163.383 420.135C162.353 420.135 161.523 419.84 160.893 419.25C160.273 418.65 159.963 417.835 159.963 416.805C159.963 416.515 159.993 416.205 160.053 415.875C160.203 415.025 160.508 414.28 160.968 413.64C161.428 413 161.993 412.51 162.663 412.17C163.343 411.82 164.078 411.645 164.868 411.645ZM166.758 415.365C166.788 415.165 166.803 414.98 166.803 414.81C166.803 414.17 166.598 413.675 166.188 413.325C165.788 412.975 165.263 412.8 164.613 412.8C163.913 412.8 163.278 413.03 162.708 413.49C162.138 413.94 161.753 414.565 161.553 415.365H166.758ZM172.04 420.135C171.18 420.135 170.475 419.93 169.925 419.52C169.375 419.11 169.1 418.56 169.1 417.87C169.1 417.74 169.105 417.645 169.115 417.585H170.45C170.41 418.015 170.535 418.365 170.825 418.635C171.125 418.905 171.555 419.04 172.115 419.04C172.675 419.04 173.125 418.935 173.465 418.725C173.815 418.505 173.99 418.2 173.99 417.81C173.99 417.48 173.85 417.22 173.57 417.03C173.29 416.84 172.86 416.635 172.28 416.415C171.77 416.225 171.35 416.045 171.02 415.875C170.69 415.705 170.41 415.47 170.18 415.17C169.95 414.86 169.835 414.47 169.835 414C169.835 413.54 169.965 413.13 170.225 412.77C170.495 412.41 170.865 412.135 171.335 411.945C171.815 411.745 172.36 411.645 172.97 411.645C173.81 411.645 174.5 411.855 175.04 412.275C175.58 412.695 175.85 413.245 175.85 413.925C175.85 414.055 175.845 414.155 175.835 414.225H174.53L174.545 414.045C174.545 413.645 174.39 413.33 174.08 413.1C173.78 412.86 173.38 412.74 172.88 412.74C172.39 412.74 171.985 412.85 171.665 413.07C171.355 413.29 171.2 413.585 171.2 413.955C171.2 414.305 171.345 414.58 171.635 414.78C171.925 414.98 172.375 415.2 172.985 415.44C173.495 415.64 173.905 415.825 174.215 415.995C174.525 416.155 174.79 416.38 175.01 416.67C175.23 416.96 175.34 417.325 175.34 417.765C175.34 418.245 175.195 418.665 174.905 419.025C174.625 419.385 174.235 419.66 173.735 419.85C173.235 420.04 172.67 420.135 172.04 420.135ZM182.007 411.645C182.697 411.645 183.292 411.78 183.792 412.05C184.302 412.31 184.687 412.68 184.947 413.16C185.217 413.63 185.352 414.17 185.352 414.78C185.352 414.99 185.327 415.245 185.277 415.545C185.237 415.805 185.172 416.075 185.082 416.355H178.512C178.492 416.555 178.482 416.7 178.482 416.79C178.482 417.48 178.687 418.02 179.097 418.41C179.517 418.79 180.062 418.98 180.732 418.98C181.322 418.98 181.837 418.845 182.277 418.575C182.727 418.295 183.067 417.925 183.297 417.465H184.767C184.407 418.255 183.852 418.9 183.102 419.4C182.362 419.89 181.502 420.135 180.522 420.135C179.492 420.135 178.662 419.84 178.032 419.25C177.412 418.65 177.102 417.835 177.102 416.805C177.102 416.515 177.132 416.205 177.192 415.875C177.342 415.025 177.647 414.28 178.107 413.64C178.567 413 179.132 412.51 179.802 412.17C180.482 411.82 181.217 411.645 182.007 411.645ZM183.897 415.365C183.927 415.165 183.942 414.98 183.942 414.81C183.942 414.17 183.737 413.675 183.327 413.325C182.927 412.975 182.402 412.8 181.752 412.8C181.052 412.8 180.417 413.03 179.847 413.49C179.277 413.94 178.892 414.565 178.692 415.365H183.897ZM191.774 411.63C192.624 411.63 193.304 411.86 193.814 412.32C194.324 412.77 194.579 413.43 194.579 414.3C194.579 414.62 194.554 414.905 194.504 415.155L193.649 420H192.299L193.124 415.35C193.164 415.14 193.184 414.92 193.184 414.69C193.184 414.08 193.014 413.615 192.674 413.295C192.344 412.975 191.879 412.815 191.279 412.815C190.559 412.815 189.944 413.04 189.434 413.49C188.934 413.94 188.609 414.595 188.459 415.455V415.425L187.649 420H186.284L187.739 411.78H189.104L188.894 412.965C189.234 412.535 189.659 412.205 190.169 411.975C190.679 411.745 191.214 411.63 191.774 411.63ZM197.948 417.75C197.918 417.9 197.903 418.03 197.903 418.14C197.903 418.39 197.978 418.57 198.128 418.68C198.288 418.79 198.543 418.845 198.893 418.845H199.898L199.688 420H198.458C197.808 420 197.318 419.875 196.988 419.625C196.668 419.375 196.508 418.965 196.508 418.395C196.508 418.175 196.528 417.96 196.568 417.75L197.423 412.905H196.373L196.568 411.78H197.633L197.993 409.71H199.373L199.013 411.78H201.143L200.948 412.905H198.803L197.948 417.75ZM201.552 415.86C201.702 415.02 202.002 414.285 202.452 413.655C202.912 413.015 203.467 412.52 204.117 412.17C204.777 411.82 205.477 411.645 206.217 411.645C206.937 411.645 207.532 411.8 208.002 412.11C208.472 412.42 208.797 412.81 208.977 413.28L209.247 411.78H210.627L209.172 420H207.792L208.077 418.47C207.717 418.95 207.242 419.35 206.652 419.67C206.062 419.98 205.412 420.135 204.702 420.135C204.062 420.135 203.497 420 203.007 419.73C202.517 419.45 202.137 419.055 201.867 418.545C201.597 418.035 201.462 417.445 201.462 416.775C201.462 416.475 201.492 416.17 201.552 415.86ZM208.527 415.875C208.567 415.665 208.587 415.44 208.587 415.2C208.587 414.47 208.367 413.895 207.927 413.475C207.497 413.045 206.947 412.83 206.277 412.83C205.767 412.83 205.277 412.95 204.807 413.19C204.347 413.43 203.952 413.78 203.622 414.24C203.292 414.7 203.072 415.24 202.962 415.86C202.922 416.07 202.902 416.3 202.902 416.55C202.902 417.29 203.117 417.875 203.547 418.305C203.977 418.725 204.527 418.935 205.197 418.935C205.707 418.935 206.192 418.815 206.652 418.575C207.122 418.325 207.522 417.97 207.852 417.51C208.192 417.04 208.417 416.495 208.527 415.875ZM214.374 420.135C213.514 420.135 212.809 419.93 212.259 419.52C211.709 419.11 211.434 418.56 211.434 417.87C211.434 417.74 211.439 417.645 211.449 417.585H212.784C212.744 418.015 212.869 418.365 213.159 418.635C213.459 418.905 213.889 419.04 214.449 419.04C215.009 419.04 215.459 418.935 215.799 418.725C216.149 418.505 216.324 418.2 216.324 417.81C216.324 417.48 216.184 417.22 215.904 417.03C215.624 416.84 215.194 416.635 214.614 416.415C214.104 416.225 213.684 416.045 213.354 415.875C213.024 415.705 212.744 415.47 212.514 415.17C212.284 414.86 212.169 414.47 212.169 414C212.169 413.54 212.299 413.13 212.559 412.77C212.829 412.41 213.199 412.135 213.669 411.945C214.149 411.745 214.694 411.645 215.304 411.645C216.144 411.645 216.834 411.855 217.374 412.275C217.914 412.695 218.184 413.245 218.184 413.925C218.184 414.055 218.179 414.155 218.169 414.225H216.864L216.879 414.045C216.879 413.645 216.724 413.33 216.414 413.1C216.114 412.86 215.714 412.74 215.214 412.74C214.724 412.74 214.319 412.85 213.999 413.07C213.689 413.29 213.534 413.585 213.534 413.955C213.534 414.305 213.679 414.58 213.969 414.78C214.259 414.98 214.709 415.2 215.319 415.44C215.829 415.64 216.239 415.825 216.549 415.995C216.859 416.155 217.124 416.38 217.344 416.67C217.564 416.96 217.674 417.325 217.674 417.765C217.674 418.245 217.529 418.665 217.239 419.025C216.959 419.385 216.569 419.66 216.069 419.85C215.569 420.04 215.004 420.135 214.374 420.135ZM221.701 410.445C221.481 410.445 221.296 410.375 221.146 410.235C221.006 410.085 220.936 409.9 220.936 409.68C220.936 409.38 221.046 409.125 221.266 408.915C221.486 408.695 221.741 408.585 222.031 408.585C222.261 408.585 222.446 408.655 222.586 408.795C222.726 408.935 222.796 409.12 222.796 409.35C222.796 409.65 222.686 409.91 222.466 410.13C222.246 410.34 221.991 410.445 221.701 410.445ZM222.136 411.78L220.681 420H219.316L220.771 411.78H222.136ZM226.307 415.89L229.457 420H227.597L225.017 416.385L224.372 420H223.007L224.972 408.9H226.337L225.182 415.41L228.992 411.78H230.882L226.307 415.89ZM230.937 415.86C231.087 415.02 231.387 414.285 231.837 413.655C232.297 413.015 232.852 412.52 233.502 412.17C234.162 411.82 234.862 411.645 235.602 411.645C236.322 411.645 236.917 411.8 237.387 412.11C237.857 412.42 238.182 412.81 238.362 413.28L238.632 411.78H240.012L238.557 420H237.177L237.462 418.47C237.102 418.95 236.627 419.35 236.037 419.67C235.447 419.98 234.797 420.135 234.087 420.135C233.447 420.135 232.882 420 232.392 419.73C231.902 419.45 231.522 419.055 231.252 418.545C230.982 418.035 230.847 417.445 230.847 416.775C230.847 416.475 230.877 416.17 230.937 415.86ZM237.912 415.875C237.952 415.665 237.972 415.44 237.972 415.2C237.972 414.47 237.752 413.895 237.312 413.475C236.882 413.045 236.332 412.83 235.662 412.83C235.152 412.83 234.662 412.95 234.192 413.19C233.732 413.43 233.337 413.78 233.007 414.24C232.677 414.7 232.457 415.24 232.347 415.86C232.307 416.07 232.287 416.3 232.287 416.55C232.287 417.29 232.502 417.875 232.932 418.305C233.362 418.725 233.912 418.935 234.582 418.935C235.092 418.935 235.577 418.815 236.037 418.575C236.507 418.325 236.907 417.97 237.237 417.51C237.577 417.04 237.802 416.495 237.912 415.875ZM246.354 411.63C247.204 411.63 247.884 411.86 248.394 412.32C248.904 412.77 249.159 413.43 249.159 414.3C249.159 414.62 249.134 414.905 249.084 415.155L248.229 420H246.879L247.704 415.35C247.744 415.14 247.764 414.92 247.764 414.69C247.764 414.08 247.594 413.615 247.254 413.295C246.924 412.975 246.459 412.815 245.859 412.815C245.139 412.815 244.524 413.04 244.014 413.49C243.514 413.94 243.189 414.595 243.039 415.455V415.425L242.229 420H240.864L242.319 411.78H243.684L243.474 412.965C243.814 412.535 244.239 412.205 244.749 411.975C245.259 411.745 245.794 411.63 246.354 411.63ZM257.476 413.31C257.846 412.82 258.326 412.42 258.916 412.11C259.506 411.8 260.146 411.645 260.836 411.645C261.816 411.645 262.601 411.94 263.191 412.53C263.791 413.12 264.091 413.92 264.091 414.93C264.091 415.22 264.061 415.53 264.001 415.86C263.851 416.69 263.546 417.43 263.086 418.08C262.636 418.73 262.081 419.235 261.421 419.595C260.771 419.955 260.081 420.135 259.351 420.135C258.641 420.135 258.046 419.98 257.566 419.67C257.086 419.36 256.751 418.965 256.561 418.485L256.291 420H254.926L256.891 408.9H258.256L257.476 413.31ZM262.606 415.86C262.646 415.65 262.666 415.42 262.666 415.17C262.666 414.44 262.451 413.87 262.021 413.46C261.591 413.04 261.036 412.83 260.356 412.83C259.856 412.83 259.371 412.955 258.901 413.205C258.431 413.445 258.026 413.8 257.686 414.27C257.356 414.73 257.136 415.265 257.026 415.875C256.986 416.085 256.966 416.315 256.966 416.565C256.966 417.295 257.181 417.875 257.611 418.305C258.051 418.725 258.606 418.935 259.276 418.935C259.786 418.935 260.271 418.815 260.731 418.575C261.201 418.325 261.601 417.97 261.931 417.51C262.271 417.04 262.496 416.49 262.606 415.86ZM265.273 415.86C265.423 415.02 265.723 414.285 266.173 413.655C266.633 413.015 267.188 412.52 267.838 412.17C268.498 411.82 269.198 411.645 269.938 411.645C270.658 411.645 271.253 411.8 271.723 412.11C272.193 412.42 272.518 412.81 272.698 413.28L272.968 411.78H274.348L272.893 420H271.513L271.798 418.47C271.438 418.95 270.963 419.35 270.373 419.67C269.783 419.98 269.133 420.135 268.423 420.135C267.783 420.135 267.218 420 266.728 419.73C266.238 419.45 265.858 419.055 265.588 418.545C265.318 418.035 265.183 417.445 265.183 416.775C265.183 416.475 265.213 416.17 265.273 415.86ZM272.248 415.875C272.288 415.665 272.308 415.44 272.308 415.2C272.308 414.47 272.088 413.895 271.648 413.475C271.218 413.045 270.668 412.83 269.998 412.83C269.488 412.83 268.998 412.95 268.528 413.19C268.068 413.43 267.673 413.78 267.343 414.24C267.013 414.7 266.793 415.24 266.683 415.86C266.643 416.07 266.623 416.3 266.623 416.55C266.623 417.29 266.838 417.875 267.268 418.305C267.698 418.725 268.248 418.935 268.918 418.935C269.428 418.935 269.913 418.815 270.373 418.575C270.843 418.325 271.243 417.97 271.573 417.51C271.913 417.04 272.138 416.495 272.248 415.875ZM280.69 411.63C281.54 411.63 282.22 411.86 282.73 412.32C283.24 412.77 283.495 413.43 283.495 414.3C283.495 414.62 283.47 414.905 283.42 415.155L282.565 420H281.215L282.04 415.35C282.08 415.14 282.1 414.92 282.1 414.69C282.1 414.08 281.93 413.615 281.59 413.295C281.26 412.975 280.795 412.815 280.195 412.815C279.475 412.815 278.86 413.04 278.35 413.49C277.85 413.94 277.525 414.595 277.375 415.455V415.425L276.565 420H275.2L276.655 411.78H278.02L277.81 412.965C278.15 412.535 278.575 412.205 279.085 411.975C279.595 411.745 280.13 411.63 280.69 411.63ZM289.669 411.645C290.379 411.645 290.974 411.8 291.454 412.11C291.934 412.42 292.259 412.81 292.429 413.28L292.699 411.78H294.079L292.594 420.18C292.464 420.93 292.184 421.595 291.754 422.175C291.334 422.765 290.799 423.225 290.149 423.555C289.499 423.885 288.779 424.05 287.989 424.05C286.909 424.05 286.054 423.79 285.424 423.27C284.794 422.76 284.489 422.07 284.509 421.2H285.874C285.934 421.7 286.169 422.1 286.579 422.4C286.999 422.71 287.539 422.865 288.199 422.865C288.949 422.865 289.604 422.63 290.164 422.16C290.724 421.69 291.079 421.03 291.229 420.18L291.529 418.455C291.169 418.935 290.694 419.335 290.104 419.655C289.524 419.975 288.879 420.135 288.169 420.135C287.529 420.135 286.964 420 286.474 419.73C285.984 419.45 285.599 419.055 285.319 418.545C285.049 418.035 284.914 417.445 284.914 416.775C284.914 416.475 284.944 416.17 285.004 415.86C285.154 415.02 285.454 414.285 285.904 413.655C286.364 413.015 286.919 412.52 287.569 412.17C288.229 411.82 288.929 411.645 289.669 411.645ZM291.979 415.875C292.019 415.665 292.039 415.44 292.039 415.2C292.039 414.47 291.819 413.895 291.379 413.475C290.949 413.045 290.399 412.83 289.729 412.83C289.219 412.83 288.729 412.95 288.259 413.19C287.799 413.43 287.404 413.78 287.074 414.24C286.744 414.7 286.524 415.24 286.414 415.86C286.374 416.07 286.354 416.3 286.354 416.55C286.354 417.29 286.569 417.875 286.999 418.305C287.429 418.725 287.979 418.935 288.649 418.935C289.159 418.935 289.644 418.815 290.104 418.575C290.574 418.325 290.974 417.97 291.304 417.51C291.644 417.04 291.869 416.495 291.979 415.875ZM303.676 411.78L302.221 420H300.856L301.066 418.8C300.736 419.22 300.316 419.545 299.806 419.775C299.296 420.005 298.766 420.12 298.216 420.12C297.356 420.12 296.666 419.89 296.146 419.43C295.636 418.96 295.381 418.29 295.381 417.42C295.381 417.2 295.406 416.925 295.456 416.595L296.311 411.78H297.661L296.851 416.415C296.811 416.625 296.791 416.845 296.791 417.075C296.791 417.685 296.956 418.15 297.286 418.47C297.626 418.78 298.096 418.935 298.696 418.935C299.416 418.935 300.026 418.71 300.526 418.26C301.036 417.81 301.361 417.155 301.501 416.295V416.34L302.311 411.78H303.676ZM310.016 411.63C310.866 411.63 311.546 411.86 312.056 412.32C312.566 412.77 312.821 413.43 312.821 414.3C312.821 414.62 312.796 414.905 312.746 415.155L311.891 420H310.541L311.366 415.35C311.406 415.14 311.426 414.92 311.426 414.69C311.426 414.08 311.256 413.615 310.916 413.295C310.586 412.975 310.121 412.815 309.521 412.815C308.801 412.815 308.186 413.04 307.676 413.49C307.176 413.94 306.851 414.595 306.701 415.455V415.425L305.891 420H304.526L305.981 411.78H307.346L307.136 412.965C307.476 412.535 307.901 412.205 308.411 411.975C308.921 411.745 309.456 411.63 310.016 411.63ZM314.33 415.86C314.48 415.02 314.78 414.285 315.23 413.655C315.69 413.015 316.245 412.52 316.895 412.17C317.555 411.82 318.255 411.645 318.995 411.645C319.715 411.645 320.31 411.8 320.78 412.11C321.25 412.42 321.575 412.81 321.755 413.28L322.025 411.78H323.405L321.95 420H320.57L320.855 418.47C320.495 418.95 320.02 419.35 319.43 419.67C318.84 419.98 318.19 420.135 317.48 420.135C316.84 420.135 316.275 420 315.785 419.73C315.295 419.45 314.915 419.055 314.645 418.545C314.375 418.035 314.24 417.445 314.24 416.775C314.24 416.475 314.27 416.17 314.33 415.86ZM321.305 415.875C321.345 415.665 321.365 415.44 321.365 415.2C321.365 414.47 321.145 413.895 320.705 413.475C320.275 413.045 319.725 412.83 319.055 412.83C318.545 412.83 318.055 412.95 317.585 413.19C317.125 413.43 316.73 413.78 316.4 414.24C316.07 414.7 315.85 415.24 315.74 415.86C315.7 416.07 315.68 416.3 315.68 416.55C315.68 417.29 315.895 417.875 316.325 418.305C316.755 418.725 317.305 418.935 317.975 418.935C318.485 418.935 318.97 418.815 319.43 418.575C319.9 418.325 320.3 417.97 320.63 417.51C320.97 417.04 321.195 416.495 321.305 415.875ZM329.747 411.63C330.597 411.63 331.277 411.86 331.787 412.32C332.297 412.77 332.552 413.43 332.552 414.3C332.552 414.62 332.527 414.905 332.477 415.155L331.622 420H330.272L331.097 415.35C331.137 415.14 331.157 414.92 331.157 414.69C331.157 414.08 330.987 413.615 330.647 413.295C330.317 412.975 329.852 412.815 329.252 412.815C328.532 412.815 327.917 413.04 327.407 413.49C326.907 413.94 326.582 414.595 326.432 415.455V415.425L325.622 420H324.257L325.712 411.78H327.077L326.867 412.965C327.207 412.535 327.632 412.205 328.142 411.975C328.652 411.745 329.187 411.63 329.747 411.63ZM338.53 415.86C338.68 415.02 338.98 414.285 339.43 413.655C339.89 413.015 340.445 412.52 341.095 412.17C341.755 411.82 342.455 411.645 343.195 411.645C343.915 411.645 344.51 411.8 344.98 412.11C345.45 412.42 345.775 412.81 345.955 413.28L346.225 411.78H347.605L346.15 420H344.77L345.055 418.47C344.695 418.95 344.22 419.35 343.63 419.67C343.04 419.98 342.39 420.135 341.68 420.135C341.04 420.135 340.475 420 339.985 419.73C339.495 419.45 339.115 419.055 338.845 418.545C338.575 418.035 338.44 417.445 338.44 416.775C338.44 416.475 338.47 416.17 338.53 415.86ZM345.505 415.875C345.545 415.665 345.565 415.44 345.565 415.2C345.565 414.47 345.345 413.895 344.905 413.475C344.475 413.045 343.925 412.83 343.255 412.83C342.745 412.83 342.255 412.95 341.785 413.19C341.325 413.43 340.93 413.78 340.6 414.24C340.27 414.7 340.05 415.24 339.94 415.86C339.9 416.07 339.88 416.3 339.88 416.55C339.88 417.29 340.095 417.875 340.525 418.305C340.955 418.725 341.505 418.935 342.175 418.935C342.685 418.935 343.17 418.815 343.63 418.575C344.1 418.325 344.5 417.97 344.83 417.51C345.17 417.04 345.395 416.495 345.505 415.875ZM351.351 420.135C350.491 420.135 349.786 419.93 349.236 419.52C348.686 419.11 348.411 418.56 348.411 417.87C348.411 417.74 348.416 417.645 348.426 417.585H349.761C349.721 418.015 349.846 418.365 350.136 418.635C350.436 418.905 350.866 419.04 351.426 419.04C351.986 419.04 352.436 418.935 352.776 418.725C353.126 418.505 353.301 418.2 353.301 417.81C353.301 417.48 353.161 417.22 352.881 417.03C352.601 416.84 352.171 416.635 351.591 416.415C351.081 416.225 350.661 416.045 350.331 415.875C350.001 415.705 349.721 415.47 349.491 415.17C349.261 414.86 349.146 414.47 349.146 414C349.146 413.54 349.276 413.13 349.536 412.77C349.806 412.41 350.176 412.135 350.646 411.945C351.126 411.745 351.671 411.645 352.281 411.645C353.121 411.645 353.811 411.855 354.351 412.275C354.891 412.695 355.161 413.245 355.161 413.925C355.161 414.055 355.156 414.155 355.146 414.225H353.841L353.856 414.045C353.856 413.645 353.701 413.33 353.391 413.1C353.091 412.86 352.691 412.74 352.191 412.74C351.701 412.74 351.296 412.85 350.976 413.07C350.666 413.29 350.511 413.585 350.511 413.955C350.511 414.305 350.656 414.58 350.946 414.78C351.236 414.98 351.686 415.2 352.296 415.44C352.806 415.64 353.216 415.825 353.526 415.995C353.836 416.155 354.101 416.38 354.321 416.67C354.541 416.96 354.651 417.325 354.651 417.765C354.651 418.245 354.506 418.665 354.216 419.025C353.936 419.385 353.546 419.66 353.046 419.85C352.546 420.04 351.981 420.135 351.351 420.135ZM359.623 408.9L357.658 420H356.293L358.258 408.9H359.623ZM362.37 410.445C362.15 410.445 361.965 410.375 361.815 410.235C361.675 410.085 361.605 409.9 361.605 409.68C361.605 409.38 361.715 409.125 361.935 408.915C362.155 408.695 362.41 408.585 362.7 408.585C362.93 408.585 363.115 408.655 363.255 408.795C363.395 408.935 363.465 409.12 363.465 409.35C363.465 409.65 363.355 409.91 363.135 410.13C362.915 410.34 362.66 410.445 362.37 410.445ZM362.805 411.78L361.35 420H359.985L361.44 411.78H362.805Z" fill="#FF0000"/>
</svg>
