<svg width="370" height="432" viewBox="0 0 370 432" fill="none" xmlns="http://www.w3.org/2000/svg">
<circle cx="180.64" cy="132.64" r="132.64" fill="url(#paint0_linear_42_3745)"/>
<circle cx="86.5" cy="38.5" r="38.5" fill="url(#paint1_linear_42_3745)"/>
<path d="M91.8284 55H85.4864V37.654C85.4864 37.178 85.4864 36.59 85.4864 35.89C85.5144 35.19 85.5424 34.462 85.5704 33.706C85.5984 32.95 85.6264 32.278 85.6544 31.69C85.5144 31.858 85.2064 32.166 84.7304 32.614C84.2824 33.034 83.8624 33.412 83.4704 33.748L80.0264 36.52L76.9604 32.698L86.6204 25.012H91.8284V55Z" fill="white"/>
<mask id="mask0_42_3745" style="mask-type:luminance" maskUnits="userSpaceOnUse" x="111" y="63" width="18" height="369">
<path d="M111.278 63.104H128.597V432H111.278V63.104Z" fill="white"/>
</mask>
<g mask="url(#mask0_42_3745)">
<path fill-rule="evenodd" clip-rule="evenodd" d="M116.702 79.0142C113.702 77.7726 111.581 74.8238 111.581 71.3576C111.581 66.805 115.278 63.104 119.83 63.104C124.411 63.104 128.108 66.805 128.108 71.3576C128.108 74.8238 125.987 77.7726 122.986 79.0142L119.83 256.259L116.702 79.0142Z" fill="#4C1E7D"/>
</g>
<mask id="mask1_42_3745" style="mask-type:luminance" maskUnits="userSpaceOnUse" x="78" y="130" width="84" height="249">
<path d="M78.5629 130.955H161.083V378.515H78.5629V130.955Z" fill="white"/>
</mask>
<g mask="url(#mask1_42_3745)">
<path fill-rule="evenodd" clip-rule="evenodd" d="M83.7204 143.328C80.8232 142.914 78.5748 140.43 78.5748 137.43C78.5748 134.143 81.2371 131.48 84.5242 131.48C87.8073 131.48 90.4736 134.143 90.4736 137.43C90.4736 140.43 88.2491 142.914 85.352 143.328L84.5242 225.696L83.7204 143.328ZM154.337 143.328C151.44 142.914 149.216 140.43 149.216 137.43C149.216 134.143 151.882 131.48 155.141 131.48C158.424 131.48 161.091 134.143 161.091 137.43C161.091 140.43 158.866 142.914 155.969 143.328L155.141 225.696L154.337 143.328Z" fill="#58278D"/>
</g>
<path d="M230.5 149.159V172.492C230.5 175.586 229.271 178.554 227.083 180.742C224.895 182.93 221.928 184.159 218.833 184.159H137.167C134.072 184.159 131.105 182.93 128.917 180.742C126.729 178.554 125.5 175.586 125.5 172.492V149.159" stroke="white" stroke-width="10" stroke-linecap="round" stroke-linejoin="round"/>
<path d="M148.833 124.333L178 153.5L207.167 124.333" stroke="white" stroke-width="10" stroke-linecap="round" stroke-linejoin="round"/>
<path d="M178 153.5V83.5" stroke="white" stroke-width="10" stroke-linecap="round" stroke-linejoin="round"/>
<path d="M40.5543 308.272V318.856C40.5543 320.344 40.9143 321.448 41.6343 322.168C42.3703 322.888 43.3863 323.248 44.6823 323.248C45.9623 323.248 46.9623 322.888 47.6823 322.168C48.4183 321.448 48.7863 320.344 48.7863 318.856V308.272H50.9703V318.832C50.9703 320.224 50.6903 321.4 50.1303 322.36C49.5703 323.304 48.8103 324.008 47.8503 324.472C46.9063 324.936 45.8423 325.168 44.6583 325.168C43.4743 325.168 42.4023 324.936 41.4423 324.472C40.4983 324.008 39.7463 323.304 39.1863 322.36C38.6423 321.4 38.3703 320.224 38.3703 318.832V308.272H40.5543ZM61.0216 311.608C62.6216 311.608 63.9176 312.096 64.9096 313.072C65.9016 314.032 66.3976 315.424 66.3976 317.248V325H64.2376V317.56C64.2376 316.248 63.9096 315.248 63.2536 314.56C62.5976 313.856 61.7016 313.504 60.5656 313.504C59.4136 313.504 58.4936 313.864 57.8056 314.584C57.1336 315.304 56.7976 316.352 56.7976 317.728V325H54.6136V311.848H56.7976V313.72C57.2296 313.048 57.8136 312.528 58.5496 312.16C59.3016 311.792 60.1256 311.608 61.0216 311.608ZM69.1492 318.376C69.1492 317.032 69.4212 315.856 69.9652 314.848C70.5092 313.824 71.2532 313.032 72.1972 312.472C73.1572 311.912 74.2292 311.632 75.4132 311.632C76.4372 311.632 77.3892 311.872 78.2692 312.352C79.1492 312.816 79.8212 313.432 80.2852 314.2V307.24H82.4932V325H80.2852V322.528C79.8532 323.312 79.2132 323.96 78.3652 324.472C77.5172 324.968 76.5252 325.216 75.3892 325.216C74.2212 325.216 73.1572 324.928 72.1972 324.352C71.2532 323.776 70.5092 322.968 69.9652 321.928C69.4212 320.888 69.1492 319.704 69.1492 318.376ZM80.2852 318.4C80.2852 317.408 80.0852 316.544 79.6852 315.808C79.2852 315.072 78.7412 314.512 78.0532 314.128C77.3812 313.728 76.6372 313.528 75.8212 313.528C75.0052 313.528 74.2612 313.72 73.5892 314.104C72.9172 314.488 72.3812 315.048 71.9812 315.784C71.5812 316.52 71.3812 317.384 71.3812 318.376C71.3812 319.384 71.5812 320.264 71.9812 321.016C72.3812 321.752 72.9172 322.32 73.5892 322.72C74.2612 323.104 75.0052 323.296 75.8212 323.296C76.6372 323.296 77.3812 323.104 78.0532 322.72C78.7412 322.32 79.2852 321.752 79.6852 321.016C80.0852 320.264 80.2852 319.392 80.2852 318.4ZM97.8479 311.848V325H95.6639V323.056C95.2479 323.728 94.6639 324.256 93.9119 324.64C93.1759 325.008 92.3599 325.192 91.4639 325.192C90.4399 325.192 89.5199 324.984 88.7039 324.568C87.8879 324.136 87.2399 323.496 86.7599 322.648C86.2959 321.8 86.0639 320.768 86.0639 319.552V311.848H88.2239V319.264C88.2239 320.56 88.5519 321.56 89.2079 322.264C89.8639 322.952 90.7599 323.296 91.8959 323.296C93.0639 323.296 93.9839 322.936 94.6559 322.216C95.3279 321.496 95.6639 320.448 95.6639 319.072V311.848H97.8479ZM108.064 311.608C109.056 311.608 109.952 311.824 110.752 312.256C111.552 312.672 112.176 313.304 112.624 314.152C113.088 315 113.32 316.032 113.32 317.248V325H111.16V317.56C111.16 316.248 110.832 315.248 110.176 314.56C109.52 313.856 108.624 313.504 107.488 313.504C106.336 313.504 105.416 313.864 104.728 314.584C104.056 315.304 103.72 316.352 103.72 317.728V325H101.536V307.24H103.72V313.72C104.152 313.048 104.744 312.528 105.496 312.16C106.264 311.792 107.12 311.608 108.064 311.608ZM122.47 318.376C122.47 317.032 122.742 315.856 123.286 314.848C123.83 313.824 124.574 313.032 125.518 312.472C126.478 311.912 127.55 311.632 128.734 311.632C129.758 311.632 130.71 311.872 131.59 312.352C132.47 312.816 133.142 313.432 133.606 314.2V307.24H135.814V325H133.606V322.528C133.174 323.312 132.534 323.96 131.686 324.472C130.838 324.968 129.846 325.216 128.71 325.216C127.542 325.216 126.478 324.928 125.518 324.352C124.574 323.776 123.83 322.968 123.286 321.928C122.742 320.888 122.47 319.704 122.47 318.376ZM133.606 318.4C133.606 317.408 133.406 316.544 133.006 315.808C132.606 315.072 132.062 314.512 131.374 314.128C130.702 313.728 129.958 313.528 129.142 313.528C128.326 313.528 127.582 313.72 126.91 314.104C126.238 314.488 125.702 315.048 125.302 315.784C124.902 316.52 124.702 317.384 124.702 318.376C124.702 319.384 124.902 320.264 125.302 321.016C125.702 321.752 126.238 322.32 126.91 322.72C127.582 323.104 128.326 323.296 129.142 323.296C129.958 323.296 130.702 323.104 131.374 322.72C132.062 322.32 132.606 321.752 133.006 321.016C133.406 320.264 133.606 319.392 133.606 318.4ZM138.688 318.376C138.688 317.032 138.96 315.856 139.504 314.848C140.048 313.824 140.792 313.032 141.736 312.472C142.696 311.912 143.76 311.632 144.928 311.632C146.08 311.632 147.08 311.88 147.928 312.376C148.776 312.872 149.408 313.496 149.824 314.248V311.848H152.032V325H149.824V322.552C149.392 323.32 148.744 323.96 147.88 324.472C147.032 324.968 146.04 325.216 144.904 325.216C143.736 325.216 142.68 324.928 141.736 324.352C140.792 323.776 140.048 322.968 139.504 321.928C138.96 320.888 138.688 319.704 138.688 318.376ZM149.824 318.4C149.824 317.408 149.624 316.544 149.224 315.808C148.824 315.072 148.28 314.512 147.592 314.128C146.92 313.728 146.176 313.528 145.36 313.528C144.544 313.528 143.8 313.72 143.128 314.104C142.456 314.488 141.92 315.048 141.52 315.784C141.12 316.52 140.92 317.384 140.92 318.376C140.92 319.384 141.12 320.264 141.52 321.016C141.92 321.752 142.456 322.32 143.128 322.72C143.8 323.104 144.544 323.296 145.36 323.296C146.176 323.296 146.92 323.104 147.592 322.72C148.28 322.32 148.824 321.752 149.224 321.016C149.624 320.264 149.824 319.392 149.824 318.4ZM162.131 311.608C163.731 311.608 165.027 312.096 166.019 313.072C167.011 314.032 167.507 315.424 167.507 317.248V325H165.347V317.56C165.347 316.248 165.019 315.248 164.363 314.56C163.707 313.856 162.811 313.504 161.675 313.504C160.523 313.504 159.603 313.864 158.915 314.584C158.243 315.304 157.907 316.352 157.907 317.728V325H155.723V311.848H157.907V313.72C158.339 313.048 158.923 312.528 159.659 312.16C160.411 311.792 161.235 311.608 162.131 311.608ZM179.657 314.296C180.105 313.512 180.761 312.872 181.625 312.376C182.489 311.88 183.473 311.632 184.577 311.632C185.761 311.632 186.825 311.912 187.769 312.472C188.713 313.032 189.457 313.824 190.001 314.848C190.545 315.856 190.817 317.032 190.817 318.376C190.817 319.704 190.545 320.888 190.001 321.928C189.457 322.968 188.705 323.776 187.745 324.352C186.801 324.928 185.745 325.216 184.577 325.216C183.441 325.216 182.441 324.968 181.577 324.472C180.729 323.976 180.089 323.344 179.657 322.576V325H177.473V307.24H179.657V314.296ZM188.585 318.376C188.585 317.384 188.385 316.52 187.985 315.784C187.585 315.048 187.041 314.488 186.353 314.104C185.681 313.72 184.937 313.528 184.121 313.528C183.321 313.528 182.577 313.728 181.889 314.128C181.217 314.512 180.673 315.08 180.257 315.832C179.857 316.568 179.657 317.424 179.657 318.4C179.657 319.392 179.857 320.264 180.257 321.016C180.673 321.752 181.217 322.32 181.889 322.72C182.577 323.104 183.321 323.296 184.121 323.296C184.937 323.296 185.681 323.104 186.353 322.72C187.041 322.32 187.585 321.752 187.985 321.016C188.385 320.264 188.585 319.384 188.585 318.376ZM205.356 311.848V325H203.172V323.056C202.756 323.728 202.172 324.256 201.42 324.64C200.684 325.008 199.868 325.192 198.972 325.192C197.948 325.192 197.028 324.984 196.212 324.568C195.396 324.136 194.748 323.496 194.268 322.648C193.804 321.8 193.572 320.768 193.572 319.552V311.848H195.732V319.264C195.732 320.56 196.06 321.56 196.716 322.264C197.372 322.952 198.268 323.296 199.404 323.296C200.572 323.296 201.492 322.936 202.164 322.216C202.836 321.496 203.172 320.448 203.172 319.072V311.848H205.356ZM216.387 325L211.227 319.192V325H209.043V307.24H211.227V317.68L216.291 311.848H219.339L213.147 318.4L219.363 325H216.387ZM220.579 318.376C220.579 317.032 220.851 315.856 221.395 314.848C221.939 313.824 222.683 313.032 223.627 312.472C224.587 311.912 225.651 311.632 226.819 311.632C227.971 311.632 228.971 311.88 229.819 312.376C230.667 312.872 231.299 313.496 231.715 314.248V311.848H233.923V325H231.715V322.552C231.283 323.32 230.635 323.96 229.771 324.472C228.923 324.968 227.931 325.216 226.795 325.216C225.627 325.216 224.571 324.928 223.627 324.352C222.683 323.776 221.939 322.968 221.395 321.928C220.851 320.888 220.579 319.704 220.579 318.376ZM231.715 318.4C231.715 317.408 231.515 316.544 231.115 315.808C230.715 315.072 230.171 314.512 229.483 314.128C228.811 313.728 228.067 313.528 227.251 313.528C226.435 313.528 225.691 313.72 225.019 314.104C224.347 314.488 223.811 315.048 223.411 315.784C223.011 316.52 222.811 317.384 222.811 318.376C222.811 319.384 223.011 320.264 223.411 321.016C223.811 321.752 224.347 322.32 225.019 322.72C225.691 323.104 226.435 323.296 227.251 323.296C228.067 323.296 228.811 323.104 229.483 322.72C230.171 322.32 230.715 321.752 231.115 321.016C231.515 320.264 231.715 319.392 231.715 318.4ZM243.196 318.376C243.196 317.032 243.468 315.856 244.012 314.848C244.556 313.824 245.3 313.032 246.244 312.472C247.204 311.912 248.268 311.632 249.436 311.632C250.588 311.632 251.588 311.88 252.436 312.376C253.284 312.872 253.916 313.496 254.332 314.248V311.848H256.54V325H254.332V322.552C253.9 323.32 253.252 323.96 252.388 324.472C251.54 324.968 250.548 325.216 249.412 325.216C248.244 325.216 247.188 324.928 246.244 324.352C245.3 323.776 244.556 322.968 244.012 321.928C243.468 320.888 243.196 319.704 243.196 318.376ZM254.332 318.4C254.332 317.408 254.132 316.544 253.732 315.808C253.332 315.072 252.788 314.512 252.1 314.128C251.428 313.728 250.684 313.528 249.868 313.528C249.052 313.528 248.308 313.72 247.636 314.104C246.964 314.488 246.428 315.048 246.028 315.784C245.628 316.52 245.428 317.384 245.428 318.376C245.428 319.384 245.628 320.264 246.028 321.016C246.428 321.752 246.964 322.32 247.636 322.72C248.308 323.104 249.052 323.296 249.868 323.296C250.684 323.296 251.428 323.104 252.1 322.72C252.788 322.32 253.332 321.752 253.732 321.016C254.132 320.264 254.332 319.392 254.332 318.4ZM262.415 314.272C262.847 313.52 263.487 312.896 264.335 312.4C265.199 311.888 266.199 311.632 267.335 311.632C268.503 311.632 269.559 311.912 270.503 312.472C271.463 313.032 272.215 313.824 272.759 314.848C273.303 315.856 273.575 317.032 273.575 318.376C273.575 319.704 273.303 320.888 272.759 321.928C272.215 322.968 271.463 323.776 270.503 324.352C269.559 324.928 268.503 325.216 267.335 325.216C266.215 325.216 265.223 324.968 264.359 324.472C263.511 323.96 262.863 323.328 262.415 322.576V331.24H260.231V311.848H262.415V314.272ZM271.343 318.376C271.343 317.384 271.143 316.52 270.743 315.784C270.343 315.048 269.799 314.488 269.111 314.104C268.439 313.72 267.695 313.528 266.879 313.528C266.079 313.528 265.335 313.728 264.647 314.128C263.975 314.512 263.431 315.08 263.015 315.832C262.615 316.568 262.415 317.424 262.415 318.4C262.415 319.392 262.615 320.264 263.015 321.016C263.431 321.752 263.975 322.32 264.647 322.72C265.335 323.104 266.079 323.296 266.879 323.296C267.695 323.296 268.439 323.104 269.111 322.72C269.799 322.32 270.343 321.752 270.743 321.016C271.143 320.264 271.343 319.384 271.343 318.376ZM278.634 307.24V325H276.45V307.24H278.634ZM283.484 309.712C283.068 309.712 282.716 309.568 282.428 309.28C282.14 308.992 281.996 308.64 281.996 308.224C281.996 307.808 282.14 307.456 282.428 307.168C282.716 306.88 283.068 306.736 283.484 306.736C283.884 306.736 284.22 306.88 284.492 307.168C284.78 307.456 284.924 307.808 284.924 308.224C284.924 308.64 284.78 308.992 284.492 309.28C284.22 309.568 283.884 309.712 283.484 309.712ZM284.54 311.848V325H282.356V311.848H284.54ZM295.606 325L290.446 319.192V325H288.262V307.24H290.446V317.68L295.51 311.848H298.558L292.366 318.4L298.582 325H295.606ZM299.798 318.376C299.798 317.032 300.07 315.856 300.614 314.848C301.158 313.824 301.902 313.032 302.846 312.472C303.806 311.912 304.87 311.632 306.038 311.632C307.19 311.632 308.19 311.88 309.038 312.376C309.886 312.872 310.518 313.496 310.934 314.248V311.848H313.142V325H310.934V322.552C310.502 323.32 309.854 323.96 308.99 324.472C308.142 324.968 307.15 325.216 306.014 325.216C304.846 325.216 303.79 324.928 302.846 324.352C301.902 323.776 301.158 322.968 300.614 321.928C300.07 320.888 299.798 319.704 299.798 318.376ZM310.934 318.4C310.934 317.408 310.734 316.544 310.334 315.808C309.934 315.072 309.39 314.512 308.702 314.128C308.03 313.728 307.286 313.528 306.47 313.528C305.654 313.528 304.91 313.72 304.238 314.104C303.566 314.488 303.03 315.048 302.63 315.784C302.23 316.52 302.03 317.384 302.03 318.376C302.03 319.384 302.23 320.264 302.63 321.016C303.03 321.752 303.566 322.32 304.238 322.72C304.91 323.104 305.654 323.296 306.47 323.296C307.286 323.296 308.03 323.104 308.702 322.72C309.39 322.32 309.934 321.752 310.334 321.016C310.734 320.264 310.934 319.392 310.934 318.4ZM321.488 325.216C320.48 325.216 319.576 325.048 318.776 324.712C317.976 324.36 317.344 323.88 316.88 323.272C316.416 322.648 316.16 321.936 316.112 321.136H318.368C318.432 321.792 318.736 322.328 319.28 322.744C319.84 323.16 320.568 323.368 321.464 323.368C322.296 323.368 322.952 323.184 323.432 322.816C323.912 322.448 324.152 321.984 324.152 321.424C324.152 320.848 323.896 320.424 323.384 320.152C322.872 319.864 322.08 319.584 321.008 319.312C320.032 319.056 319.232 318.8 318.608 318.544C318 318.272 317.472 317.88 317.024 317.368C316.592 316.84 316.376 316.152 316.376 315.304C316.376 314.632 316.576 314.016 316.976 313.456C317.376 312.896 317.944 312.456 318.68 312.136C319.416 311.8 320.256 311.632 321.2 311.632C322.656 311.632 323.832 312 324.728 312.736C325.624 313.472 326.104 314.48 326.168 315.76H323.984C323.936 315.072 323.656 314.52 323.144 314.104C322.648 313.688 321.976 313.48 321.128 313.48C320.344 313.48 319.72 313.648 319.256 313.984C318.792 314.32 318.56 314.76 318.56 315.304C318.56 315.736 318.696 316.096 318.968 316.384C319.256 316.656 319.608 316.88 320.024 317.056C320.456 317.216 321.048 317.4 321.8 317.608C322.744 317.864 323.512 318.12 324.104 318.376C324.696 318.616 325.2 318.984 325.616 319.48C326.048 319.976 326.272 320.624 326.288 321.424C326.288 322.144 326.088 322.792 325.688 323.368C325.288 323.944 324.72 324.4 323.984 324.736C323.264 325.056 322.432 325.216 321.488 325.216ZM330.499 309.712C330.083 309.712 329.731 309.568 329.443 309.28C329.155 308.992 329.011 308.64 329.011 308.224C329.011 307.808 329.155 307.456 329.443 307.168C329.731 306.88 330.083 306.736 330.499 306.736C330.899 306.736 331.235 306.88 331.507 307.168C331.795 307.456 331.939 307.808 331.939 308.224C331.939 308.64 331.795 308.992 331.507 309.28C331.235 309.568 330.899 309.712 330.499 309.712ZM331.555 311.848V325H329.371V311.848H331.555ZM35.4845 344.272L29.1725 361H26.6525L20.3405 344.272H22.6685L27.9245 358.696L33.1805 344.272H35.4845ZM43.6153 361.216C42.3833 361.216 41.2633 360.936 40.2553 360.376C39.2633 359.816 38.4793 359.024 37.9033 358C37.3433 356.96 37.0633 355.76 37.0633 354.4C37.0633 353.056 37.3513 351.872 37.9273 350.848C38.5193 349.808 39.3193 349.016 40.3273 348.472C41.3353 347.912 42.4633 347.632 43.7113 347.632C44.9593 347.632 46.0873 347.912 47.0953 348.472C48.1033 349.016 48.8953 349.8 49.4713 350.824C50.0633 351.848 50.3593 353.04 50.3593 354.4C50.3593 355.76 50.0553 356.96 49.4473 358C48.8553 359.024 48.0473 359.816 47.0233 360.376C45.9993 360.936 44.8633 361.216 43.6153 361.216ZM43.6153 359.296C44.3993 359.296 45.1353 359.112 45.8233 358.744C46.5113 358.376 47.0633 357.824 47.4793 357.088C47.9113 356.352 48.1273 355.456 48.1273 354.4C48.1273 353.344 47.9193 352.448 47.5033 351.712C47.0873 350.976 46.5433 350.432 45.8713 350.08C45.1993 349.712 44.4713 349.528 43.6873 349.528C42.8873 349.528 42.1513 349.712 41.4793 350.08C40.8233 350.432 40.2953 350.976 39.8953 351.712C39.4953 352.448 39.2953 353.344 39.2953 354.4C39.2953 355.472 39.4873 356.376 39.8713 357.112C40.2713 357.848 40.7993 358.4 41.4553 358.768C42.1113 359.12 42.8313 359.296 43.6153 359.296ZM60.0948 361L56.9748 356.104L53.9748 361H51.6948L55.9428 354.472L51.6948 347.848H54.1668L57.2868 352.72L60.2628 347.848H62.5428L58.3188 354.352L62.5668 361H60.0948ZM66.8992 350.272C67.3312 349.52 67.9712 348.896 68.8192 348.4C69.6832 347.888 70.6832 347.632 71.8192 347.632C72.9872 347.632 74.0432 347.912 74.9872 348.472C75.9472 349.032 76.6992 349.824 77.2432 350.848C77.7872 351.856 78.0592 353.032 78.0592 354.376C78.0592 355.704 77.7872 356.888 77.2432 357.928C76.6992 358.968 75.9472 359.776 74.9872 360.352C74.0432 360.928 72.9872 361.216 71.8192 361.216C70.6992 361.216 69.7072 360.968 68.8432 360.472C67.9952 359.96 67.3472 359.328 66.8992 358.576V367.24H64.7152V347.848H66.8992V350.272ZM75.8272 354.376C75.8272 353.384 75.6272 352.52 75.2272 351.784C74.8272 351.048 74.2832 350.488 73.5952 350.104C72.9232 349.72 72.1792 349.528 71.3632 349.528C70.5632 349.528 69.8192 349.728 69.1312 350.128C68.4592 350.512 67.9152 351.08 67.4992 351.832C67.0992 352.568 66.8992 353.424 66.8992 354.4C66.8992 355.392 67.0992 356.264 67.4992 357.016C67.9152 357.752 68.4592 358.32 69.1312 358.72C69.8192 359.104 70.5632 359.296 71.3632 359.296C72.1792 359.296 72.9232 359.104 73.5952 358.72C74.2832 358.32 74.8272 357.752 75.2272 357.016C75.6272 356.264 75.8272 355.384 75.8272 354.376ZM83.1179 343.24V361H80.9339V343.24H83.1179ZM92.5762 361.216C91.3442 361.216 90.2242 360.936 89.2162 360.376C88.2242 359.816 87.4402 359.024 86.8642 358C86.3042 356.96 86.0242 355.76 86.0242 354.4C86.0242 353.056 86.3122 351.872 86.8882 350.848C87.4802 349.808 88.2802 349.016 89.2882 348.472C90.2962 347.912 91.4242 347.632 92.6722 347.632C93.9202 347.632 95.0482 347.912 96.0562 348.472C97.0642 349.016 97.8562 349.8 98.4322 350.824C99.0242 351.848 99.3202 353.04 99.3202 354.4C99.3202 355.76 99.0162 356.96 98.4082 358C97.8162 359.024 97.0082 359.816 95.9842 360.376C94.9602 360.936 93.8242 361.216 92.5762 361.216ZM92.5762 359.296C93.3602 359.296 94.0962 359.112 94.7842 358.744C95.4722 358.376 96.0242 357.824 96.4402 357.088C96.8722 356.352 97.0882 355.456 97.0882 354.4C97.0882 353.344 96.8802 352.448 96.4642 351.712C96.0482 350.976 95.5042 350.432 94.8322 350.08C94.1602 349.712 93.4322 349.528 92.6482 349.528C91.8482 349.528 91.1122 349.712 90.4402 350.08C89.7842 350.432 89.2562 350.976 88.8562 351.712C88.4562 352.448 88.2562 353.344 88.2562 354.4C88.2562 355.472 88.4482 356.376 88.8322 357.112C89.2322 357.848 89.7602 358.4 90.4162 358.768C91.0722 359.12 91.7922 359.296 92.5762 359.296ZM104.376 349.984C104.76 349.232 105.304 348.648 106.008 348.232C106.728 347.816 107.6 347.608 108.624 347.608V349.864H108.048C105.6 349.864 104.376 351.192 104.376 353.848V361H102.192V347.848H104.376V349.984ZM123.145 353.92C123.145 354.336 123.121 354.776 123.073 355.24H112.561C112.641 356.536 113.081 357.552 113.881 358.288C114.697 359.008 115.681 359.368 116.833 359.368C117.777 359.368 118.561 359.152 119.185 358.72C119.825 358.272 120.273 357.68 120.529 356.944H122.881C122.529 358.208 121.825 359.24 120.769 360.04C119.713 360.824 118.401 361.216 116.833 361.216C115.585 361.216 114.465 360.936 113.473 360.376C112.497 359.816 111.729 359.024 111.169 358C110.609 356.96 110.329 355.76 110.329 354.4C110.329 353.04 110.601 351.848 111.145 350.824C111.689 349.8 112.449 349.016 113.425 348.472C114.417 347.912 115.553 347.632 116.833 347.632C118.081 347.632 119.185 347.904 120.145 348.448C121.105 348.992 121.841 349.744 122.353 350.704C122.881 351.648 123.145 352.72 123.145 353.92ZM120.889 353.464C120.889 352.632 120.705 351.92 120.337 351.328C119.969 350.72 119.465 350.264 118.825 349.96C118.201 349.64 117.505 349.48 116.737 349.48C115.633 349.48 114.689 349.832 113.905 350.536C113.137 351.24 112.697 352.216 112.585 353.464H120.889ZM134.61 350.272C135.042 349.52 135.682 348.896 136.53 348.4C137.394 347.888 138.394 347.632 139.53 347.632C140.698 347.632 141.754 347.912 142.698 348.472C143.658 349.032 144.41 349.824 144.954 350.848C145.498 351.856 145.77 353.032 145.77 354.376C145.77 355.704 145.498 356.888 144.954 357.928C144.41 358.968 143.658 359.776 142.698 360.352C141.754 360.928 140.698 361.216 139.53 361.216C138.41 361.216 137.418 360.968 136.554 360.472C135.706 359.96 135.058 359.328 134.61 358.576V367.24H132.426V347.848H134.61V350.272ZM143.538 354.376C143.538 353.384 143.338 352.52 142.938 351.784C142.538 351.048 141.994 350.488 141.306 350.104C140.634 349.72 139.89 349.528 139.074 349.528C138.274 349.528 137.53 349.728 136.842 350.128C136.17 350.512 135.626 351.08 135.21 351.832C134.81 352.568 134.61 353.424 134.61 354.4C134.61 355.392 134.81 356.264 135.21 357.016C135.626 357.752 136.17 358.32 136.842 358.72C137.53 359.104 138.274 359.296 139.074 359.296C139.89 359.296 140.634 359.104 141.306 358.72C141.994 358.32 142.538 357.752 142.938 357.016C143.338 356.264 143.538 355.384 143.538 354.376ZM147.829 354.376C147.829 353.032 148.101 351.856 148.645 350.848C149.189 349.824 149.933 349.032 150.877 348.472C151.837 347.912 152.901 347.632 154.069 347.632C155.221 347.632 156.221 347.88 157.069 348.376C157.917 348.872 158.549 349.496 158.965 350.248V347.848H161.173V361H158.965V358.552C158.533 359.32 157.885 359.96 157.021 360.472C156.173 360.968 155.181 361.216 154.045 361.216C152.877 361.216 151.821 360.928 150.877 360.352C149.933 359.776 149.189 358.968 148.645 357.928C148.101 356.888 147.829 355.704 147.829 354.376ZM158.965 354.4C158.965 353.408 158.765 352.544 158.365 351.808C157.965 351.072 157.421 350.512 156.733 350.128C156.061 349.728 155.317 349.528 154.501 349.528C153.685 349.528 152.941 349.72 152.269 350.104C151.597 350.488 151.061 351.048 150.661 351.784C150.261 352.52 150.061 353.384 150.061 354.376C150.061 355.384 150.261 356.264 150.661 357.016C151.061 357.752 151.597 358.32 152.269 358.72C152.941 359.104 153.685 359.296 154.501 359.296C155.317 359.296 156.061 359.104 156.733 358.72C157.421 358.32 157.965 357.752 158.365 357.016C158.765 356.264 158.965 355.392 158.965 354.4ZM164.048 354.376C164.048 353.032 164.32 351.856 164.864 350.848C165.408 349.824 166.152 349.032 167.096 348.472C168.056 347.912 169.128 347.632 170.312 347.632C171.336 347.632 172.288 347.872 173.168 348.352C174.048 348.816 174.72 349.432 175.184 350.2V343.24H177.392V361H175.184V358.528C174.752 359.312 174.112 359.96 173.264 360.472C172.416 360.968 171.424 361.216 170.288 361.216C169.12 361.216 168.056 360.928 167.096 360.352C166.152 359.776 165.408 358.968 164.864 357.928C164.32 356.888 164.048 355.704 164.048 354.376ZM175.184 354.4C175.184 353.408 174.984 352.544 174.584 351.808C174.184 351.072 173.64 350.512 172.952 350.128C172.28 349.728 171.536 349.528 170.72 349.528C169.904 349.528 169.16 349.72 168.488 350.104C167.816 350.488 167.28 351.048 166.88 351.784C166.48 352.52 166.28 353.384 166.28 354.376C166.28 355.384 166.48 356.264 166.88 357.016C167.28 357.752 167.816 358.32 168.488 358.72C169.16 359.104 169.904 359.296 170.72 359.296C171.536 359.296 172.28 359.104 172.952 358.72C173.64 358.32 174.184 357.752 174.584 357.016C174.984 356.264 175.184 355.392 175.184 354.4ZM180.266 354.376C180.266 353.032 180.538 351.856 181.082 350.848C181.626 349.824 182.37 349.032 183.314 348.472C184.274 347.912 185.338 347.632 186.506 347.632C187.658 347.632 188.658 347.88 189.506 348.376C190.354 348.872 190.986 349.496 191.402 350.248V347.848H193.61V361H191.402V358.552C190.97 359.32 190.322 359.96 189.458 360.472C188.61 360.968 187.618 361.216 186.482 361.216C185.314 361.216 184.258 360.928 183.314 360.352C182.37 359.776 181.626 358.968 181.082 357.928C180.538 356.888 180.266 355.704 180.266 354.376ZM191.402 354.4C191.402 353.408 191.202 352.544 190.802 351.808C190.402 351.072 189.858 350.512 189.17 350.128C188.498 349.728 187.754 349.528 186.938 349.528C186.122 349.528 185.378 349.72 184.706 350.104C184.034 350.488 183.498 351.048 183.098 351.784C182.698 352.52 182.498 353.384 182.498 354.376C182.498 355.384 182.698 356.264 183.098 357.016C183.498 357.752 184.034 358.32 184.706 358.72C185.378 359.104 186.122 359.296 186.938 359.296C187.754 359.296 188.498 359.104 189.17 358.72C189.858 358.32 190.402 357.752 190.802 357.016C191.202 356.264 191.402 355.392 191.402 354.4ZM208.356 361.216C207.348 361.216 206.444 361.048 205.644 360.712C204.844 360.36 204.212 359.88 203.748 359.272C203.284 358.648 203.028 357.936 202.98 357.136H205.236C205.3 357.792 205.604 358.328 206.148 358.744C206.708 359.16 207.436 359.368 208.332 359.368C209.164 359.368 209.82 359.184 210.3 358.816C210.78 358.448 211.02 357.984 211.02 357.424C211.02 356.848 210.764 356.424 210.252 356.152C209.74 355.864 208.948 355.584 207.876 355.312C206.9 355.056 206.1 354.8 205.476 354.544C204.868 354.272 204.34 353.88 203.892 353.368C203.46 352.84 203.244 352.152 203.244 351.304C203.244 350.632 203.444 350.016 203.844 349.456C204.244 348.896 204.812 348.456 205.548 348.136C206.284 347.8 207.124 347.632 208.068 347.632C209.524 347.632 210.7 348 211.596 348.736C212.492 349.472 212.972 350.48 213.036 351.76H210.852C210.804 351.072 210.524 350.52 210.012 350.104C209.516 349.688 208.844 349.48 207.996 349.48C207.212 349.48 206.588 349.648 206.124 349.984C205.66 350.32 205.428 350.76 205.428 351.304C205.428 351.736 205.564 352.096 205.836 352.384C206.124 352.656 206.476 352.88 206.892 353.056C207.324 353.216 207.916 353.4 208.668 353.608C209.612 353.864 210.38 354.12 210.972 354.376C211.564 354.616 212.068 354.984 212.484 355.48C212.916 355.976 213.14 356.624 213.156 357.424C213.156 358.144 212.956 358.792 212.556 359.368C212.156 359.944 211.588 360.4 210.852 360.736C210.132 361.056 209.3 361.216 208.356 361.216ZM232.055 347.608C233.079 347.608 233.991 347.824 234.791 348.256C235.591 348.672 236.223 349.304 236.687 350.152C237.151 351 237.383 352.032 237.383 353.248V361H235.223V353.56C235.223 352.248 234.895 351.248 234.239 350.56C233.599 349.856 232.727 349.504 231.623 349.504C230.487 349.504 229.583 349.872 228.911 350.608C228.239 351.328 227.903 352.376 227.903 353.752V361H225.743V353.56C225.743 352.248 225.415 351.248 224.759 350.56C224.119 349.856 223.247 349.504 222.143 349.504C221.007 349.504 220.103 349.872 219.431 350.608C218.759 351.328 218.423 352.376 218.423 353.752V361H216.239V347.848H218.423V349.744C218.855 349.056 219.431 348.528 220.151 348.16C220.887 347.792 221.695 347.608 222.575 347.608C223.679 347.608 224.655 347.856 225.503 348.352C226.351 348.848 226.983 349.576 227.399 350.536C227.767 349.608 228.375 348.888 229.223 348.376C230.071 347.864 231.015 347.608 232.055 347.608ZM240.149 354.376C240.149 353.032 240.421 351.856 240.965 350.848C241.509 349.824 242.253 349.032 243.197 348.472C244.157 347.912 245.221 347.632 246.389 347.632C247.541 347.632 248.541 347.88 249.389 348.376C250.237 348.872 250.869 349.496 251.285 350.248V347.848H253.493V361H251.285V358.552C250.853 359.32 250.205 359.96 249.341 360.472C248.493 360.968 247.501 361.216 246.365 361.216C245.197 361.216 244.141 360.928 243.197 360.352C242.253 359.776 241.509 358.968 240.965 357.928C240.421 356.888 240.149 355.704 240.149 354.376ZM251.285 354.4C251.285 353.408 251.085 352.544 250.685 351.808C250.285 351.072 249.741 350.512 249.053 350.128C248.381 349.728 247.637 349.528 246.821 349.528C246.005 349.528 245.261 349.72 244.589 350.104C243.917 350.488 243.381 351.048 242.981 351.784C242.581 352.52 242.381 353.384 242.381 354.376C242.381 355.384 242.581 356.264 242.981 357.016C243.381 357.752 243.917 358.32 244.589 358.72C245.261 359.104 246.005 359.296 246.821 359.296C247.637 359.296 248.381 359.104 249.053 358.72C249.741 358.32 250.285 357.752 250.685 357.016C251.085 356.264 251.285 355.392 251.285 354.4ZM259.368 349.984C259.752 349.232 260.296 348.648 261 348.232C261.72 347.816 262.592 347.608 263.616 347.608V349.864H263.04C260.592 349.864 259.368 351.192 259.368 353.848V361H257.184V347.848H259.368V349.984ZM268.801 349.648V357.4C268.801 358.04 268.937 358.496 269.209 358.768C269.481 359.024 269.953 359.152 270.625 359.152H272.233V361H270.265C269.049 361 268.137 360.72 267.529 360.16C266.921 359.6 266.617 358.68 266.617 357.4V349.648H264.913V347.848H266.617V344.536H268.801V347.848H272.233V349.648H268.801ZM277.063 350.272C277.495 349.52 278.135 348.896 278.983 348.4C279.847 347.888 280.847 347.632 281.983 347.632C283.151 347.632 284.207 347.912 285.151 348.472C286.111 349.032 286.863 349.824 287.407 350.848C287.951 351.856 288.223 353.032 288.223 354.376C288.223 355.704 287.951 356.888 287.407 357.928C286.863 358.968 286.111 359.776 285.151 360.352C284.207 360.928 283.151 361.216 281.983 361.216C280.863 361.216 279.871 360.968 279.007 360.472C278.159 359.96 277.511 359.328 277.063 358.576V367.24H274.879V347.848H277.063V350.272ZM285.991 354.376C285.991 353.384 285.791 352.52 285.391 351.784C284.991 351.048 284.447 350.488 283.759 350.104C283.087 349.72 282.343 349.528 281.527 349.528C280.727 349.528 279.983 349.728 279.295 350.128C278.623 350.512 278.079 351.08 277.663 351.832C277.263 352.568 277.063 353.424 277.063 354.4C277.063 355.392 277.263 356.264 277.663 357.016C278.079 357.752 278.623 358.32 279.295 358.72C279.983 359.104 280.727 359.296 281.527 359.296C282.343 359.296 283.087 359.104 283.759 358.72C284.447 358.32 284.991 357.752 285.391 357.016C285.791 356.264 285.991 355.384 285.991 354.376ZM297.626 347.608C298.618 347.608 299.514 347.824 300.314 348.256C301.114 348.672 301.738 349.304 302.186 350.152C302.65 351 302.882 352.032 302.882 353.248V361H300.722V353.56C300.722 352.248 300.394 351.248 299.738 350.56C299.082 349.856 298.186 349.504 297.05 349.504C295.898 349.504 294.978 349.864 294.29 350.584C293.618 351.304 293.282 352.352 293.282 353.728V361H291.098V343.24H293.282V349.72C293.714 349.048 294.306 348.528 295.058 348.16C295.826 347.792 296.682 347.608 297.626 347.608ZM312.186 361.216C310.954 361.216 309.834 360.936 308.826 360.376C307.834 359.816 307.05 359.024 306.474 358C305.914 356.96 305.634 355.76 305.634 354.4C305.634 353.056 305.922 351.872 306.498 350.848C307.09 349.808 307.89 349.016 308.898 348.472C309.906 347.912 311.034 347.632 312.282 347.632C313.53 347.632 314.658 347.912 315.666 348.472C316.674 349.016 317.466 349.8 318.042 350.824C318.634 351.848 318.93 353.04 318.93 354.4C318.93 355.76 318.626 356.96 318.018 358C317.426 359.024 316.618 359.816 315.594 360.376C314.57 360.936 313.434 361.216 312.186 361.216ZM312.186 359.296C312.97 359.296 313.706 359.112 314.394 358.744C315.082 358.376 315.634 357.824 316.05 357.088C316.482 356.352 316.698 355.456 316.698 354.4C316.698 353.344 316.49 352.448 316.074 351.712C315.658 350.976 315.114 350.432 314.442 350.08C313.77 349.712 313.042 349.528 312.258 349.528C311.458 349.528 310.722 349.712 310.05 350.08C309.394 350.432 308.866 350.976 308.466 351.712C308.066 352.448 307.866 353.344 307.866 354.4C307.866 355.472 308.058 356.376 308.442 357.112C308.842 357.848 309.37 358.4 310.026 358.768C310.682 359.12 311.402 359.296 312.186 359.296ZM328.209 347.608C329.809 347.608 331.105 348.096 332.097 349.072C333.089 350.032 333.585 351.424 333.585 353.248V361H331.425V353.56C331.425 352.248 331.097 351.248 330.441 350.56C329.785 349.856 328.889 349.504 327.753 349.504C326.601 349.504 325.681 349.864 324.993 350.584C324.321 351.304 323.985 352.352 323.985 353.728V361H321.801V347.848H323.985V349.72C324.417 349.048 325.001 348.528 325.737 348.16C326.489 347.792 327.313 347.608 328.209 347.608ZM349.153 353.92C349.153 354.336 349.129 354.776 349.081 355.24H338.569C338.649 356.536 339.089 357.552 339.889 358.288C340.705 359.008 341.689 359.368 342.841 359.368C343.785 359.368 344.569 359.152 345.193 358.72C345.833 358.272 346.281 357.68 346.537 356.944H348.889C348.537 358.208 347.833 359.24 346.777 360.04C345.721 360.824 344.409 361.216 342.841 361.216C341.593 361.216 340.473 360.936 339.481 360.376C338.505 359.816 337.737 359.024 337.177 358C336.617 356.96 336.337 355.76 336.337 354.4C336.337 353.04 336.609 351.848 337.153 350.824C337.697 349.8 338.457 349.016 339.433 348.472C340.425 347.912 341.561 347.632 342.841 347.632C344.089 347.632 345.193 347.904 346.153 348.448C347.113 348.992 347.849 349.744 348.361 350.704C348.889 351.648 349.153 352.72 349.153 353.92ZM346.897 353.464C346.897 352.632 346.713 351.92 346.345 351.328C345.977 350.72 345.473 350.264 344.833 349.96C344.209 349.64 343.513 349.48 342.745 349.48C341.641 349.48 340.697 349.832 339.913 350.536C339.145 351.24 338.705 352.216 338.593 353.464H346.897Z" fill="#25014B"/>
<defs>
<linearGradient id="paint0_linear_42_3745" x1="180.64" y1="0" x2="180.64" y2="265.28" gradientUnits="userSpaceOnUse">
<stop stop-color="#25014B"/>
<stop offset="1" stop-color="#511F85"/>
</linearGradient>
<linearGradient id="paint1_linear_42_3745" x1="86.5" y1="0" x2="86.5" y2="77" gradientUnits="userSpaceOnUse">
<stop stop-color="#25014B"/>
<stop offset="1" stop-color="#511F85"/>
</linearGradient>
</defs>
</svg>
